%TF.GenerationSoftware,KiCad,Pcbnew,(5.99.0-12960-gccd3a1e6a9)*%
%TF.CreationDate,2021-11-17T23:12:52-08:00*%
%TF.ProjectId,Team2EpicDiceRoller,5465616d-3245-4706-9963-44696365526f,rev?*%
%TF.SameCoordinates,Original*%
%TF.FileFunction,Soldermask,Bot*%
%TF.FilePolarity,Negative*%
%FSLAX46Y46*%
G04 Gerber Fmt 4.6, Leading zero omitted, Abs format (unit mm)*
G04 Created by KiCad (PCBNEW (5.99.0-12960-gccd3a1e6a9)) date 2021-11-17 23:12:52*
%MOMM*%
%LPD*%
G01*
G04 APERTURE LIST*
G04 Aperture macros list*
%AMRoundRect*
0 Rectangle with rounded corners*
0 $1 Rounding radius*
0 $2 $3 $4 $5 $6 $7 $8 $9 X,Y pos of 4 corners*
0 Add a 4 corners polygon primitive as box body*
4,1,4,$2,$3,$4,$5,$6,$7,$8,$9,$2,$3,0*
0 Add four circle primitives for the rounded corners*
1,1,$1+$1,$2,$3*
1,1,$1+$1,$4,$5*
1,1,$1+$1,$6,$7*
1,1,$1+$1,$8,$9*
0 Add four rect primitives between the rounded corners*
20,1,$1+$1,$2,$3,$4,$5,0*
20,1,$1+$1,$4,$5,$6,$7,0*
20,1,$1+$1,$6,$7,$8,$9,0*
20,1,$1+$1,$8,$9,$2,$3,0*%
G04 Aperture macros list end*
%ADD10C,3.200000*%
%ADD11C,2.000000*%
%ADD12R,3.500000X4.000000*%
%ADD13RoundRect,0.750000X0.750000X1.000000X-0.750000X1.000000X-0.750000X-1.000000X0.750000X-1.000000X0*%
%ADD14R,2.200000X2.200000*%
%ADD15O,2.200000X2.200000*%
%ADD16R,1.600000X1.600000*%
%ADD17O,1.600000X1.600000*%
%ADD18C,1.600000*%
%ADD19C,1.500000*%
%ADD20R,2.625000X2.625000*%
%ADD21C,2.625000*%
%ADD22R,1.700000X1.700000*%
%ADD23O,1.700000X1.700000*%
%ADD24R,2.000000X2.000000*%
%ADD25R,3.200000X2.000000*%
%ADD26R,2.600000X2.000000*%
%ADD27RoundRect,0.250000X-0.400000X-0.625000X0.400000X-0.625000X0.400000X0.625000X-0.400000X0.625000X0*%
%ADD28RoundRect,0.250000X0.412500X0.650000X-0.412500X0.650000X-0.412500X-0.650000X0.412500X-0.650000X0*%
%ADD29RoundRect,0.250000X-0.412500X-0.650000X0.412500X-0.650000X0.412500X0.650000X-0.412500X0.650000X0*%
%ADD30RoundRect,0.250000X0.400000X0.625000X-0.400000X0.625000X-0.400000X-0.625000X0.400000X-0.625000X0*%
%ADD31RoundRect,0.250000X-0.625000X0.400000X-0.625000X-0.400000X0.625000X-0.400000X0.625000X0.400000X0*%
%ADD32RoundRect,0.250000X0.625000X-0.400000X0.625000X0.400000X-0.625000X0.400000X-0.625000X-0.400000X0*%
%ADD33R,1.500000X0.450000*%
%ADD34RoundRect,0.250000X-0.650000X0.412500X-0.650000X-0.412500X0.650000X-0.412500X0.650000X0.412500X0*%
%ADD35RoundRect,0.249999X-1.425001X0.450001X-1.425001X-0.450001X1.425001X-0.450001X1.425001X0.450001X0*%
%ADD36RoundRect,0.249999X-0.450001X-1.425001X0.450001X-1.425001X0.450001X1.425001X-0.450001X1.425001X0*%
%ADD37RoundRect,0.150000X-0.150000X0.825000X-0.150000X-0.825000X0.150000X-0.825000X0.150000X0.825000X0*%
G04 APERTURE END LIST*
D10*
%TO.C,H2*%
X179700000Y-55900000D03*
%TD*%
D11*
%TO.C,SW8*%
X175250000Y-67600000D03*
X168750000Y-67600000D03*
X168750000Y-72100000D03*
X175250000Y-72100000D03*
%TD*%
D12*
%TO.C,J3*%
X171350000Y-97582500D03*
D13*
X177350000Y-97582500D03*
%TD*%
D11*
%TO.C,SW6*%
X138750000Y-67600000D03*
X145250000Y-67600000D03*
X138750000Y-72100000D03*
X145250000Y-72100000D03*
%TD*%
D14*
%TO.C,D4*%
X150445000Y-33275000D03*
D15*
X160605000Y-33275000D03*
%TD*%
D16*
%TO.C,U4*%
X145800000Y-121000000D03*
D17*
X145800000Y-118460000D03*
X145800000Y-115920000D03*
X145800000Y-113380000D03*
X145800000Y-110840000D03*
X145800000Y-108300000D03*
X145800000Y-105760000D03*
X145800000Y-103220000D03*
X145800000Y-100680000D03*
X145800000Y-98140000D03*
X145800000Y-95600000D03*
X145800000Y-93060000D03*
X145800000Y-90520000D03*
X145800000Y-87980000D03*
X138180000Y-87980000D03*
X138180000Y-90520000D03*
X138180000Y-93060000D03*
X138180000Y-95600000D03*
X138180000Y-98140000D03*
X138180000Y-100680000D03*
X138180000Y-103220000D03*
X138180000Y-105760000D03*
X138180000Y-108300000D03*
X138180000Y-110840000D03*
X138180000Y-113380000D03*
X138180000Y-115920000D03*
X138180000Y-118460000D03*
X138180000Y-121000000D03*
%TD*%
D10*
%TO.C,H5*%
X101600000Y-125700000D03*
%TD*%
%TO.C,H4*%
X179700000Y-25400000D03*
%TD*%
D16*
%TO.C,C8*%
X112500000Y-90044887D03*
D18*
X115000000Y-90044887D03*
%TD*%
D14*
%TO.C,D3*%
X110570000Y-33275000D03*
D15*
X120730000Y-33275000D03*
%TD*%
D16*
%TO.C,C6*%
X175900000Y-83525000D03*
D18*
X175900000Y-81025000D03*
%TD*%
D19*
%TO.C,Y1*%
X151500000Y-101450000D03*
X151500000Y-96570000D03*
%TD*%
D20*
%TO.C,SW3*%
X160560000Y-102232500D03*
D21*
X160560000Y-97632500D03*
%TD*%
D22*
%TO.C,J1*%
X128290000Y-120475000D03*
D23*
X125750000Y-120475000D03*
X128290000Y-123015000D03*
X125750000Y-123015000D03*
X128290000Y-125555000D03*
X125750000Y-125555000D03*
%TD*%
D16*
%TO.C,D2*%
X111915000Y-39125000D03*
D17*
X119535000Y-39125000D03*
%TD*%
D24*
%TO.C,SW4*%
X166575000Y-112100000D03*
D11*
X166575000Y-117100000D03*
X166575000Y-114600000D03*
D25*
X174075000Y-120200000D03*
X174075000Y-109000000D03*
D11*
X181075000Y-117100000D03*
X181075000Y-112100000D03*
%TD*%
D22*
%TO.C,JP1*%
X104750000Y-87975000D03*
D23*
X104750000Y-90515000D03*
X104750000Y-93055000D03*
%TD*%
D11*
%TO.C,SW5*%
X108750000Y-67600000D03*
X115250000Y-67600000D03*
X115250000Y-72100000D03*
X108750000Y-72100000D03*
%TD*%
D10*
%TO.C,H1*%
X104775000Y-55875000D03*
%TD*%
D22*
%TO.C,JP2*%
X159575000Y-86075000D03*
D23*
X162115000Y-86075000D03*
X164655000Y-86075000D03*
%TD*%
D22*
%TO.C,J2*%
X149961600Y-25400000D03*
D23*
X147421600Y-25400000D03*
X144881600Y-25400000D03*
X142341600Y-25400000D03*
X139801600Y-25400000D03*
X137261600Y-25400000D03*
X134721600Y-25400000D03*
X132181600Y-25400000D03*
X129641600Y-25400000D03*
X127101600Y-25400000D03*
X124561600Y-25400000D03*
X122021600Y-25400000D03*
X119481600Y-25400000D03*
X116941600Y-25400000D03*
X114401600Y-25400000D03*
X111861600Y-25400000D03*
%TD*%
D10*
%TO.C,H3*%
X104775000Y-25400000D03*
%TD*%
D16*
%TO.C,D1*%
X151515000Y-39125000D03*
D17*
X159135000Y-39125000D03*
%TD*%
D22*
%TO.C,SW2*%
X150700000Y-85250000D03*
D23*
X153240000Y-85250000D03*
%TD*%
D10*
%TO.C,H6*%
X182425000Y-125675000D03*
%TD*%
D11*
%TO.C,SW7*%
X161750000Y-125750000D03*
X155250000Y-125750000D03*
X155250000Y-121250000D03*
X161750000Y-121250000D03*
%TD*%
D26*
%TO.C,SW1*%
X111575000Y-110975000D03*
X111575000Y-115675000D03*
X111575000Y-120375000D03*
%TD*%
D27*
%TO.C,R11*%
X118445000Y-72025000D03*
X121545000Y-72025000D03*
%TD*%
D28*
%TO.C,C7*%
X121537500Y-67200000D03*
X118412500Y-67200000D03*
%TD*%
D29*
%TO.C,C11*%
X131412500Y-67200000D03*
X134537500Y-67200000D03*
%TD*%
%TO.C,C12*%
X161812500Y-67200000D03*
X164937500Y-67200000D03*
%TD*%
D30*
%TO.C,R17*%
X134545000Y-72025000D03*
X131445000Y-72025000D03*
%TD*%
D31*
%TO.C,R18*%
X150000000Y-117950000D03*
X150000000Y-121050000D03*
%TD*%
D30*
%TO.C,R1*%
X153800000Y-80925000D03*
X150700000Y-80925000D03*
%TD*%
D32*
%TO.C,R19*%
X164900000Y-78225000D03*
X164900000Y-75125000D03*
%TD*%
D28*
%TO.C,C9*%
X153137500Y-107825000D03*
X150012500Y-107825000D03*
%TD*%
D33*
%TO.C,Q1*%
X141645000Y-36925000D03*
X141645000Y-35625000D03*
X144305000Y-36275000D03*
%TD*%
D30*
%TO.C,R20*%
X165000000Y-72025000D03*
X161900000Y-72025000D03*
%TD*%
%TO.C,R16*%
X145775000Y-30250000D03*
X142675000Y-30250000D03*
%TD*%
D32*
%TO.C,R15*%
X134500000Y-79475000D03*
X134500000Y-76375000D03*
%TD*%
D30*
%TO.C,R4*%
X125295000Y-112000000D03*
X122195000Y-112000000D03*
%TD*%
D28*
%TO.C,C3*%
X125337500Y-101625000D03*
X122212500Y-101625000D03*
%TD*%
D27*
%TO.C,R2*%
X99925000Y-119225000D03*
X103025000Y-119225000D03*
%TD*%
D34*
%TO.C,C18*%
X121850000Y-90112500D03*
X121850000Y-93237500D03*
%TD*%
D30*
%TO.C,R21*%
X161350000Y-111050000D03*
X158250000Y-111050000D03*
%TD*%
D27*
%TO.C,R22*%
X158250000Y-115900000D03*
X161350000Y-115900000D03*
%TD*%
D29*
%TO.C,C15*%
X130937500Y-99000000D03*
X134062500Y-99000000D03*
%TD*%
D28*
%TO.C,C14*%
X153137500Y-111675000D03*
X150012500Y-111675000D03*
%TD*%
D29*
%TO.C,C13*%
X130937500Y-104500000D03*
X134062500Y-104500000D03*
%TD*%
D32*
%TO.C,R14*%
X135000000Y-36700000D03*
X135000000Y-33600000D03*
%TD*%
D35*
%TO.C,R12*%
X104750000Y-98750000D03*
X104750000Y-104850000D03*
%TD*%
D28*
%TO.C,C10*%
X153137500Y-90325000D03*
X150012500Y-90325000D03*
%TD*%
D36*
%TO.C,R13*%
X172450000Y-89500000D03*
X178550000Y-89500000D03*
%TD*%
D27*
%TO.C,R3*%
X100025000Y-110925000D03*
X103125000Y-110925000D03*
%TD*%
%TO.C,R6*%
X122195000Y-106750000D03*
X125295000Y-106750000D03*
%TD*%
D32*
%TO.C,R9*%
X118775000Y-79475000D03*
X118775000Y-76375000D03*
%TD*%
D37*
%TO.C,U2*%
X126590000Y-89000000D03*
X127860000Y-89000000D03*
X129130000Y-89000000D03*
X130400000Y-89000000D03*
X131670000Y-89000000D03*
X132940000Y-89000000D03*
X134210000Y-89000000D03*
X134210000Y-93950000D03*
X132940000Y-93950000D03*
X131670000Y-93950000D03*
X130400000Y-93950000D03*
X129130000Y-93950000D03*
X127860000Y-93950000D03*
X126590000Y-93950000D03*
%TD*%
M02*
