%TF.GenerationSoftware,KiCad,Pcbnew,(5.99.0-12960-gccd3a1e6a9)*%
%TF.CreationDate,2021-11-17T23:12:52-08:00*%
%TF.ProjectId,Team2EpicDiceRoller,5465616d-3245-4706-9963-44696365526f,rev?*%
%TF.SameCoordinates,Original*%
%TF.FileFunction,Paste,Bot*%
%TF.FilePolarity,Positive*%
%FSLAX46Y46*%
G04 Gerber Fmt 4.6, Leading zero omitted, Abs format (unit mm)*
G04 Created by KiCad (PCBNEW (5.99.0-12960-gccd3a1e6a9)) date 2021-11-17 23:12:52*
%MOMM*%
%LPD*%
G01*
G04 APERTURE LIST*
G04 Aperture macros list*
%AMRoundRect*
0 Rectangle with rounded corners*
0 $1 Rounding radius*
0 $2 $3 $4 $5 $6 $7 $8 $9 X,Y pos of 4 corners*
0 Add a 4 corners polygon primitive as box body*
4,1,4,$2,$3,$4,$5,$6,$7,$8,$9,$2,$3,0*
0 Add four circle primitives for the rounded corners*
1,1,$1+$1,$2,$3*
1,1,$1+$1,$4,$5*
1,1,$1+$1,$6,$7*
1,1,$1+$1,$8,$9*
0 Add four rect primitives between the rounded corners*
20,1,$1+$1,$2,$3,$4,$5,0*
20,1,$1+$1,$4,$5,$6,$7,0*
20,1,$1+$1,$6,$7,$8,$9,0*
20,1,$1+$1,$8,$9,$2,$3,0*%
G04 Aperture macros list end*
%ADD10RoundRect,0.250000X-0.400000X-0.625000X0.400000X-0.625000X0.400000X0.625000X-0.400000X0.625000X0*%
%ADD11RoundRect,0.250000X0.412500X0.650000X-0.412500X0.650000X-0.412500X-0.650000X0.412500X-0.650000X0*%
%ADD12RoundRect,0.250000X-0.412500X-0.650000X0.412500X-0.650000X0.412500X0.650000X-0.412500X0.650000X0*%
%ADD13RoundRect,0.250000X0.400000X0.625000X-0.400000X0.625000X-0.400000X-0.625000X0.400000X-0.625000X0*%
%ADD14RoundRect,0.250000X-0.625000X0.400000X-0.625000X-0.400000X0.625000X-0.400000X0.625000X0.400000X0*%
%ADD15RoundRect,0.250000X0.625000X-0.400000X0.625000X0.400000X-0.625000X0.400000X-0.625000X-0.400000X0*%
%ADD16R,1.500000X0.450000*%
%ADD17RoundRect,0.250000X-0.650000X0.412500X-0.650000X-0.412500X0.650000X-0.412500X0.650000X0.412500X0*%
%ADD18RoundRect,0.249999X-1.425001X0.450001X-1.425001X-0.450001X1.425001X-0.450001X1.425001X0.450001X0*%
%ADD19RoundRect,0.249999X-0.450001X-1.425001X0.450001X-1.425001X0.450001X1.425001X-0.450001X1.425001X0*%
%ADD20RoundRect,0.150000X-0.150000X0.825000X-0.150000X-0.825000X0.150000X-0.825000X0.150000X0.825000X0*%
G04 APERTURE END LIST*
D10*
%TO.C,R11*%
X118445000Y-72025000D03*
X121545000Y-72025000D03*
%TD*%
D11*
%TO.C,C7*%
X121537500Y-67200000D03*
X118412500Y-67200000D03*
%TD*%
D12*
%TO.C,C11*%
X131412500Y-67200000D03*
X134537500Y-67200000D03*
%TD*%
%TO.C,C12*%
X161812500Y-67200000D03*
X164937500Y-67200000D03*
%TD*%
D13*
%TO.C,R17*%
X134545000Y-72025000D03*
X131445000Y-72025000D03*
%TD*%
D14*
%TO.C,R18*%
X150000000Y-117950000D03*
X150000000Y-121050000D03*
%TD*%
D13*
%TO.C,R1*%
X153800000Y-80925000D03*
X150700000Y-80925000D03*
%TD*%
D15*
%TO.C,R19*%
X164900000Y-78225000D03*
X164900000Y-75125000D03*
%TD*%
D11*
%TO.C,C9*%
X153137500Y-107825000D03*
X150012500Y-107825000D03*
%TD*%
D16*
%TO.C,Q1*%
X141645000Y-36925000D03*
X141645000Y-35625000D03*
X144305000Y-36275000D03*
%TD*%
D13*
%TO.C,R20*%
X165000000Y-72025000D03*
X161900000Y-72025000D03*
%TD*%
%TO.C,R16*%
X145775000Y-30250000D03*
X142675000Y-30250000D03*
%TD*%
D15*
%TO.C,R15*%
X134500000Y-79475000D03*
X134500000Y-76375000D03*
%TD*%
D13*
%TO.C,R4*%
X125295000Y-112000000D03*
X122195000Y-112000000D03*
%TD*%
D11*
%TO.C,C3*%
X125337500Y-101625000D03*
X122212500Y-101625000D03*
%TD*%
D10*
%TO.C,R2*%
X99925000Y-119225000D03*
X103025000Y-119225000D03*
%TD*%
D17*
%TO.C,C18*%
X121850000Y-90112500D03*
X121850000Y-93237500D03*
%TD*%
D13*
%TO.C,R21*%
X161350000Y-111050000D03*
X158250000Y-111050000D03*
%TD*%
D10*
%TO.C,R22*%
X158250000Y-115900000D03*
X161350000Y-115900000D03*
%TD*%
D12*
%TO.C,C15*%
X130937500Y-99000000D03*
X134062500Y-99000000D03*
%TD*%
D11*
%TO.C,C14*%
X153137500Y-111675000D03*
X150012500Y-111675000D03*
%TD*%
D12*
%TO.C,C13*%
X130937500Y-104500000D03*
X134062500Y-104500000D03*
%TD*%
D15*
%TO.C,R14*%
X135000000Y-36700000D03*
X135000000Y-33600000D03*
%TD*%
D18*
%TO.C,R12*%
X104750000Y-98750000D03*
X104750000Y-104850000D03*
%TD*%
D11*
%TO.C,C10*%
X153137500Y-90325000D03*
X150012500Y-90325000D03*
%TD*%
D19*
%TO.C,R13*%
X172450000Y-89500000D03*
X178550000Y-89500000D03*
%TD*%
D10*
%TO.C,R3*%
X100025000Y-110925000D03*
X103125000Y-110925000D03*
%TD*%
%TO.C,R6*%
X122195000Y-106750000D03*
X125295000Y-106750000D03*
%TD*%
D15*
%TO.C,R9*%
X118775000Y-79475000D03*
X118775000Y-76375000D03*
%TD*%
D20*
%TO.C,U2*%
X126590000Y-89000000D03*
X127860000Y-89000000D03*
X129130000Y-89000000D03*
X130400000Y-89000000D03*
X131670000Y-89000000D03*
X132940000Y-89000000D03*
X134210000Y-89000000D03*
X134210000Y-93950000D03*
X132940000Y-93950000D03*
X131670000Y-93950000D03*
X130400000Y-93950000D03*
X129130000Y-93950000D03*
X127860000Y-93950000D03*
X126590000Y-93950000D03*
%TD*%
M02*
