%TF.GenerationSoftware,KiCad,Pcbnew,(5.99.0-12960-gccd3a1e6a9)*%
%TF.CreationDate,2021-11-17T23:12:52-08:00*%
%TF.ProjectId,Team2EpicDiceRoller,5465616d-3245-4706-9963-44696365526f,rev?*%
%TF.SameCoordinates,Original*%
%TF.FileFunction,Legend,Top*%
%TF.FilePolarity,Positive*%
%FSLAX46Y46*%
G04 Gerber Fmt 4.6, Leading zero omitted, Abs format (unit mm)*
G04 Created by KiCad (PCBNEW (5.99.0-12960-gccd3a1e6a9)) date 2021-11-17 23:12:52*
%MOMM*%
%LPD*%
G01*
G04 APERTURE LIST*
G04 Aperture macros list*
%AMRoundRect*
0 Rectangle with rounded corners*
0 $1 Rounding radius*
0 $2 $3 $4 $5 $6 $7 $8 $9 X,Y pos of 4 corners*
0 Add a 4 corners polygon primitive as box body*
4,1,4,$2,$3,$4,$5,$6,$7,$8,$9,$2,$3,0*
0 Add four circle primitives for the rounded corners*
1,1,$1+$1,$2,$3*
1,1,$1+$1,$4,$5*
1,1,$1+$1,$6,$7*
1,1,$1+$1,$8,$9*
0 Add four rect primitives between the rounded corners*
20,1,$1+$1,$2,$3,$4,$5,0*
20,1,$1+$1,$4,$5,$6,$7,0*
20,1,$1+$1,$6,$7,$8,$9,0*
20,1,$1+$1,$8,$9,$2,$3,0*%
G04 Aperture macros list end*
%ADD10C,0.150000*%
%ADD11C,0.400960*%
%ADD12C,0.300000*%
%ADD13C,0.120000*%
%ADD14C,0.127000*%
%ADD15C,0.240000*%
%ADD16C,0.200000*%
%ADD17C,3.200000*%
%ADD18RoundRect,0.250000X0.625000X-0.400000X0.625000X0.400000X-0.625000X0.400000X-0.625000X-0.400000X0*%
%ADD19C,2.000000*%
%ADD20R,3.500000X4.000000*%
%ADD21RoundRect,0.750000X0.750000X1.000000X-0.750000X1.000000X-0.750000X-1.000000X0.750000X-1.000000X0*%
%ADD22RoundRect,0.150000X-0.825000X-0.150000X0.825000X-0.150000X0.825000X0.150000X-0.825000X0.150000X0*%
%ADD23RoundRect,0.250001X-1.074999X0.462499X-1.074999X-0.462499X1.074999X-0.462499X1.074999X0.462499X0*%
%ADD24R,2.200000X2.200000*%
%ADD25O,2.200000X2.200000*%
%ADD26RoundRect,0.250000X0.650000X-0.412500X0.650000X0.412500X-0.650000X0.412500X-0.650000X-0.412500X0*%
%ADD27R,1.200000X1.200000*%
%ADD28R,1.500000X1.600000*%
%ADD29R,1.600000X1.600000*%
%ADD30O,1.600000X1.600000*%
%ADD31C,1.600000*%
%ADD32C,1.500000*%
%ADD33R,2.625000X2.625000*%
%ADD34C,2.625000*%
%ADD35R,1.700000X1.700000*%
%ADD36O,1.700000X1.700000*%
%ADD37R,2.000000X2.000000*%
%ADD38R,3.200000X2.000000*%
%ADD39RoundRect,0.250000X0.412500X0.650000X-0.412500X0.650000X-0.412500X-0.650000X0.412500X-0.650000X0*%
%ADD40R,2.600000X2.000000*%
G04 APERTURE END LIST*
D10*
X184700379Y-104100000D02*
G75*
G03*
X184700379Y-104100000I-825379J0D01*
G01*
X181775000Y-104100000D02*
X183049622Y-104100000D01*
X183850000Y-103675000D02*
X183850000Y-104600000D01*
X179350000Y-104100000D02*
X180100000Y-104100000D01*
X183450000Y-104100000D02*
X184250000Y-104100000D01*
D11*
X181925480Y-104100000D02*
G75*
G03*
X181925480Y-104100000I-200480J0D01*
G01*
D10*
X182286612Y-103536853D02*
G75*
G03*
X182274999Y-104674999I-586612J-563147D01*
G01*
X180550000Y-104050000D02*
X180875000Y-104050000D01*
X183850000Y-104600000D02*
X183850000Y-103675000D01*
X180525757Y-104100000D02*
G75*
G03*
X180525757Y-104100000I-825379J0D01*
G01*
X111696428Y-57277380D02*
X112315476Y-57277380D01*
X111982142Y-57658333D01*
X112125000Y-57658333D01*
X112220238Y-57705952D01*
X112267857Y-57753571D01*
X112315476Y-57848809D01*
X112315476Y-58086904D01*
X112267857Y-58182142D01*
X112220238Y-58229761D01*
X112125000Y-58277380D01*
X111839285Y-58277380D01*
X111744047Y-58229761D01*
X111696428Y-58182142D01*
X112601190Y-57277380D02*
X112934523Y-58277380D01*
X113267857Y-57277380D01*
X113505952Y-57277380D02*
X114125000Y-57277380D01*
X113791666Y-57658333D01*
X113934523Y-57658333D01*
X114029761Y-57705952D01*
X114077380Y-57753571D01*
X114125000Y-57848809D01*
X114125000Y-58086904D01*
X114077380Y-58182142D01*
X114029761Y-58229761D01*
X113934523Y-58277380D01*
X113648809Y-58277380D01*
X113553571Y-58229761D01*
X113505952Y-58182142D01*
X115267857Y-57991666D02*
X115744047Y-57991666D01*
X115172619Y-58277380D02*
X115505952Y-57277380D01*
X115839285Y-58277380D01*
X116172619Y-58277380D02*
X116172619Y-57277380D01*
X116410714Y-57277380D01*
X116553571Y-57325000D01*
X116648809Y-57420238D01*
X116696428Y-57515476D01*
X116744047Y-57705952D01*
X116744047Y-57848809D01*
X116696428Y-58039285D01*
X116648809Y-58134523D01*
X116553571Y-58229761D01*
X116410714Y-58277380D01*
X116172619Y-58277380D01*
X117458333Y-57277380D02*
X117458333Y-57991666D01*
X117410714Y-58134523D01*
X117315476Y-58229761D01*
X117172619Y-58277380D01*
X117077380Y-58277380D01*
X107827380Y-95069047D02*
X107827380Y-95545238D01*
X106827380Y-95545238D01*
X106827380Y-94545238D02*
X106827380Y-94354761D01*
X106875000Y-94259523D01*
X106970238Y-94164285D01*
X107160714Y-94116666D01*
X107494047Y-94116666D01*
X107684523Y-94164285D01*
X107779761Y-94259523D01*
X107827380Y-94354761D01*
X107827380Y-94545238D01*
X107779761Y-94640476D01*
X107684523Y-94735714D01*
X107494047Y-94783333D01*
X107160714Y-94783333D01*
X106970238Y-94735714D01*
X106875000Y-94640476D01*
X106827380Y-94545238D01*
X107541666Y-93735714D02*
X107541666Y-93259523D01*
X107827380Y-93830952D02*
X106827380Y-93497619D01*
X107827380Y-93164285D01*
X107827380Y-92830952D02*
X106827380Y-92830952D01*
X106827380Y-92592857D01*
X106875000Y-92450000D01*
X106970238Y-92354761D01*
X107065476Y-92307142D01*
X107255952Y-92259523D01*
X107398809Y-92259523D01*
X107589285Y-92307142D01*
X107684523Y-92354761D01*
X107779761Y-92450000D01*
X107827380Y-92592857D01*
X107827380Y-92830952D01*
X106827380Y-91164285D02*
X106827380Y-90545238D01*
X107208333Y-90878571D01*
X107208333Y-90735714D01*
X107255952Y-90640476D01*
X107303571Y-90592857D01*
X107398809Y-90545238D01*
X107636904Y-90545238D01*
X107732142Y-90592857D01*
X107779761Y-90640476D01*
X107827380Y-90735714D01*
X107827380Y-91021428D01*
X107779761Y-91116666D01*
X107732142Y-91164285D01*
X106827380Y-90259523D02*
X107827380Y-89926190D01*
X106827380Y-89592857D01*
X106827380Y-89354761D02*
X106827380Y-88735714D01*
X107208333Y-89069047D01*
X107208333Y-88926190D01*
X107255952Y-88830952D01*
X107303571Y-88783333D01*
X107398809Y-88735714D01*
X107636904Y-88735714D01*
X107732142Y-88783333D01*
X107779761Y-88830952D01*
X107827380Y-88926190D01*
X107827380Y-89211904D01*
X107779761Y-89307142D01*
X107732142Y-89354761D01*
X107827380Y-87069047D02*
X107827380Y-87545238D01*
X106827380Y-87545238D01*
X106827380Y-86878571D02*
X107827380Y-86545238D01*
X106827380Y-86211904D01*
X153094047Y-57252380D02*
X152617857Y-57252380D01*
X152570238Y-57728571D01*
X152617857Y-57680952D01*
X152713095Y-57633333D01*
X152951190Y-57633333D01*
X153046428Y-57680952D01*
X153094047Y-57728571D01*
X153141666Y-57823809D01*
X153141666Y-58061904D01*
X153094047Y-58157142D01*
X153046428Y-58204761D01*
X152951190Y-58252380D01*
X152713095Y-58252380D01*
X152617857Y-58204761D01*
X152570238Y-58157142D01*
X153427380Y-57252380D02*
X153760714Y-58252380D01*
X154094047Y-57252380D01*
X155141666Y-57966666D02*
X155617857Y-57966666D01*
X155046428Y-58252380D02*
X155379761Y-57252380D01*
X155713095Y-58252380D01*
X156046428Y-58252380D02*
X156046428Y-57252380D01*
X156284523Y-57252380D01*
X156427380Y-57300000D01*
X156522619Y-57395238D01*
X156570238Y-57490476D01*
X156617857Y-57680952D01*
X156617857Y-57823809D01*
X156570238Y-58014285D01*
X156522619Y-58109523D01*
X156427380Y-58204761D01*
X156284523Y-58252380D01*
X156046428Y-58252380D01*
X157332142Y-57252380D02*
X157332142Y-57966666D01*
X157284523Y-58109523D01*
X157189285Y-58204761D01*
X157046428Y-58252380D01*
X156951190Y-58252380D01*
X145861904Y-27202380D02*
X146195238Y-28202380D01*
X146528571Y-27202380D01*
X147433333Y-28107142D02*
X147385714Y-28154761D01*
X147242857Y-28202380D01*
X147147619Y-28202380D01*
X147004761Y-28154761D01*
X146909523Y-28059523D01*
X146861904Y-27964285D01*
X146814285Y-27773809D01*
X146814285Y-27630952D01*
X146861904Y-27440476D01*
X146909523Y-27345238D01*
X147004761Y-27250000D01*
X147147619Y-27202380D01*
X147242857Y-27202380D01*
X147385714Y-27250000D01*
X147433333Y-27297619D01*
X148433333Y-28107142D02*
X148385714Y-28154761D01*
X148242857Y-28202380D01*
X148147619Y-28202380D01*
X148004761Y-28154761D01*
X147909523Y-28059523D01*
X147861904Y-27964285D01*
X147814285Y-27773809D01*
X147814285Y-27630952D01*
X147861904Y-27440476D01*
X147909523Y-27345238D01*
X148004761Y-27250000D01*
X148147619Y-27202380D01*
X148242857Y-27202380D01*
X148385714Y-27250000D01*
X148433333Y-27297619D01*
X150147619Y-27250000D02*
X150052380Y-27202380D01*
X149909523Y-27202380D01*
X149766666Y-27250000D01*
X149671428Y-27345238D01*
X149623809Y-27440476D01*
X149576190Y-27630952D01*
X149576190Y-27773809D01*
X149623809Y-27964285D01*
X149671428Y-28059523D01*
X149766666Y-28154761D01*
X149909523Y-28202380D01*
X150004761Y-28202380D01*
X150147619Y-28154761D01*
X150195238Y-28107142D01*
X150195238Y-27773809D01*
X150004761Y-27773809D01*
X150623809Y-28202380D02*
X150623809Y-27202380D01*
X151195238Y-28202380D01*
X151195238Y-27202380D01*
X151671428Y-28202380D02*
X151671428Y-27202380D01*
X151909523Y-27202380D01*
X152052380Y-27250000D01*
X152147619Y-27345238D01*
X152195238Y-27440476D01*
X152242857Y-27630952D01*
X152242857Y-27773809D01*
X152195238Y-27964285D01*
X152147619Y-28059523D01*
X152052380Y-28154761D01*
X151909523Y-28202380D01*
X151671428Y-28202380D01*
X103940476Y-30252380D02*
X103940476Y-29252380D01*
X104273809Y-29966666D01*
X104607142Y-29252380D01*
X104607142Y-30252380D01*
X104988095Y-29252380D02*
X105607142Y-29252380D01*
X105273809Y-29633333D01*
X105416666Y-29633333D01*
X105511904Y-29680952D01*
X105559523Y-29728571D01*
X105607142Y-29823809D01*
X105607142Y-30061904D01*
X105559523Y-30157142D01*
X105511904Y-30204761D01*
X105416666Y-30252380D01*
X105130952Y-30252380D01*
X105035714Y-30204761D01*
X104988095Y-30157142D01*
X157172619Y-119577380D02*
X156839285Y-119101190D01*
X156601190Y-119577380D02*
X156601190Y-118577380D01*
X156982142Y-118577380D01*
X157077380Y-118625000D01*
X157125000Y-118672619D01*
X157172619Y-118767857D01*
X157172619Y-118910714D01*
X157125000Y-119005952D01*
X157077380Y-119053571D01*
X156982142Y-119101190D01*
X156601190Y-119101190D01*
X157601190Y-119053571D02*
X157934523Y-119053571D01*
X158077380Y-119577380D02*
X157601190Y-119577380D01*
X157601190Y-118577380D01*
X158077380Y-118577380D01*
X158458333Y-119529761D02*
X158601190Y-119577380D01*
X158839285Y-119577380D01*
X158934523Y-119529761D01*
X158982142Y-119482142D01*
X159029761Y-119386904D01*
X159029761Y-119291666D01*
X158982142Y-119196428D01*
X158934523Y-119148809D01*
X158839285Y-119101190D01*
X158648809Y-119053571D01*
X158553571Y-119005952D01*
X158505952Y-118958333D01*
X158458333Y-118863095D01*
X158458333Y-118767857D01*
X158505952Y-118672619D01*
X158553571Y-118625000D01*
X158648809Y-118577380D01*
X158886904Y-118577380D01*
X159029761Y-118625000D01*
X159458333Y-119053571D02*
X159791666Y-119053571D01*
X159934523Y-119577380D02*
X159458333Y-119577380D01*
X159458333Y-118577380D01*
X159934523Y-118577380D01*
X160220238Y-118577380D02*
X160791666Y-118577380D01*
X160505952Y-119577380D02*
X160505952Y-118577380D01*
D12*
X108214285Y-61392857D02*
X108714285Y-61392857D01*
X108928571Y-62178571D02*
X108214285Y-62178571D01*
X108214285Y-60678571D01*
X108928571Y-60678571D01*
X110428571Y-62035714D02*
X110357142Y-62107142D01*
X110142857Y-62178571D01*
X110000000Y-62178571D01*
X109785714Y-62107142D01*
X109642857Y-61964285D01*
X109571428Y-61821428D01*
X109500000Y-61535714D01*
X109500000Y-61321428D01*
X109571428Y-61035714D01*
X109642857Y-60892857D01*
X109785714Y-60750000D01*
X110000000Y-60678571D01*
X110142857Y-60678571D01*
X110357142Y-60750000D01*
X110428571Y-60821428D01*
X111071428Y-61392857D02*
X111571428Y-61392857D01*
X111785714Y-62178571D02*
X111071428Y-62178571D01*
X111071428Y-60678571D01*
X111785714Y-60678571D01*
X114214285Y-61178571D02*
X114214285Y-62178571D01*
X113857142Y-60607142D02*
X113500000Y-61678571D01*
X114428571Y-61678571D01*
X115785714Y-62178571D02*
X114928571Y-62178571D01*
X115357142Y-62178571D02*
X115357142Y-60678571D01*
X115214285Y-60892857D01*
X115071428Y-61035714D01*
X114928571Y-61107142D01*
X117214285Y-62178571D02*
X116357142Y-62178571D01*
X116785714Y-62178571D02*
X116785714Y-60678571D01*
X116642857Y-60892857D01*
X116500000Y-61035714D01*
X116357142Y-61107142D01*
X119000000Y-61607142D02*
X120142857Y-61607142D01*
X121785714Y-60678571D02*
X122642857Y-60678571D01*
X122214285Y-62178571D02*
X122214285Y-60678571D01*
X123714285Y-62107142D02*
X123571428Y-62178571D01*
X123285714Y-62178571D01*
X123142857Y-62107142D01*
X123071428Y-61964285D01*
X123071428Y-61392857D01*
X123142857Y-61250000D01*
X123285714Y-61178571D01*
X123571428Y-61178571D01*
X123714285Y-61250000D01*
X123785714Y-61392857D01*
X123785714Y-61535714D01*
X123071428Y-61678571D01*
X125071428Y-62178571D02*
X125071428Y-61392857D01*
X125000000Y-61250000D01*
X124857142Y-61178571D01*
X124571428Y-61178571D01*
X124428571Y-61250000D01*
X125071428Y-62107142D02*
X124928571Y-62178571D01*
X124571428Y-62178571D01*
X124428571Y-62107142D01*
X124357142Y-61964285D01*
X124357142Y-61821428D01*
X124428571Y-61678571D01*
X124571428Y-61607142D01*
X124928571Y-61607142D01*
X125071428Y-61535714D01*
X125785714Y-62178571D02*
X125785714Y-61178571D01*
X125785714Y-61321428D02*
X125857142Y-61250000D01*
X126000000Y-61178571D01*
X126214285Y-61178571D01*
X126357142Y-61250000D01*
X126428571Y-61392857D01*
X126428571Y-62178571D01*
X126428571Y-61392857D02*
X126500000Y-61250000D01*
X126642857Y-61178571D01*
X126857142Y-61178571D01*
X127000000Y-61250000D01*
X127071428Y-61392857D01*
X127071428Y-62178571D01*
X128857142Y-60821428D02*
X128928571Y-60750000D01*
X129071428Y-60678571D01*
X129428571Y-60678571D01*
X129571428Y-60750000D01*
X129642857Y-60821428D01*
X129714285Y-60964285D01*
X129714285Y-61107142D01*
X129642857Y-61321428D01*
X128785714Y-62178571D01*
X129714285Y-62178571D01*
X131500000Y-61607142D02*
X132642857Y-61607142D01*
X134500000Y-61392857D02*
X135000000Y-61392857D01*
X135214285Y-62178571D02*
X134500000Y-62178571D01*
X134500000Y-60678571D01*
X135214285Y-60678571D01*
X135857142Y-61178571D02*
X135857142Y-62678571D01*
X135857142Y-61250000D02*
X136000000Y-61178571D01*
X136285714Y-61178571D01*
X136428571Y-61250000D01*
X136500000Y-61321428D01*
X136571428Y-61464285D01*
X136571428Y-61892857D01*
X136500000Y-62035714D01*
X136428571Y-62107142D01*
X136285714Y-62178571D01*
X136000000Y-62178571D01*
X135857142Y-62107142D01*
X137214285Y-62178571D02*
X137214285Y-61178571D01*
X137214285Y-60678571D02*
X137142857Y-60750000D01*
X137214285Y-60821428D01*
X137285714Y-60750000D01*
X137214285Y-60678571D01*
X137214285Y-60821428D01*
X138571428Y-62107142D02*
X138428571Y-62178571D01*
X138142857Y-62178571D01*
X138000000Y-62107142D01*
X137928571Y-62035714D01*
X137857142Y-61892857D01*
X137857142Y-61464285D01*
X137928571Y-61321428D01*
X138000000Y-61250000D01*
X138142857Y-61178571D01*
X138428571Y-61178571D01*
X138571428Y-61250000D01*
X140357142Y-62178571D02*
X140357142Y-60678571D01*
X140714285Y-60678571D01*
X140928571Y-60750000D01*
X141071428Y-60892857D01*
X141142857Y-61035714D01*
X141214285Y-61321428D01*
X141214285Y-61535714D01*
X141142857Y-61821428D01*
X141071428Y-61964285D01*
X140928571Y-62107142D01*
X140714285Y-62178571D01*
X140357142Y-62178571D01*
X141857142Y-62178571D02*
X141857142Y-61178571D01*
X141857142Y-60678571D02*
X141785714Y-60750000D01*
X141857142Y-60821428D01*
X141928571Y-60750000D01*
X141857142Y-60678571D01*
X141857142Y-60821428D01*
X143214285Y-62107142D02*
X143071428Y-62178571D01*
X142785714Y-62178571D01*
X142642857Y-62107142D01*
X142571428Y-62035714D01*
X142500000Y-61892857D01*
X142500000Y-61464285D01*
X142571428Y-61321428D01*
X142642857Y-61250000D01*
X142785714Y-61178571D01*
X143071428Y-61178571D01*
X143214285Y-61250000D01*
X144428571Y-62107142D02*
X144285714Y-62178571D01*
X144000000Y-62178571D01*
X143857142Y-62107142D01*
X143785714Y-61964285D01*
X143785714Y-61392857D01*
X143857142Y-61250000D01*
X144000000Y-61178571D01*
X144285714Y-61178571D01*
X144428571Y-61250000D01*
X144500000Y-61392857D01*
X144500000Y-61535714D01*
X143785714Y-61678571D01*
X147142857Y-62178571D02*
X146642857Y-61464285D01*
X146285714Y-62178571D02*
X146285714Y-60678571D01*
X146857142Y-60678571D01*
X147000000Y-60750000D01*
X147071428Y-60821428D01*
X147142857Y-60964285D01*
X147142857Y-61178571D01*
X147071428Y-61321428D01*
X147000000Y-61392857D01*
X146857142Y-61464285D01*
X146285714Y-61464285D01*
X148000000Y-62178571D02*
X147857142Y-62107142D01*
X147785714Y-62035714D01*
X147714285Y-61892857D01*
X147714285Y-61464285D01*
X147785714Y-61321428D01*
X147857142Y-61250000D01*
X148000000Y-61178571D01*
X148214285Y-61178571D01*
X148357142Y-61250000D01*
X148428571Y-61321428D01*
X148500000Y-61464285D01*
X148500000Y-61892857D01*
X148428571Y-62035714D01*
X148357142Y-62107142D01*
X148214285Y-62178571D01*
X148000000Y-62178571D01*
X149357142Y-62178571D02*
X149214285Y-62107142D01*
X149142857Y-61964285D01*
X149142857Y-60678571D01*
X150142857Y-62178571D02*
X150000000Y-62107142D01*
X149928571Y-61964285D01*
X149928571Y-60678571D01*
X151285714Y-62107142D02*
X151142857Y-62178571D01*
X150857142Y-62178571D01*
X150714285Y-62107142D01*
X150642857Y-61964285D01*
X150642857Y-61392857D01*
X150714285Y-61250000D01*
X150857142Y-61178571D01*
X151142857Y-61178571D01*
X151285714Y-61250000D01*
X151357142Y-61392857D01*
X151357142Y-61535714D01*
X150642857Y-61678571D01*
X152000000Y-62178571D02*
X152000000Y-61178571D01*
X152000000Y-61464285D02*
X152071428Y-61321428D01*
X152142857Y-61250000D01*
X152285714Y-61178571D01*
X152428571Y-61178571D01*
X153928571Y-61178571D02*
X154285714Y-62178571D01*
X154642857Y-61178571D01*
X156000000Y-62178571D02*
X155142857Y-62178571D01*
X155571428Y-62178571D02*
X155571428Y-60678571D01*
X155428571Y-60892857D01*
X155285714Y-61035714D01*
X155142857Y-61107142D01*
X156642857Y-62035714D02*
X156714285Y-62107142D01*
X156642857Y-62178571D01*
X156571428Y-62107142D01*
X156642857Y-62035714D01*
X156642857Y-62178571D01*
X157642857Y-60678571D02*
X157785714Y-60678571D01*
X157928571Y-60750000D01*
X158000000Y-60821428D01*
X158071428Y-60964285D01*
X158142857Y-61250000D01*
X158142857Y-61607142D01*
X158071428Y-61892857D01*
X158000000Y-62035714D01*
X157928571Y-62107142D01*
X157785714Y-62178571D01*
X157642857Y-62178571D01*
X157500000Y-62107142D01*
X157428571Y-62035714D01*
X157357142Y-61892857D01*
X157285714Y-61607142D01*
X157285714Y-61250000D01*
X157357142Y-60964285D01*
X157428571Y-60821428D01*
X157500000Y-60750000D01*
X157642857Y-60678571D01*
X159928571Y-61607142D02*
X161071428Y-61607142D01*
X163714285Y-62178571D02*
X162857142Y-62178571D01*
X163285714Y-62178571D02*
X163285714Y-60678571D01*
X163142857Y-60892857D01*
X163000000Y-61035714D01*
X162857142Y-61107142D01*
X165142857Y-62178571D02*
X164285714Y-62178571D01*
X164714285Y-62178571D02*
X164714285Y-60678571D01*
X164571428Y-60892857D01*
X164428571Y-61035714D01*
X164285714Y-61107142D01*
X166857142Y-60607142D02*
X165571428Y-62535714D01*
X168142857Y-62178571D02*
X167285714Y-62178571D01*
X167714285Y-62178571D02*
X167714285Y-60678571D01*
X167571428Y-60892857D01*
X167428571Y-61035714D01*
X167285714Y-61107142D01*
X169000000Y-61321428D02*
X168857142Y-61250000D01*
X168785714Y-61178571D01*
X168714285Y-61035714D01*
X168714285Y-60964285D01*
X168785714Y-60821428D01*
X168857142Y-60750000D01*
X169000000Y-60678571D01*
X169285714Y-60678571D01*
X169428571Y-60750000D01*
X169500000Y-60821428D01*
X169571428Y-60964285D01*
X169571428Y-61035714D01*
X169500000Y-61178571D01*
X169428571Y-61250000D01*
X169285714Y-61321428D01*
X169000000Y-61321428D01*
X168857142Y-61392857D01*
X168785714Y-61464285D01*
X168714285Y-61607142D01*
X168714285Y-61892857D01*
X168785714Y-62035714D01*
X168857142Y-62107142D01*
X169000000Y-62178571D01*
X169285714Y-62178571D01*
X169428571Y-62107142D01*
X169500000Y-62035714D01*
X169571428Y-61892857D01*
X169571428Y-61607142D01*
X169500000Y-61464285D01*
X169428571Y-61392857D01*
X169285714Y-61321428D01*
X171285714Y-60607142D02*
X170000000Y-62535714D01*
X171714285Y-60821428D02*
X171785714Y-60750000D01*
X171928571Y-60678571D01*
X172285714Y-60678571D01*
X172428571Y-60750000D01*
X172500000Y-60821428D01*
X172571428Y-60964285D01*
X172571428Y-61107142D01*
X172500000Y-61321428D01*
X171642857Y-62178571D01*
X172571428Y-62178571D01*
X173500000Y-60678571D02*
X173642857Y-60678571D01*
X173785714Y-60750000D01*
X173857142Y-60821428D01*
X173928571Y-60964285D01*
X174000000Y-61250000D01*
X174000000Y-61607142D01*
X173928571Y-61892857D01*
X173857142Y-62035714D01*
X173785714Y-62107142D01*
X173642857Y-62178571D01*
X173500000Y-62178571D01*
X173357142Y-62107142D01*
X173285714Y-62035714D01*
X173214285Y-61892857D01*
X173142857Y-61607142D01*
X173142857Y-61250000D01*
X173214285Y-60964285D01*
X173285714Y-60821428D01*
X173357142Y-60750000D01*
X173500000Y-60678571D01*
X174571428Y-60821428D02*
X174642857Y-60750000D01*
X174785714Y-60678571D01*
X175142857Y-60678571D01*
X175285714Y-60750000D01*
X175357142Y-60821428D01*
X175428571Y-60964285D01*
X175428571Y-61107142D01*
X175357142Y-61321428D01*
X174500000Y-62178571D01*
X175428571Y-62178571D01*
X176857142Y-62178571D02*
X176000000Y-62178571D01*
X176428571Y-62178571D02*
X176428571Y-60678571D01*
X176285714Y-60892857D01*
X176142857Y-61035714D01*
X176000000Y-61107142D01*
D10*
X157117857Y-82852380D02*
X157451190Y-83852380D01*
X157784523Y-82852380D01*
X158689285Y-83757142D02*
X158641666Y-83804761D01*
X158498809Y-83852380D01*
X158403571Y-83852380D01*
X158260714Y-83804761D01*
X158165476Y-83709523D01*
X158117857Y-83614285D01*
X158070238Y-83423809D01*
X158070238Y-83280952D01*
X158117857Y-83090476D01*
X158165476Y-82995238D01*
X158260714Y-82900000D01*
X158403571Y-82852380D01*
X158498809Y-82852380D01*
X158641666Y-82900000D01*
X158689285Y-82947619D01*
X159689285Y-83757142D02*
X159641666Y-83804761D01*
X159498809Y-83852380D01*
X159403571Y-83852380D01*
X159260714Y-83804761D01*
X159165476Y-83709523D01*
X159117857Y-83614285D01*
X159070238Y-83423809D01*
X159070238Y-83280952D01*
X159117857Y-83090476D01*
X159165476Y-82995238D01*
X159260714Y-82900000D01*
X159403571Y-82852380D01*
X159498809Y-82852380D01*
X159641666Y-82900000D01*
X159689285Y-82947619D01*
X161355952Y-82852380D02*
X160879761Y-82852380D01*
X160832142Y-83328571D01*
X160879761Y-83280952D01*
X160975000Y-83233333D01*
X161213095Y-83233333D01*
X161308333Y-83280952D01*
X161355952Y-83328571D01*
X161403571Y-83423809D01*
X161403571Y-83661904D01*
X161355952Y-83757142D01*
X161308333Y-83804761D01*
X161213095Y-83852380D01*
X160975000Y-83852380D01*
X160879761Y-83804761D01*
X160832142Y-83757142D01*
X161689285Y-82852380D02*
X162022619Y-83852380D01*
X162355952Y-82852380D01*
X163927380Y-83852380D02*
X163451190Y-83852380D01*
X163451190Y-82852380D01*
X164451190Y-82852380D02*
X164641666Y-82852380D01*
X164736904Y-82900000D01*
X164832142Y-82995238D01*
X164879761Y-83185714D01*
X164879761Y-83519047D01*
X164832142Y-83709523D01*
X164736904Y-83804761D01*
X164641666Y-83852380D01*
X164451190Y-83852380D01*
X164355952Y-83804761D01*
X164260714Y-83709523D01*
X164213095Y-83519047D01*
X164213095Y-83185714D01*
X164260714Y-82995238D01*
X164355952Y-82900000D01*
X164451190Y-82852380D01*
X165260714Y-83566666D02*
X165736904Y-83566666D01*
X165165476Y-83852380D02*
X165498809Y-82852380D01*
X165832142Y-83852380D01*
X166165476Y-83852380D02*
X166165476Y-82852380D01*
X166403571Y-82852380D01*
X166546428Y-82900000D01*
X166641666Y-82995238D01*
X166689285Y-83090476D01*
X166736904Y-83280952D01*
X166736904Y-83423809D01*
X166689285Y-83614285D01*
X166641666Y-83709523D01*
X166546428Y-83804761D01*
X166403571Y-83852380D01*
X166165476Y-83852380D01*
X120121547Y-123667380D02*
X120121547Y-122667380D01*
X120454880Y-123381666D01*
X120788214Y-122667380D01*
X120788214Y-123667380D01*
X121454880Y-122667380D02*
X121645357Y-122667380D01*
X121740595Y-122715000D01*
X121835833Y-122810238D01*
X121883452Y-123000714D01*
X121883452Y-123334047D01*
X121835833Y-123524523D01*
X121740595Y-123619761D01*
X121645357Y-123667380D01*
X121454880Y-123667380D01*
X121359642Y-123619761D01*
X121264404Y-123524523D01*
X121216785Y-123334047D01*
X121216785Y-123000714D01*
X121264404Y-122810238D01*
X121359642Y-122715000D01*
X121454880Y-122667380D01*
X122264404Y-123619761D02*
X122407261Y-123667380D01*
X122645357Y-123667380D01*
X122740595Y-123619761D01*
X122788214Y-123572142D01*
X122835833Y-123476904D01*
X122835833Y-123381666D01*
X122788214Y-123286428D01*
X122740595Y-123238809D01*
X122645357Y-123191190D01*
X122454880Y-123143571D01*
X122359642Y-123095952D01*
X122312023Y-123048333D01*
X122264404Y-122953095D01*
X122264404Y-122857857D01*
X122312023Y-122762619D01*
X122359642Y-122715000D01*
X122454880Y-122667380D01*
X122692976Y-122667380D01*
X122835833Y-122715000D01*
X123264404Y-123667380D02*
X123264404Y-122667380D01*
X121216785Y-125935000D02*
X121121547Y-125887380D01*
X120978690Y-125887380D01*
X120835833Y-125935000D01*
X120740595Y-126030238D01*
X120692976Y-126125476D01*
X120645357Y-126315952D01*
X120645357Y-126458809D01*
X120692976Y-126649285D01*
X120740595Y-126744523D01*
X120835833Y-126839761D01*
X120978690Y-126887380D01*
X121073928Y-126887380D01*
X121216785Y-126839761D01*
X121264404Y-126792142D01*
X121264404Y-126458809D01*
X121073928Y-126458809D01*
X121692976Y-126887380D02*
X121692976Y-125887380D01*
X122264404Y-126887380D01*
X122264404Y-125887380D01*
X122740595Y-126887380D02*
X122740595Y-125887380D01*
X122978690Y-125887380D01*
X123121547Y-125935000D01*
X123216785Y-126030238D01*
X123264404Y-126125476D01*
X123312023Y-126315952D01*
X123312023Y-126458809D01*
X123264404Y-126649285D01*
X123216785Y-126744523D01*
X123121547Y-126839761D01*
X122978690Y-126887380D01*
X122740595Y-126887380D01*
X130485595Y-120282380D02*
X130485595Y-119282380D01*
X130818928Y-119996666D01*
X131152261Y-119282380D01*
X131152261Y-120282380D01*
X131628452Y-120282380D02*
X131628452Y-119282380D01*
X132057023Y-120234761D02*
X132199880Y-120282380D01*
X132437976Y-120282380D01*
X132533214Y-120234761D01*
X132580833Y-120187142D01*
X132628452Y-120091904D01*
X132628452Y-119996666D01*
X132580833Y-119901428D01*
X132533214Y-119853809D01*
X132437976Y-119806190D01*
X132247500Y-119758571D01*
X132152261Y-119710952D01*
X132104642Y-119663333D01*
X132057023Y-119568095D01*
X132057023Y-119472857D01*
X132104642Y-119377619D01*
X132152261Y-119330000D01*
X132247500Y-119282380D01*
X132485595Y-119282380D01*
X132628452Y-119330000D01*
X133247500Y-119282380D02*
X133437976Y-119282380D01*
X133533214Y-119330000D01*
X133628452Y-119425238D01*
X133676071Y-119615714D01*
X133676071Y-119949047D01*
X133628452Y-120139523D01*
X133533214Y-120234761D01*
X133437976Y-120282380D01*
X133247500Y-120282380D01*
X133152261Y-120234761D01*
X133057023Y-120139523D01*
X133009404Y-119949047D01*
X133009404Y-119615714D01*
X133057023Y-119425238D01*
X133152261Y-119330000D01*
X133247500Y-119282380D01*
X130437976Y-123454761D02*
X130580833Y-123502380D01*
X130818928Y-123502380D01*
X130914166Y-123454761D01*
X130961785Y-123407142D01*
X131009404Y-123311904D01*
X131009404Y-123216666D01*
X130961785Y-123121428D01*
X130914166Y-123073809D01*
X130818928Y-123026190D01*
X130628452Y-122978571D01*
X130533214Y-122930952D01*
X130485595Y-122883333D01*
X130437976Y-122788095D01*
X130437976Y-122692857D01*
X130485595Y-122597619D01*
X130533214Y-122550000D01*
X130628452Y-122502380D01*
X130866547Y-122502380D01*
X131009404Y-122550000D01*
X132009404Y-123407142D02*
X131961785Y-123454761D01*
X131818928Y-123502380D01*
X131723690Y-123502380D01*
X131580833Y-123454761D01*
X131485595Y-123359523D01*
X131437976Y-123264285D01*
X131390357Y-123073809D01*
X131390357Y-122930952D01*
X131437976Y-122740476D01*
X131485595Y-122645238D01*
X131580833Y-122550000D01*
X131723690Y-122502380D01*
X131818928Y-122502380D01*
X131961785Y-122550000D01*
X132009404Y-122597619D01*
X132437976Y-123502380D02*
X132437976Y-122502380D01*
X133009404Y-123502380D02*
X132580833Y-122930952D01*
X133009404Y-122502380D02*
X132437976Y-123073809D01*
X131057023Y-126722380D02*
X130723690Y-126246190D01*
X130485595Y-126722380D02*
X130485595Y-125722380D01*
X130866547Y-125722380D01*
X130961785Y-125770000D01*
X131009404Y-125817619D01*
X131057023Y-125912857D01*
X131057023Y-126055714D01*
X131009404Y-126150952D01*
X130961785Y-126198571D01*
X130866547Y-126246190D01*
X130485595Y-126246190D01*
X131485595Y-126198571D02*
X131818928Y-126198571D01*
X131961785Y-126722380D02*
X131485595Y-126722380D01*
X131485595Y-125722380D01*
X131961785Y-125722380D01*
X132342738Y-126674761D02*
X132485595Y-126722380D01*
X132723690Y-126722380D01*
X132818928Y-126674761D01*
X132866547Y-126627142D01*
X132914166Y-126531904D01*
X132914166Y-126436666D01*
X132866547Y-126341428D01*
X132818928Y-126293809D01*
X132723690Y-126246190D01*
X132533214Y-126198571D01*
X132437976Y-126150952D01*
X132390357Y-126103333D01*
X132342738Y-126008095D01*
X132342738Y-125912857D01*
X132390357Y-125817619D01*
X132437976Y-125770000D01*
X132533214Y-125722380D01*
X132771309Y-125722380D01*
X132914166Y-125770000D01*
X133342738Y-126198571D02*
X133676071Y-126198571D01*
X133818928Y-126722380D02*
X133342738Y-126722380D01*
X133342738Y-125722380D01*
X133818928Y-125722380D01*
X134104642Y-125722380D02*
X134676071Y-125722380D01*
X134390357Y-126722380D02*
X134390357Y-125722380D01*
X134961785Y-126055714D02*
X135676071Y-126055714D01*
X135247500Y-125627142D02*
X134961785Y-126912857D01*
X135580833Y-126484285D02*
X134866547Y-126484285D01*
X135295119Y-126912857D02*
X135580833Y-125627142D01*
X137083333Y-28227380D02*
X136750000Y-27751190D01*
X136511904Y-28227380D02*
X136511904Y-27227380D01*
X136892857Y-27227380D01*
X136988095Y-27275000D01*
X137035714Y-27322619D01*
X137083333Y-27417857D01*
X137083333Y-27560714D01*
X137035714Y-27655952D01*
X136988095Y-27703571D01*
X136892857Y-27751190D01*
X136511904Y-27751190D01*
X137416666Y-27227380D02*
X138083333Y-28227380D01*
X138083333Y-27227380D02*
X137416666Y-28227380D01*
%TO.C,H2*%
X178938095Y-52152380D02*
X178938095Y-51152380D01*
X178938095Y-51628571D02*
X179509523Y-51628571D01*
X179509523Y-52152380D02*
X179509523Y-51152380D01*
X179938095Y-51247619D02*
X179985714Y-51200000D01*
X180080952Y-51152380D01*
X180319047Y-51152380D01*
X180414285Y-51200000D01*
X180461904Y-51247619D01*
X180509523Y-51342857D01*
X180509523Y-51438095D01*
X180461904Y-51580952D01*
X179890476Y-52152380D01*
X180509523Y-52152380D01*
%TO.C,R8*%
X130957380Y-45166666D02*
X130481190Y-45500000D01*
X130957380Y-45738095D02*
X129957380Y-45738095D01*
X129957380Y-45357142D01*
X130005000Y-45261904D01*
X130052619Y-45214285D01*
X130147857Y-45166666D01*
X130290714Y-45166666D01*
X130385952Y-45214285D01*
X130433571Y-45261904D01*
X130481190Y-45357142D01*
X130481190Y-45738095D01*
X130385952Y-44595238D02*
X130338333Y-44690476D01*
X130290714Y-44738095D01*
X130195476Y-44785714D01*
X130147857Y-44785714D01*
X130052619Y-44738095D01*
X130005000Y-44690476D01*
X129957380Y-44595238D01*
X129957380Y-44404761D01*
X130005000Y-44309523D01*
X130052619Y-44261904D01*
X130147857Y-44214285D01*
X130195476Y-44214285D01*
X130290714Y-44261904D01*
X130338333Y-44309523D01*
X130385952Y-44404761D01*
X130385952Y-44595238D01*
X130433571Y-44690476D01*
X130481190Y-44738095D01*
X130576428Y-44785714D01*
X130766904Y-44785714D01*
X130862142Y-44738095D01*
X130909761Y-44690476D01*
X130957380Y-44595238D01*
X130957380Y-44404761D01*
X130909761Y-44309523D01*
X130862142Y-44261904D01*
X130766904Y-44214285D01*
X130576428Y-44214285D01*
X130481190Y-44261904D01*
X130433571Y-44309523D01*
X130385952Y-44404761D01*
%TO.C,SW8*%
X170666666Y-66004761D02*
X170809523Y-66052380D01*
X171047619Y-66052380D01*
X171142857Y-66004761D01*
X171190476Y-65957142D01*
X171238095Y-65861904D01*
X171238095Y-65766666D01*
X171190476Y-65671428D01*
X171142857Y-65623809D01*
X171047619Y-65576190D01*
X170857142Y-65528571D01*
X170761904Y-65480952D01*
X170714285Y-65433333D01*
X170666666Y-65338095D01*
X170666666Y-65242857D01*
X170714285Y-65147619D01*
X170761904Y-65100000D01*
X170857142Y-65052380D01*
X171095238Y-65052380D01*
X171238095Y-65100000D01*
X171571428Y-65052380D02*
X171809523Y-66052380D01*
X172000000Y-65338095D01*
X172190476Y-66052380D01*
X172428571Y-65052380D01*
X172952380Y-65480952D02*
X172857142Y-65433333D01*
X172809523Y-65385714D01*
X172761904Y-65290476D01*
X172761904Y-65242857D01*
X172809523Y-65147619D01*
X172857142Y-65100000D01*
X172952380Y-65052380D01*
X173142857Y-65052380D01*
X173238095Y-65100000D01*
X173285714Y-65147619D01*
X173333333Y-65242857D01*
X173333333Y-65290476D01*
X173285714Y-65385714D01*
X173238095Y-65433333D01*
X173142857Y-65480952D01*
X172952380Y-65480952D01*
X172857142Y-65528571D01*
X172809523Y-65576190D01*
X172761904Y-65671428D01*
X172761904Y-65861904D01*
X172809523Y-65957142D01*
X172857142Y-66004761D01*
X172952380Y-66052380D01*
X173142857Y-66052380D01*
X173238095Y-66004761D01*
X173285714Y-65957142D01*
X173333333Y-65861904D01*
X173333333Y-65671428D01*
X173285714Y-65576190D01*
X173238095Y-65528571D01*
X173142857Y-65480952D01*
%TO.C,J3*%
X178001666Y-91319880D02*
X178001666Y-92034166D01*
X177954047Y-92177023D01*
X177858809Y-92272261D01*
X177715952Y-92319880D01*
X177620714Y-92319880D01*
X178382619Y-91319880D02*
X179001666Y-91319880D01*
X178668333Y-91700833D01*
X178811190Y-91700833D01*
X178906428Y-91748452D01*
X178954047Y-91796071D01*
X179001666Y-91891309D01*
X179001666Y-92129404D01*
X178954047Y-92224642D01*
X178906428Y-92272261D01*
X178811190Y-92319880D01*
X178525476Y-92319880D01*
X178430238Y-92272261D01*
X178382619Y-92224642D01*
%TO.C,U3*%
X122438095Y-41802380D02*
X122438095Y-42611904D01*
X122485714Y-42707142D01*
X122533333Y-42754761D01*
X122628571Y-42802380D01*
X122819047Y-42802380D01*
X122914285Y-42754761D01*
X122961904Y-42707142D01*
X123009523Y-42611904D01*
X123009523Y-41802380D01*
X123390476Y-41802380D02*
X124009523Y-41802380D01*
X123676190Y-42183333D01*
X123819047Y-42183333D01*
X123914285Y-42230952D01*
X123961904Y-42278571D01*
X124009523Y-42373809D01*
X124009523Y-42611904D01*
X123961904Y-42707142D01*
X123914285Y-42754761D01*
X123819047Y-42802380D01*
X123533333Y-42802380D01*
X123438095Y-42754761D01*
X123390476Y-42707142D01*
%TO.C,SW6*%
X140666666Y-66004761D02*
X140809523Y-66052380D01*
X141047619Y-66052380D01*
X141142857Y-66004761D01*
X141190476Y-65957142D01*
X141238095Y-65861904D01*
X141238095Y-65766666D01*
X141190476Y-65671428D01*
X141142857Y-65623809D01*
X141047619Y-65576190D01*
X140857142Y-65528571D01*
X140761904Y-65480952D01*
X140714285Y-65433333D01*
X140666666Y-65338095D01*
X140666666Y-65242857D01*
X140714285Y-65147619D01*
X140761904Y-65100000D01*
X140857142Y-65052380D01*
X141095238Y-65052380D01*
X141238095Y-65100000D01*
X141571428Y-65052380D02*
X141809523Y-66052380D01*
X142000000Y-65338095D01*
X142190476Y-66052380D01*
X142428571Y-65052380D01*
X143238095Y-65052380D02*
X143047619Y-65052380D01*
X142952380Y-65100000D01*
X142904761Y-65147619D01*
X142809523Y-65290476D01*
X142761904Y-65480952D01*
X142761904Y-65861904D01*
X142809523Y-65957142D01*
X142857142Y-66004761D01*
X142952380Y-66052380D01*
X143142857Y-66052380D01*
X143238095Y-66004761D01*
X143285714Y-65957142D01*
X143333333Y-65861904D01*
X143333333Y-65623809D01*
X143285714Y-65528571D01*
X143238095Y-65480952D01*
X143142857Y-65433333D01*
X142952380Y-65433333D01*
X142857142Y-65480952D01*
X142809523Y-65528571D01*
X142761904Y-65623809D01*
%TO.C,L2*%
X105227380Y-45741666D02*
X105227380Y-46217857D01*
X104227380Y-46217857D01*
X104322619Y-45455952D02*
X104275000Y-45408333D01*
X104227380Y-45313095D01*
X104227380Y-45075000D01*
X104275000Y-44979761D01*
X104322619Y-44932142D01*
X104417857Y-44884523D01*
X104513095Y-44884523D01*
X104655952Y-44932142D01*
X105227380Y-45503571D01*
X105227380Y-44884523D01*
%TO.C,R7*%
X163632380Y-37266666D02*
X163156190Y-37600000D01*
X163632380Y-37838095D02*
X162632380Y-37838095D01*
X162632380Y-37457142D01*
X162680000Y-37361904D01*
X162727619Y-37314285D01*
X162822857Y-37266666D01*
X162965714Y-37266666D01*
X163060952Y-37314285D01*
X163108571Y-37361904D01*
X163156190Y-37457142D01*
X163156190Y-37838095D01*
X162632380Y-36933333D02*
X162632380Y-36266666D01*
X163632380Y-36695238D01*
%TO.C,D4*%
X154786904Y-31257380D02*
X154786904Y-30257380D01*
X155025000Y-30257380D01*
X155167857Y-30305000D01*
X155263095Y-30400238D01*
X155310714Y-30495476D01*
X155358333Y-30685952D01*
X155358333Y-30828809D01*
X155310714Y-31019285D01*
X155263095Y-31114523D01*
X155167857Y-31209761D01*
X155025000Y-31257380D01*
X154786904Y-31257380D01*
X156215476Y-30590714D02*
X156215476Y-31257380D01*
X155977380Y-30209761D02*
X155739285Y-30924047D01*
X156358333Y-30924047D01*
X150183095Y-31627380D02*
X150183095Y-30627380D01*
X150754523Y-31627380D02*
X150325952Y-31055952D01*
X150754523Y-30627380D02*
X150183095Y-31198809D01*
%TO.C,C16*%
X148807142Y-46867857D02*
X148854761Y-46915476D01*
X148902380Y-47058333D01*
X148902380Y-47153571D01*
X148854761Y-47296428D01*
X148759523Y-47391666D01*
X148664285Y-47439285D01*
X148473809Y-47486904D01*
X148330952Y-47486904D01*
X148140476Y-47439285D01*
X148045238Y-47391666D01*
X147950000Y-47296428D01*
X147902380Y-47153571D01*
X147902380Y-47058333D01*
X147950000Y-46915476D01*
X147997619Y-46867857D01*
X148902380Y-45915476D02*
X148902380Y-46486904D01*
X148902380Y-46201190D02*
X147902380Y-46201190D01*
X148045238Y-46296428D01*
X148140476Y-46391666D01*
X148188095Y-46486904D01*
X147902380Y-45058333D02*
X147902380Y-45248809D01*
X147950000Y-45344047D01*
X147997619Y-45391666D01*
X148140476Y-45486904D01*
X148330952Y-45534523D01*
X148711904Y-45534523D01*
X148807142Y-45486904D01*
X148854761Y-45439285D01*
X148902380Y-45344047D01*
X148902380Y-45153571D01*
X148854761Y-45058333D01*
X148807142Y-45010714D01*
X148711904Y-44963095D01*
X148473809Y-44963095D01*
X148378571Y-45010714D01*
X148330952Y-45058333D01*
X148283333Y-45153571D01*
X148283333Y-45344047D01*
X148330952Y-45439285D01*
X148378571Y-45486904D01*
X148473809Y-45534523D01*
%TO.C,TP1*%
X167288095Y-79829380D02*
X167859523Y-79829380D01*
X167573809Y-80829380D02*
X167573809Y-79829380D01*
X168192857Y-80829380D02*
X168192857Y-79829380D01*
X168573809Y-79829380D01*
X168669047Y-79877000D01*
X168716666Y-79924619D01*
X168764285Y-80019857D01*
X168764285Y-80162714D01*
X168716666Y-80257952D01*
X168669047Y-80305571D01*
X168573809Y-80353190D01*
X168192857Y-80353190D01*
X169716666Y-80829380D02*
X169145238Y-80829380D01*
X169430952Y-80829380D02*
X169430952Y-79829380D01*
X169335714Y-79972238D01*
X169240476Y-80067476D01*
X169145238Y-80115095D01*
%TO.C,C2*%
X153682142Y-46391666D02*
X153729761Y-46439285D01*
X153777380Y-46582142D01*
X153777380Y-46677380D01*
X153729761Y-46820238D01*
X153634523Y-46915476D01*
X153539285Y-46963095D01*
X153348809Y-47010714D01*
X153205952Y-47010714D01*
X153015476Y-46963095D01*
X152920238Y-46915476D01*
X152825000Y-46820238D01*
X152777380Y-46677380D01*
X152777380Y-46582142D01*
X152825000Y-46439285D01*
X152872619Y-46391666D01*
X152872619Y-46010714D02*
X152825000Y-45963095D01*
X152777380Y-45867857D01*
X152777380Y-45629761D01*
X152825000Y-45534523D01*
X152872619Y-45486904D01*
X152967857Y-45439285D01*
X153063095Y-45439285D01*
X153205952Y-45486904D01*
X153777380Y-46058333D01*
X153777380Y-45439285D01*
%TO.C,R5*%
X170432380Y-45166666D02*
X169956190Y-45500000D01*
X170432380Y-45738095D02*
X169432380Y-45738095D01*
X169432380Y-45357142D01*
X169480000Y-45261904D01*
X169527619Y-45214285D01*
X169622857Y-45166666D01*
X169765714Y-45166666D01*
X169860952Y-45214285D01*
X169908571Y-45261904D01*
X169956190Y-45357142D01*
X169956190Y-45738095D01*
X169432380Y-44261904D02*
X169432380Y-44738095D01*
X169908571Y-44785714D01*
X169860952Y-44738095D01*
X169813333Y-44642857D01*
X169813333Y-44404761D01*
X169860952Y-44309523D01*
X169908571Y-44261904D01*
X170003809Y-44214285D01*
X170241904Y-44214285D01*
X170337142Y-44261904D01*
X170384761Y-44309523D01*
X170432380Y-44404761D01*
X170432380Y-44642857D01*
X170384761Y-44738095D01*
X170337142Y-44785714D01*
%TO.C,RV2*%
X114373978Y-52268990D02*
X114040590Y-51792721D01*
X113802455Y-52268990D02*
X113802455Y-51268825D01*
X114183471Y-51268825D01*
X114278724Y-51316452D01*
X114326351Y-51364079D01*
X114373978Y-51459333D01*
X114373978Y-51602213D01*
X114326351Y-51697467D01*
X114278724Y-51745094D01*
X114183471Y-51792721D01*
X113802455Y-51792721D01*
X114659740Y-51268825D02*
X114993128Y-52268990D01*
X115326516Y-51268825D01*
X115612278Y-51364079D02*
X115659905Y-51316452D01*
X115755158Y-51268825D01*
X115993293Y-51268825D01*
X116088547Y-51316452D01*
X116136174Y-51364079D01*
X116183801Y-51459333D01*
X116183801Y-51554587D01*
X116136174Y-51697467D01*
X115564651Y-52268990D01*
X116183801Y-52268990D01*
%TO.C,TPG1*%
X166788095Y-84229380D02*
X167359523Y-84229380D01*
X167073809Y-85229380D02*
X167073809Y-84229380D01*
X167692857Y-85229380D02*
X167692857Y-84229380D01*
X168073809Y-84229380D01*
X168169047Y-84277000D01*
X168216666Y-84324619D01*
X168264285Y-84419857D01*
X168264285Y-84562714D01*
X168216666Y-84657952D01*
X168169047Y-84705571D01*
X168073809Y-84753190D01*
X167692857Y-84753190D01*
X169216666Y-84277000D02*
X169121428Y-84229380D01*
X168978571Y-84229380D01*
X168835714Y-84277000D01*
X168740476Y-84372238D01*
X168692857Y-84467476D01*
X168645238Y-84657952D01*
X168645238Y-84800809D01*
X168692857Y-84991285D01*
X168740476Y-85086523D01*
X168835714Y-85181761D01*
X168978571Y-85229380D01*
X169073809Y-85229380D01*
X169216666Y-85181761D01*
X169264285Y-85134142D01*
X169264285Y-84800809D01*
X169073809Y-84800809D01*
X170216666Y-85229380D02*
X169645238Y-85229380D01*
X169930952Y-85229380D02*
X169930952Y-84229380D01*
X169835714Y-84372238D01*
X169740476Y-84467476D01*
X169645238Y-84515095D01*
%TO.C,U4*%
X141228095Y-122782380D02*
X141228095Y-123591904D01*
X141275714Y-123687142D01*
X141323333Y-123734761D01*
X141418571Y-123782380D01*
X141609047Y-123782380D01*
X141704285Y-123734761D01*
X141751904Y-123687142D01*
X141799523Y-123591904D01*
X141799523Y-122782380D01*
X142704285Y-123115714D02*
X142704285Y-123782380D01*
X142466190Y-122734761D02*
X142228095Y-123449047D01*
X142847142Y-123449047D01*
%TO.C,H5*%
X104863095Y-123527380D02*
X104863095Y-122527380D01*
X104863095Y-123003571D02*
X105434523Y-123003571D01*
X105434523Y-123527380D02*
X105434523Y-122527380D01*
X106386904Y-122527380D02*
X105910714Y-122527380D01*
X105863095Y-123003571D01*
X105910714Y-122955952D01*
X106005952Y-122908333D01*
X106244047Y-122908333D01*
X106339285Y-122955952D01*
X106386904Y-123003571D01*
X106434523Y-123098809D01*
X106434523Y-123336904D01*
X106386904Y-123432142D01*
X106339285Y-123479761D01*
X106244047Y-123527380D01*
X106005952Y-123527380D01*
X105910714Y-123479761D01*
X105863095Y-123432142D01*
%TO.C,L1*%
X143477380Y-45741666D02*
X143477380Y-46217857D01*
X142477380Y-46217857D01*
X143477380Y-44884523D02*
X143477380Y-45455952D01*
X143477380Y-45170238D02*
X142477380Y-45170238D01*
X142620238Y-45265476D01*
X142715476Y-45360714D01*
X142763095Y-45455952D01*
%TO.C,H4*%
X178938095Y-21652380D02*
X178938095Y-20652380D01*
X178938095Y-21128571D02*
X179509523Y-21128571D01*
X179509523Y-21652380D02*
X179509523Y-20652380D01*
X180414285Y-20985714D02*
X180414285Y-21652380D01*
X180176190Y-20604761D02*
X179938095Y-21319047D01*
X180557142Y-21319047D01*
%TO.C,C8*%
X113583333Y-86002029D02*
X113535714Y-86049648D01*
X113392857Y-86097267D01*
X113297619Y-86097267D01*
X113154761Y-86049648D01*
X113059523Y-85954410D01*
X113011904Y-85859172D01*
X112964285Y-85668696D01*
X112964285Y-85525839D01*
X113011904Y-85335363D01*
X113059523Y-85240125D01*
X113154761Y-85144887D01*
X113297619Y-85097267D01*
X113392857Y-85097267D01*
X113535714Y-85144887D01*
X113583333Y-85192506D01*
X114154761Y-85525839D02*
X114059523Y-85478220D01*
X114011904Y-85430601D01*
X113964285Y-85335363D01*
X113964285Y-85287744D01*
X114011904Y-85192506D01*
X114059523Y-85144887D01*
X114154761Y-85097267D01*
X114345238Y-85097267D01*
X114440476Y-85144887D01*
X114488095Y-85192506D01*
X114535714Y-85287744D01*
X114535714Y-85335363D01*
X114488095Y-85430601D01*
X114440476Y-85478220D01*
X114345238Y-85525839D01*
X114154761Y-85525839D01*
X114059523Y-85573458D01*
X114011904Y-85621077D01*
X113964285Y-85716315D01*
X113964285Y-85906791D01*
X114011904Y-86002029D01*
X114059523Y-86049648D01*
X114154761Y-86097267D01*
X114345238Y-86097267D01*
X114440476Y-86049648D01*
X114488095Y-86002029D01*
X114535714Y-85906791D01*
X114535714Y-85716315D01*
X114488095Y-85621077D01*
X114440476Y-85573458D01*
X114345238Y-85525839D01*
%TO.C,D3*%
X114911904Y-31257380D02*
X114911904Y-30257380D01*
X115150000Y-30257380D01*
X115292857Y-30305000D01*
X115388095Y-30400238D01*
X115435714Y-30495476D01*
X115483333Y-30685952D01*
X115483333Y-30828809D01*
X115435714Y-31019285D01*
X115388095Y-31114523D01*
X115292857Y-31209761D01*
X115150000Y-31257380D01*
X114911904Y-31257380D01*
X115816666Y-30257380D02*
X116435714Y-30257380D01*
X116102380Y-30638333D01*
X116245238Y-30638333D01*
X116340476Y-30685952D01*
X116388095Y-30733571D01*
X116435714Y-30828809D01*
X116435714Y-31066904D01*
X116388095Y-31162142D01*
X116340476Y-31209761D01*
X116245238Y-31257380D01*
X115959523Y-31257380D01*
X115864285Y-31209761D01*
X115816666Y-31162142D01*
X110308095Y-31627380D02*
X110308095Y-30627380D01*
X110879523Y-31627380D02*
X110450952Y-31055952D01*
X110879523Y-30627380D02*
X110308095Y-31198809D01*
%TO.C,C6*%
X178858333Y-85907142D02*
X178810714Y-85954761D01*
X178667857Y-86002380D01*
X178572619Y-86002380D01*
X178429761Y-85954761D01*
X178334523Y-85859523D01*
X178286904Y-85764285D01*
X178239285Y-85573809D01*
X178239285Y-85430952D01*
X178286904Y-85240476D01*
X178334523Y-85145238D01*
X178429761Y-85050000D01*
X178572619Y-85002380D01*
X178667857Y-85002380D01*
X178810714Y-85050000D01*
X178858333Y-85097619D01*
X179715476Y-85002380D02*
X179525000Y-85002380D01*
X179429761Y-85050000D01*
X179382142Y-85097619D01*
X179286904Y-85240476D01*
X179239285Y-85430952D01*
X179239285Y-85811904D01*
X179286904Y-85907142D01*
X179334523Y-85954761D01*
X179429761Y-86002380D01*
X179620238Y-86002380D01*
X179715476Y-85954761D01*
X179763095Y-85907142D01*
X179810714Y-85811904D01*
X179810714Y-85573809D01*
X179763095Y-85478571D01*
X179715476Y-85430952D01*
X179620238Y-85383333D01*
X179429761Y-85383333D01*
X179334523Y-85430952D01*
X179286904Y-85478571D01*
X179239285Y-85573809D01*
%TO.C,Y1*%
X147951190Y-99486190D02*
X148427380Y-99486190D01*
X147427380Y-99819523D02*
X147951190Y-99486190D01*
X147427380Y-99152857D01*
X148427380Y-98295714D02*
X148427380Y-98867142D01*
X148427380Y-98581428D02*
X147427380Y-98581428D01*
X147570238Y-98676666D01*
X147665476Y-98771904D01*
X147713095Y-98867142D01*
%TO.C,SW3*%
X155854761Y-106858333D02*
X155902380Y-106715476D01*
X155902380Y-106477380D01*
X155854761Y-106382142D01*
X155807142Y-106334523D01*
X155711904Y-106286904D01*
X155616666Y-106286904D01*
X155521428Y-106334523D01*
X155473809Y-106382142D01*
X155426190Y-106477380D01*
X155378571Y-106667857D01*
X155330952Y-106763095D01*
X155283333Y-106810714D01*
X155188095Y-106858333D01*
X155092857Y-106858333D01*
X154997619Y-106810714D01*
X154950000Y-106763095D01*
X154902380Y-106667857D01*
X154902380Y-106429761D01*
X154950000Y-106286904D01*
X154902380Y-105953571D02*
X155902380Y-105715476D01*
X155188095Y-105525000D01*
X155902380Y-105334523D01*
X154902380Y-105096428D01*
X154902380Y-104810714D02*
X154902380Y-104191666D01*
X155283333Y-104525000D01*
X155283333Y-104382142D01*
X155330952Y-104286904D01*
X155378571Y-104239285D01*
X155473809Y-104191666D01*
X155711904Y-104191666D01*
X155807142Y-104239285D01*
X155854761Y-104286904D01*
X155902380Y-104382142D01*
X155902380Y-104667857D01*
X155854761Y-104763095D01*
X155807142Y-104810714D01*
%TO.C,J1*%
X126686666Y-117157380D02*
X126686666Y-117871666D01*
X126639047Y-118014523D01*
X126543809Y-118109761D01*
X126400952Y-118157380D01*
X126305714Y-118157380D01*
X127686666Y-118157380D02*
X127115238Y-118157380D01*
X127400952Y-118157380D02*
X127400952Y-117157380D01*
X127305714Y-117300238D01*
X127210476Y-117395476D01*
X127115238Y-117443095D01*
%TO.C,D2*%
X114986904Y-37457380D02*
X114986904Y-36457380D01*
X115225000Y-36457380D01*
X115367857Y-36505000D01*
X115463095Y-36600238D01*
X115510714Y-36695476D01*
X115558333Y-36885952D01*
X115558333Y-37028809D01*
X115510714Y-37219285D01*
X115463095Y-37314523D01*
X115367857Y-37409761D01*
X115225000Y-37457380D01*
X114986904Y-37457380D01*
X115939285Y-36552619D02*
X115986904Y-36505000D01*
X116082142Y-36457380D01*
X116320238Y-36457380D01*
X116415476Y-36505000D01*
X116463095Y-36552619D01*
X116510714Y-36647857D01*
X116510714Y-36743095D01*
X116463095Y-36885952D01*
X115891666Y-37457380D01*
X116510714Y-37457380D01*
X111653095Y-37777380D02*
X111653095Y-36777380D01*
X112224523Y-37777380D02*
X111795952Y-37205952D01*
X112224523Y-36777380D02*
X111653095Y-37348809D01*
%TO.C,SW4*%
X173026666Y-105499761D02*
X173169523Y-105547380D01*
X173407619Y-105547380D01*
X173502857Y-105499761D01*
X173550476Y-105452142D01*
X173598095Y-105356904D01*
X173598095Y-105261666D01*
X173550476Y-105166428D01*
X173502857Y-105118809D01*
X173407619Y-105071190D01*
X173217142Y-105023571D01*
X173121904Y-104975952D01*
X173074285Y-104928333D01*
X173026666Y-104833095D01*
X173026666Y-104737857D01*
X173074285Y-104642619D01*
X173121904Y-104595000D01*
X173217142Y-104547380D01*
X173455238Y-104547380D01*
X173598095Y-104595000D01*
X173931428Y-104547380D02*
X174169523Y-105547380D01*
X174360000Y-104833095D01*
X174550476Y-105547380D01*
X174788571Y-104547380D01*
X175598095Y-104880714D02*
X175598095Y-105547380D01*
X175360000Y-104499761D02*
X175121904Y-105214047D01*
X175740952Y-105214047D01*
%TO.C,TP2*%
X99863095Y-88179380D02*
X100434523Y-88179380D01*
X100148809Y-89179380D02*
X100148809Y-88179380D01*
X100767857Y-89179380D02*
X100767857Y-88179380D01*
X101148809Y-88179380D01*
X101244047Y-88227000D01*
X101291666Y-88274619D01*
X101339285Y-88369857D01*
X101339285Y-88512714D01*
X101291666Y-88607952D01*
X101244047Y-88655571D01*
X101148809Y-88703190D01*
X100767857Y-88703190D01*
X101720238Y-88274619D02*
X101767857Y-88227000D01*
X101863095Y-88179380D01*
X102101190Y-88179380D01*
X102196428Y-88227000D01*
X102244047Y-88274619D01*
X102291666Y-88369857D01*
X102291666Y-88465095D01*
X102244047Y-88607952D01*
X101672619Y-89179380D01*
X102291666Y-89179380D01*
%TO.C,JP1*%
X103916666Y-85097380D02*
X103916666Y-85811666D01*
X103869047Y-85954523D01*
X103773809Y-86049761D01*
X103630952Y-86097380D01*
X103535714Y-86097380D01*
X104392857Y-86097380D02*
X104392857Y-85097380D01*
X104773809Y-85097380D01*
X104869047Y-85145000D01*
X104916666Y-85192619D01*
X104964285Y-85287857D01*
X104964285Y-85430714D01*
X104916666Y-85525952D01*
X104869047Y-85573571D01*
X104773809Y-85621190D01*
X104392857Y-85621190D01*
X105916666Y-86097380D02*
X105345238Y-86097380D01*
X105630952Y-86097380D02*
X105630952Y-85097380D01*
X105535714Y-85240238D01*
X105440476Y-85335476D01*
X105345238Y-85383095D01*
%TO.C,C1*%
X170058333Y-53157142D02*
X170010714Y-53204761D01*
X169867857Y-53252380D01*
X169772619Y-53252380D01*
X169629761Y-53204761D01*
X169534523Y-53109523D01*
X169486904Y-53014285D01*
X169439285Y-52823809D01*
X169439285Y-52680952D01*
X169486904Y-52490476D01*
X169534523Y-52395238D01*
X169629761Y-52300000D01*
X169772619Y-52252380D01*
X169867857Y-52252380D01*
X170010714Y-52300000D01*
X170058333Y-52347619D01*
X171010714Y-53252380D02*
X170439285Y-53252380D01*
X170725000Y-53252380D02*
X170725000Y-52252380D01*
X170629761Y-52395238D01*
X170534523Y-52490476D01*
X170439285Y-52538095D01*
%TO.C,SW5*%
X110666666Y-66004761D02*
X110809523Y-66052380D01*
X111047619Y-66052380D01*
X111142857Y-66004761D01*
X111190476Y-65957142D01*
X111238095Y-65861904D01*
X111238095Y-65766666D01*
X111190476Y-65671428D01*
X111142857Y-65623809D01*
X111047619Y-65576190D01*
X110857142Y-65528571D01*
X110761904Y-65480952D01*
X110714285Y-65433333D01*
X110666666Y-65338095D01*
X110666666Y-65242857D01*
X110714285Y-65147619D01*
X110761904Y-65100000D01*
X110857142Y-65052380D01*
X111095238Y-65052380D01*
X111238095Y-65100000D01*
X111571428Y-65052380D02*
X111809523Y-66052380D01*
X112000000Y-65338095D01*
X112190476Y-66052380D01*
X112428571Y-65052380D01*
X113285714Y-65052380D02*
X112809523Y-65052380D01*
X112761904Y-65528571D01*
X112809523Y-65480952D01*
X112904761Y-65433333D01*
X113142857Y-65433333D01*
X113238095Y-65480952D01*
X113285714Y-65528571D01*
X113333333Y-65623809D01*
X113333333Y-65861904D01*
X113285714Y-65957142D01*
X113238095Y-66004761D01*
X113142857Y-66052380D01*
X112904761Y-66052380D01*
X112809523Y-66004761D01*
X112761904Y-65957142D01*
%TO.C,TPG2*%
X99313095Y-92729380D02*
X99884523Y-92729380D01*
X99598809Y-93729380D02*
X99598809Y-92729380D01*
X100217857Y-93729380D02*
X100217857Y-92729380D01*
X100598809Y-92729380D01*
X100694047Y-92777000D01*
X100741666Y-92824619D01*
X100789285Y-92919857D01*
X100789285Y-93062714D01*
X100741666Y-93157952D01*
X100694047Y-93205571D01*
X100598809Y-93253190D01*
X100217857Y-93253190D01*
X101741666Y-92777000D02*
X101646428Y-92729380D01*
X101503571Y-92729380D01*
X101360714Y-92777000D01*
X101265476Y-92872238D01*
X101217857Y-92967476D01*
X101170238Y-93157952D01*
X101170238Y-93300809D01*
X101217857Y-93491285D01*
X101265476Y-93586523D01*
X101360714Y-93681761D01*
X101503571Y-93729380D01*
X101598809Y-93729380D01*
X101741666Y-93681761D01*
X101789285Y-93634142D01*
X101789285Y-93300809D01*
X101598809Y-93300809D01*
X102170238Y-92824619D02*
X102217857Y-92777000D01*
X102313095Y-92729380D01*
X102551190Y-92729380D01*
X102646428Y-92777000D01*
X102694047Y-92824619D01*
X102741666Y-92919857D01*
X102741666Y-93015095D01*
X102694047Y-93157952D01*
X102122619Y-93729380D01*
X102741666Y-93729380D01*
%TO.C,H1*%
X104013095Y-52127380D02*
X104013095Y-51127380D01*
X104013095Y-51603571D02*
X104584523Y-51603571D01*
X104584523Y-52127380D02*
X104584523Y-51127380D01*
X105584523Y-52127380D02*
X105013095Y-52127380D01*
X105298809Y-52127380D02*
X105298809Y-51127380D01*
X105203571Y-51270238D01*
X105108333Y-51365476D01*
X105013095Y-51413095D01*
%TO.C,JP2*%
X156697380Y-86908333D02*
X157411666Y-86908333D01*
X157554523Y-86955952D01*
X157649761Y-87051190D01*
X157697380Y-87194047D01*
X157697380Y-87289285D01*
X157697380Y-86432142D02*
X156697380Y-86432142D01*
X156697380Y-86051190D01*
X156745000Y-85955952D01*
X156792619Y-85908333D01*
X156887857Y-85860714D01*
X157030714Y-85860714D01*
X157125952Y-85908333D01*
X157173571Y-85955952D01*
X157221190Y-86051190D01*
X157221190Y-86432142D01*
X156792619Y-85479761D02*
X156745000Y-85432142D01*
X156697380Y-85336904D01*
X156697380Y-85098809D01*
X156745000Y-85003571D01*
X156792619Y-84955952D01*
X156887857Y-84908333D01*
X156983095Y-84908333D01*
X157125952Y-84955952D01*
X157697380Y-85527380D01*
X157697380Y-84908333D01*
%TO.C,J2*%
X152183980Y-25733333D02*
X152898266Y-25733333D01*
X153041123Y-25780952D01*
X153136361Y-25876190D01*
X153183980Y-26019047D01*
X153183980Y-26114285D01*
X152279219Y-25304761D02*
X152231600Y-25257142D01*
X152183980Y-25161904D01*
X152183980Y-24923809D01*
X152231600Y-24828571D01*
X152279219Y-24780952D01*
X152374457Y-24733333D01*
X152469695Y-24733333D01*
X152612552Y-24780952D01*
X153183980Y-25352380D01*
X153183980Y-24733333D01*
%TO.C,U1*%
X161713095Y-41802380D02*
X161713095Y-42611904D01*
X161760714Y-42707142D01*
X161808333Y-42754761D01*
X161903571Y-42802380D01*
X162094047Y-42802380D01*
X162189285Y-42754761D01*
X162236904Y-42707142D01*
X162284523Y-42611904D01*
X162284523Y-41802380D01*
X163284523Y-42802380D02*
X162713095Y-42802380D01*
X162998809Y-42802380D02*
X162998809Y-41802380D01*
X162903571Y-41945238D01*
X162808333Y-42040476D01*
X162713095Y-42088095D01*
%TO.C,H3*%
X104013095Y-21652380D02*
X104013095Y-20652380D01*
X104013095Y-21128571D02*
X104584523Y-21128571D01*
X104584523Y-21652380D02*
X104584523Y-20652380D01*
X104965476Y-20652380D02*
X105584523Y-20652380D01*
X105251190Y-21033333D01*
X105394047Y-21033333D01*
X105489285Y-21080952D01*
X105536904Y-21128571D01*
X105584523Y-21223809D01*
X105584523Y-21461904D01*
X105536904Y-21557142D01*
X105489285Y-21604761D01*
X105394047Y-21652380D01*
X105108333Y-21652380D01*
X105013095Y-21604761D01*
X104965476Y-21557142D01*
%TO.C,RV1*%
X154648978Y-52268990D02*
X154315590Y-51792721D01*
X154077455Y-52268990D02*
X154077455Y-51268825D01*
X154458471Y-51268825D01*
X154553724Y-51316452D01*
X154601351Y-51364079D01*
X154648978Y-51459333D01*
X154648978Y-51602213D01*
X154601351Y-51697467D01*
X154553724Y-51745094D01*
X154458471Y-51792721D01*
X154077455Y-51792721D01*
X154934740Y-51268825D02*
X155268128Y-52268990D01*
X155601516Y-51268825D01*
X156458801Y-52268990D02*
X155887278Y-52268990D01*
X156173039Y-52268990D02*
X156173039Y-51268825D01*
X156077785Y-51411706D01*
X155982532Y-51506960D01*
X155887278Y-51554587D01*
%TO.C,D1*%
X154586904Y-37457380D02*
X154586904Y-36457380D01*
X154825000Y-36457380D01*
X154967857Y-36505000D01*
X155063095Y-36600238D01*
X155110714Y-36695476D01*
X155158333Y-36885952D01*
X155158333Y-37028809D01*
X155110714Y-37219285D01*
X155063095Y-37314523D01*
X154967857Y-37409761D01*
X154825000Y-37457380D01*
X154586904Y-37457380D01*
X156110714Y-37457380D02*
X155539285Y-37457380D01*
X155825000Y-37457380D02*
X155825000Y-36457380D01*
X155729761Y-36600238D01*
X155634523Y-36695476D01*
X155539285Y-36743095D01*
X151253095Y-37777380D02*
X151253095Y-36777380D01*
X151824523Y-37777380D02*
X151395952Y-37205952D01*
X151824523Y-36777380D02*
X151253095Y-37348809D01*
%TO.C,C17*%
X110332142Y-46867857D02*
X110379761Y-46915476D01*
X110427380Y-47058333D01*
X110427380Y-47153571D01*
X110379761Y-47296428D01*
X110284523Y-47391666D01*
X110189285Y-47439285D01*
X109998809Y-47486904D01*
X109855952Y-47486904D01*
X109665476Y-47439285D01*
X109570238Y-47391666D01*
X109475000Y-47296428D01*
X109427380Y-47153571D01*
X109427380Y-47058333D01*
X109475000Y-46915476D01*
X109522619Y-46867857D01*
X110427380Y-45915476D02*
X110427380Y-46486904D01*
X110427380Y-46201190D02*
X109427380Y-46201190D01*
X109570238Y-46296428D01*
X109665476Y-46391666D01*
X109713095Y-46486904D01*
X109427380Y-45582142D02*
X109427380Y-44915476D01*
X110427380Y-45344047D01*
%TO.C,SW2*%
X148774761Y-86583333D02*
X148822380Y-86440476D01*
X148822380Y-86202380D01*
X148774761Y-86107142D01*
X148727142Y-86059523D01*
X148631904Y-86011904D01*
X148536666Y-86011904D01*
X148441428Y-86059523D01*
X148393809Y-86107142D01*
X148346190Y-86202380D01*
X148298571Y-86392857D01*
X148250952Y-86488095D01*
X148203333Y-86535714D01*
X148108095Y-86583333D01*
X148012857Y-86583333D01*
X147917619Y-86535714D01*
X147870000Y-86488095D01*
X147822380Y-86392857D01*
X147822380Y-86154761D01*
X147870000Y-86011904D01*
X147822380Y-85678571D02*
X148822380Y-85440476D01*
X148108095Y-85250000D01*
X148822380Y-85059523D01*
X147822380Y-84821428D01*
X147917619Y-84488095D02*
X147870000Y-84440476D01*
X147822380Y-84345238D01*
X147822380Y-84107142D01*
X147870000Y-84011904D01*
X147917619Y-83964285D01*
X148012857Y-83916666D01*
X148108095Y-83916666D01*
X148250952Y-83964285D01*
X148822380Y-84535714D01*
X148822380Y-83916666D01*
%TO.C,C4*%
X129858333Y-53157142D02*
X129810714Y-53204761D01*
X129667857Y-53252380D01*
X129572619Y-53252380D01*
X129429761Y-53204761D01*
X129334523Y-53109523D01*
X129286904Y-53014285D01*
X129239285Y-52823809D01*
X129239285Y-52680952D01*
X129286904Y-52490476D01*
X129334523Y-52395238D01*
X129429761Y-52300000D01*
X129572619Y-52252380D01*
X129667857Y-52252380D01*
X129810714Y-52300000D01*
X129858333Y-52347619D01*
X130715476Y-52585714D02*
X130715476Y-53252380D01*
X130477380Y-52204761D02*
X130239285Y-52919047D01*
X130858333Y-52919047D01*
%TO.C,H6*%
X177388095Y-123252380D02*
X177388095Y-122252380D01*
X177388095Y-122728571D02*
X177959523Y-122728571D01*
X177959523Y-123252380D02*
X177959523Y-122252380D01*
X178864285Y-122252380D02*
X178673809Y-122252380D01*
X178578571Y-122300000D01*
X178530952Y-122347619D01*
X178435714Y-122490476D01*
X178388095Y-122680952D01*
X178388095Y-123061904D01*
X178435714Y-123157142D01*
X178483333Y-123204761D01*
X178578571Y-123252380D01*
X178769047Y-123252380D01*
X178864285Y-123204761D01*
X178911904Y-123157142D01*
X178959523Y-123061904D01*
X178959523Y-122823809D01*
X178911904Y-122728571D01*
X178864285Y-122680952D01*
X178769047Y-122633333D01*
X178578571Y-122633333D01*
X178483333Y-122680952D01*
X178435714Y-122728571D01*
X178388095Y-122823809D01*
%TO.C,C5*%
X114407142Y-46391666D02*
X114454761Y-46439285D01*
X114502380Y-46582142D01*
X114502380Y-46677380D01*
X114454761Y-46820238D01*
X114359523Y-46915476D01*
X114264285Y-46963095D01*
X114073809Y-47010714D01*
X113930952Y-47010714D01*
X113740476Y-46963095D01*
X113645238Y-46915476D01*
X113550000Y-46820238D01*
X113502380Y-46677380D01*
X113502380Y-46582142D01*
X113550000Y-46439285D01*
X113597619Y-46391666D01*
X113502380Y-45486904D02*
X113502380Y-45963095D01*
X113978571Y-46010714D01*
X113930952Y-45963095D01*
X113883333Y-45867857D01*
X113883333Y-45629761D01*
X113930952Y-45534523D01*
X113978571Y-45486904D01*
X114073809Y-45439285D01*
X114311904Y-45439285D01*
X114407142Y-45486904D01*
X114454761Y-45534523D01*
X114502380Y-45629761D01*
X114502380Y-45867857D01*
X114454761Y-45963095D01*
X114407142Y-46010714D01*
%TO.C,R10*%
X123557380Y-37742857D02*
X123081190Y-38076190D01*
X123557380Y-38314285D02*
X122557380Y-38314285D01*
X122557380Y-37933333D01*
X122605000Y-37838095D01*
X122652619Y-37790476D01*
X122747857Y-37742857D01*
X122890714Y-37742857D01*
X122985952Y-37790476D01*
X123033571Y-37838095D01*
X123081190Y-37933333D01*
X123081190Y-38314285D01*
X123557380Y-36790476D02*
X123557380Y-37361904D01*
X123557380Y-37076190D02*
X122557380Y-37076190D01*
X122700238Y-37171428D01*
X122795476Y-37266666D01*
X122843095Y-37361904D01*
X122557380Y-36171428D02*
X122557380Y-36076190D01*
X122605000Y-35980952D01*
X122652619Y-35933333D01*
X122747857Y-35885714D01*
X122938333Y-35838095D01*
X123176428Y-35838095D01*
X123366904Y-35885714D01*
X123462142Y-35933333D01*
X123509761Y-35980952D01*
X123557380Y-36076190D01*
X123557380Y-36171428D01*
X123509761Y-36266666D01*
X123462142Y-36314285D01*
X123366904Y-36361904D01*
X123176428Y-36409523D01*
X122938333Y-36409523D01*
X122747857Y-36361904D01*
X122652619Y-36314285D01*
X122605000Y-36266666D01*
X122557380Y-36171428D01*
%TO.C,SW7*%
X157166666Y-128154761D02*
X157309523Y-128202380D01*
X157547619Y-128202380D01*
X157642857Y-128154761D01*
X157690476Y-128107142D01*
X157738095Y-128011904D01*
X157738095Y-127916666D01*
X157690476Y-127821428D01*
X157642857Y-127773809D01*
X157547619Y-127726190D01*
X157357142Y-127678571D01*
X157261904Y-127630952D01*
X157214285Y-127583333D01*
X157166666Y-127488095D01*
X157166666Y-127392857D01*
X157214285Y-127297619D01*
X157261904Y-127250000D01*
X157357142Y-127202380D01*
X157595238Y-127202380D01*
X157738095Y-127250000D01*
X158071428Y-127202380D02*
X158309523Y-128202380D01*
X158500000Y-127488095D01*
X158690476Y-128202380D01*
X158928571Y-127202380D01*
X159214285Y-127202380D02*
X159880952Y-127202380D01*
X159452380Y-128202380D01*
%TO.C,SW1*%
X116170238Y-114341666D02*
X116122619Y-114484523D01*
X116122619Y-114722619D01*
X116170238Y-114817857D01*
X116217857Y-114865476D01*
X116313095Y-114913095D01*
X116408333Y-114913095D01*
X116503571Y-114865476D01*
X116551190Y-114817857D01*
X116598809Y-114722619D01*
X116646428Y-114532142D01*
X116694047Y-114436904D01*
X116741666Y-114389285D01*
X116836904Y-114341666D01*
X116932142Y-114341666D01*
X117027380Y-114389285D01*
X117075000Y-114436904D01*
X117122619Y-114532142D01*
X117122619Y-114770238D01*
X117075000Y-114913095D01*
X117122619Y-115246428D02*
X116122619Y-115484523D01*
X116836904Y-115675000D01*
X116122619Y-115865476D01*
X117122619Y-116103571D01*
X116122619Y-117008333D02*
X116122619Y-116436904D01*
X116122619Y-116722619D02*
X117122619Y-116722619D01*
X116979761Y-116627380D01*
X116884523Y-116532142D01*
X116836904Y-116436904D01*
D13*
%TO.C,R8*%
X133235000Y-45727064D02*
X133235000Y-44272936D01*
X131415000Y-45727064D02*
X131415000Y-44272936D01*
%TO.C,SW8*%
X175500000Y-70600000D02*
X175500000Y-69100000D01*
X168500000Y-69100000D02*
X168500000Y-70600000D01*
X169750000Y-73100000D02*
X174250000Y-73100000D01*
X174250000Y-66600000D02*
X169750000Y-66600000D01*
%TO.C,J3*%
X185150000Y-92982500D02*
X185150000Y-102182500D01*
X170450000Y-92982500D02*
X172350000Y-92982500D01*
X170450000Y-102182500D02*
X170450000Y-99782500D01*
X172350000Y-92982500D02*
X185150000Y-92982500D01*
X170250000Y-101332500D02*
X170250000Y-102382500D01*
X170450000Y-95382500D02*
X170450000Y-92982500D01*
X185150000Y-102182500D02*
X170450000Y-102182500D01*
X171300000Y-102382500D02*
X170250000Y-102382500D01*
%TO.C,U3*%
X123200000Y-48310000D02*
X125150000Y-48310000D01*
X123200000Y-43190000D02*
X119750000Y-43190000D01*
X123200000Y-43190000D02*
X125150000Y-43190000D01*
X123200000Y-48310000D02*
X121250000Y-48310000D01*
%TO.C,SW6*%
X144250000Y-66600000D02*
X139750000Y-66600000D01*
X139750000Y-73100000D02*
X144250000Y-73100000D01*
X145500000Y-70600000D02*
X145500000Y-69100000D01*
X138500000Y-69100000D02*
X138500000Y-70600000D01*
%TO.C,L2*%
X108635000Y-44992936D02*
X108635000Y-46197064D01*
X105915000Y-44992936D02*
X105915000Y-46197064D01*
%TO.C,R7*%
X165910000Y-37827064D02*
X165910000Y-36372936D01*
X164090000Y-37827064D02*
X164090000Y-36372936D01*
%TO.C,D4*%
X153585000Y-31805000D02*
X153585000Y-34745000D01*
X158245000Y-34745000D02*
X158245000Y-31805000D01*
X152805000Y-34745000D02*
X158245000Y-34745000D01*
X151785000Y-33275000D02*
X152805000Y-33275000D01*
X153825000Y-31805000D02*
X153825000Y-34745000D01*
X159265000Y-33275000D02*
X158245000Y-33275000D01*
X153705000Y-31805000D02*
X153705000Y-34745000D01*
X152805000Y-31805000D02*
X152805000Y-34745000D01*
X158245000Y-31805000D02*
X152805000Y-31805000D01*
%TO.C,C16*%
X149390000Y-46936252D02*
X149390000Y-45513748D01*
X151210000Y-46936252D02*
X151210000Y-45513748D01*
%TO.C,TP1*%
X169750000Y-82375000D02*
G75*
G03*
X169750000Y-82375000I-1200000J0D01*
G01*
%TO.C,C2*%
X156085000Y-46936252D02*
X156085000Y-45513748D01*
X154265000Y-46936252D02*
X154265000Y-45513748D01*
%TO.C,R5*%
X172710000Y-45727064D02*
X172710000Y-44272936D01*
X170890000Y-45727064D02*
X170890000Y-44272936D01*
D14*
%TO.C,RV2*%
X116475000Y-53025000D02*
X116475000Y-53625000D01*
X113825000Y-56625000D02*
X116475000Y-56625000D01*
X113825000Y-53025000D02*
X116475000Y-53025000D01*
X116475000Y-56625000D02*
X116475000Y-56025000D01*
D15*
X111849330Y-53267000D02*
G75*
G03*
X111849330Y-53267000I-120000J0D01*
G01*
D13*
%TO.C,TPG1*%
X169750000Y-86775000D02*
G75*
G03*
X169750000Y-86775000I-1200000J0D01*
G01*
%TO.C,U4*%
X144640000Y-122330000D02*
X144640000Y-86650000D01*
X142990000Y-122330000D02*
X144640000Y-122330000D01*
X139340000Y-122330000D02*
X140990000Y-122330000D01*
X139340000Y-86650000D02*
X139340000Y-122330000D01*
X144640000Y-86650000D02*
X139340000Y-86650000D01*
X142990000Y-122330000D02*
G75*
G03*
X140990000Y-122330000I-1000000J0D01*
G01*
%TO.C,L1*%
X146860000Y-44992936D02*
X146860000Y-46197064D01*
X144140000Y-44992936D02*
X144140000Y-46197064D01*
%TO.C,C8*%
X113870000Y-86816887D02*
X113870000Y-93272887D01*
X114390000Y-91084887D02*
X114390000Y-93211887D01*
X116991000Y-89642887D02*
X116991000Y-90446887D01*
X114551000Y-91084887D02*
X114551000Y-93175887D01*
X115791000Y-87528887D02*
X115791000Y-89004887D01*
X115591000Y-91084887D02*
X115591000Y-92708887D01*
X114711000Y-91084887D02*
X114711000Y-93130887D01*
X116031000Y-87739887D02*
X116031000Y-89004887D01*
X114911000Y-87026887D02*
X114911000Y-89004887D01*
X116191000Y-87907887D02*
X116191000Y-92181887D01*
X115031000Y-87074887D02*
X115031000Y-89004887D01*
X116031000Y-91084887D02*
X116031000Y-92349887D01*
X116311000Y-88049887D02*
X116311000Y-92039887D01*
X114471000Y-91084887D02*
X114471000Y-93194887D01*
X115991000Y-91084887D02*
X115991000Y-92387887D01*
X114150000Y-91084887D02*
X114150000Y-93250887D01*
X116951000Y-89411887D02*
X116951000Y-90677887D01*
X115391000Y-87254887D02*
X115391000Y-89004887D01*
X115871000Y-91084887D02*
X115871000Y-92494887D01*
X115711000Y-87466887D02*
X115711000Y-89004887D01*
X114350000Y-91084887D02*
X114350000Y-93219887D01*
X114751000Y-91084887D02*
X114751000Y-93118887D01*
X115751000Y-91084887D02*
X115751000Y-92592887D01*
X115511000Y-87328887D02*
X115511000Y-89004887D01*
X116511000Y-88330887D02*
X116511000Y-91758887D01*
X114070000Y-91084887D02*
X114070000Y-93259887D01*
X113910000Y-86817887D02*
X113910000Y-93271887D01*
X115271000Y-91084887D02*
X115271000Y-92900887D01*
X116071000Y-87779887D02*
X116071000Y-92309887D01*
X114030000Y-91084887D02*
X114030000Y-93262887D01*
X116351000Y-88100887D02*
X116351000Y-91988887D01*
X115311000Y-91084887D02*
X115311000Y-92878887D01*
X114671000Y-86946887D02*
X114671000Y-89004887D01*
X116751000Y-88782887D02*
X116751000Y-91306887D01*
X116911000Y-89242887D02*
X116911000Y-90846887D01*
X116431000Y-88210887D02*
X116431000Y-91878887D01*
X113790000Y-86814887D02*
X113790000Y-93274887D01*
X114230000Y-86849887D02*
X114230000Y-89004887D01*
X116631000Y-88535887D02*
X116631000Y-91553887D01*
X116591000Y-88463887D02*
X116591000Y-91625887D01*
X114511000Y-91084887D02*
X114511000Y-93185887D01*
X115791000Y-91084887D02*
X115791000Y-92560887D01*
X115991000Y-87701887D02*
X115991000Y-89004887D01*
X115591000Y-87380887D02*
X115591000Y-89004887D01*
X115351000Y-87232887D02*
X115351000Y-89004887D01*
X114671000Y-91084887D02*
X114671000Y-93142887D01*
X114871000Y-91084887D02*
X114871000Y-93077887D01*
X114951000Y-87042887D02*
X114951000Y-89004887D01*
X114631000Y-86934887D02*
X114631000Y-89004887D01*
X114310000Y-86862887D02*
X114310000Y-89004887D01*
X110249759Y-88205887D02*
X110879759Y-88205887D01*
X116711000Y-88694887D02*
X116711000Y-91394887D01*
X114711000Y-86958887D02*
X114711000Y-89004887D01*
X116471000Y-88268887D02*
X116471000Y-91820887D01*
X116551000Y-88394887D02*
X116551000Y-91694887D01*
X114591000Y-91084887D02*
X114591000Y-93165887D01*
X115071000Y-91084887D02*
X115071000Y-92996887D01*
X116231000Y-87952887D02*
X116231000Y-92136887D01*
X114951000Y-91084887D02*
X114951000Y-93046887D01*
X115831000Y-87560887D02*
X115831000Y-89004887D01*
X114270000Y-86855887D02*
X114270000Y-89004887D01*
X114430000Y-91084887D02*
X114430000Y-93203887D01*
X114831000Y-91084887D02*
X114831000Y-93091887D01*
X113830000Y-86814887D02*
X113830000Y-93274887D01*
X115871000Y-87594887D02*
X115871000Y-89004887D01*
X114471000Y-86894887D02*
X114471000Y-89004887D01*
X113990000Y-91084887D02*
X113990000Y-93266887D01*
X115151000Y-91084887D02*
X115151000Y-92960887D01*
X115151000Y-87128887D02*
X115151000Y-89004887D01*
X114110000Y-91084887D02*
X114110000Y-93255887D01*
X115911000Y-87628887D02*
X115911000Y-89004887D01*
X113750000Y-86814887D02*
X113750000Y-93274887D01*
X116791000Y-88879887D02*
X116791000Y-91209887D01*
X114991000Y-87058887D02*
X114991000Y-89004887D01*
X115351000Y-91084887D02*
X115351000Y-92856887D01*
X115631000Y-91084887D02*
X115631000Y-92680887D01*
X114150000Y-86838887D02*
X114150000Y-89004887D01*
X114911000Y-91084887D02*
X114911000Y-93062887D01*
X115831000Y-91084887D02*
X115831000Y-92528887D01*
X114390000Y-86877887D02*
X114390000Y-89004887D01*
X115231000Y-87168887D02*
X115231000Y-89004887D01*
X114190000Y-91084887D02*
X114190000Y-93245887D01*
X115191000Y-87148887D02*
X115191000Y-89004887D01*
X115031000Y-91084887D02*
X115031000Y-93014887D01*
X115471000Y-91084887D02*
X115471000Y-92786887D01*
X114110000Y-86833887D02*
X114110000Y-89004887D01*
X113950000Y-86820887D02*
X113950000Y-93268887D01*
X116271000Y-88000887D02*
X116271000Y-92088887D01*
X115671000Y-91084887D02*
X115671000Y-92651887D01*
X115111000Y-91084887D02*
X115111000Y-92978887D01*
X114591000Y-86923887D02*
X114591000Y-89004887D01*
X114871000Y-87011887D02*
X114871000Y-89004887D01*
X115471000Y-87302887D02*
X115471000Y-89004887D01*
X114430000Y-86885887D02*
X114430000Y-89004887D01*
X115671000Y-87437887D02*
X115671000Y-89004887D01*
X115071000Y-87092887D02*
X115071000Y-89004887D01*
X115951000Y-87664887D02*
X115951000Y-89004887D01*
X115271000Y-87188887D02*
X115271000Y-89004887D01*
X114551000Y-86913887D02*
X114551000Y-89004887D01*
X114310000Y-91084887D02*
X114310000Y-93226887D01*
X114791000Y-91084887D02*
X114791000Y-93105887D01*
X116671000Y-88612887D02*
X116671000Y-91476887D01*
X113990000Y-86822887D02*
X113990000Y-89004887D01*
X116111000Y-87820887D02*
X116111000Y-92268887D01*
X114230000Y-91084887D02*
X114230000Y-93239887D01*
X115311000Y-87210887D02*
X115311000Y-89004887D01*
X115111000Y-87110887D02*
X115111000Y-89004887D01*
X115711000Y-91084887D02*
X115711000Y-92622887D01*
X114030000Y-86826887D02*
X114030000Y-89004887D01*
X115631000Y-87408887D02*
X115631000Y-89004887D01*
X114270000Y-91084887D02*
X114270000Y-93233887D01*
X116831000Y-88985887D02*
X116831000Y-91103887D01*
X116871000Y-89104887D02*
X116871000Y-90984887D01*
X115551000Y-91084887D02*
X115551000Y-92734887D01*
X115911000Y-91084887D02*
X115911000Y-92460887D01*
X115431000Y-91084887D02*
X115431000Y-92810887D01*
X114991000Y-91084887D02*
X114991000Y-93030887D01*
X115751000Y-87496887D02*
X115751000Y-89004887D01*
X115511000Y-91084887D02*
X115511000Y-92760887D01*
X114751000Y-86970887D02*
X114751000Y-89004887D01*
X115551000Y-87354887D02*
X115551000Y-89004887D01*
X115231000Y-91084887D02*
X115231000Y-92920887D01*
X114831000Y-86997887D02*
X114831000Y-89004887D01*
X114070000Y-86829887D02*
X114070000Y-89004887D01*
X114350000Y-86869887D02*
X114350000Y-89004887D01*
X116151000Y-87862887D02*
X116151000Y-92226887D01*
X114190000Y-86843887D02*
X114190000Y-89004887D01*
X115951000Y-91084887D02*
X115951000Y-92424887D01*
X114791000Y-86983887D02*
X114791000Y-89004887D01*
X114511000Y-86903887D02*
X114511000Y-89004887D01*
X116391000Y-88154887D02*
X116391000Y-91934887D01*
X114631000Y-91084887D02*
X114631000Y-93154887D01*
X115391000Y-91084887D02*
X115391000Y-92834887D01*
X115431000Y-87278887D02*
X115431000Y-89004887D01*
X110564759Y-87890887D02*
X110564759Y-88520887D01*
X115191000Y-91084887D02*
X115191000Y-92940887D01*
X117020000Y-90044887D02*
G75*
G03*
X117020000Y-90044887I-3270000J0D01*
G01*
%TO.C,D3*%
X118370000Y-31805000D02*
X112930000Y-31805000D01*
X119390000Y-33275000D02*
X118370000Y-33275000D01*
X113830000Y-31805000D02*
X113830000Y-34745000D01*
X113950000Y-31805000D02*
X113950000Y-34745000D01*
X118370000Y-34745000D02*
X118370000Y-31805000D01*
X112930000Y-31805000D02*
X112930000Y-34745000D01*
X111910000Y-33275000D02*
X112930000Y-33275000D01*
X112930000Y-34745000D02*
X118370000Y-34745000D01*
X113710000Y-31805000D02*
X113710000Y-34745000D01*
%TO.C,C6*%
X176940000Y-80994000D02*
X178870000Y-80994000D01*
X173856000Y-79754000D02*
X177944000Y-79754000D01*
X176940000Y-80074000D02*
X178280000Y-80074000D01*
X176940000Y-80394000D02*
X178536000Y-80394000D01*
X176940000Y-81354000D02*
X178998000Y-81354000D01*
X174960000Y-79154000D02*
X176840000Y-79154000D01*
X172670000Y-82235000D02*
X179130000Y-82235000D01*
X174319000Y-79434000D02*
X177481000Y-79434000D01*
X172672000Y-82155000D02*
X179128000Y-82155000D01*
X176940000Y-81314000D02*
X178986000Y-81314000D01*
X172685000Y-81955000D02*
X174860000Y-81955000D01*
X172670000Y-82275000D02*
X179130000Y-82275000D01*
X176940000Y-80354000D02*
X178507000Y-80354000D01*
X172705000Y-81795000D02*
X174860000Y-81795000D01*
X173236000Y-80434000D02*
X174860000Y-80434000D01*
X176940000Y-81234000D02*
X178961000Y-81234000D01*
X172711000Y-81755000D02*
X174860000Y-81755000D01*
X176940000Y-80874000D02*
X178816000Y-80874000D01*
X175267000Y-79074000D02*
X176533000Y-79074000D01*
X174250000Y-79474000D02*
X177550000Y-79474000D01*
X176940000Y-80554000D02*
X178642000Y-80554000D01*
X173066000Y-80714000D02*
X174860000Y-80714000D01*
X172779000Y-81434000D02*
X174860000Y-81434000D01*
X172694000Y-81875000D02*
X174860000Y-81875000D01*
X172914000Y-81034000D02*
X174860000Y-81034000D01*
X176940000Y-81554000D02*
X179050000Y-81554000D01*
X176940000Y-79994000D02*
X178205000Y-79994000D01*
X173635000Y-79954000D02*
X178165000Y-79954000D01*
X174124000Y-79554000D02*
X177676000Y-79554000D01*
X173184000Y-80514000D02*
X174860000Y-80514000D01*
X172699000Y-81835000D02*
X174860000Y-81835000D01*
X173520000Y-80074000D02*
X174860000Y-80074000D01*
X176940000Y-81394000D02*
X179010000Y-81394000D01*
X176940000Y-81635000D02*
X179067000Y-81635000D01*
X173293000Y-80354000D02*
X174860000Y-80354000D01*
X176940000Y-80914000D02*
X178834000Y-80914000D01*
X174550000Y-79314000D02*
X177250000Y-79314000D01*
X172790000Y-81394000D02*
X174860000Y-81394000D01*
X176940000Y-81995000D02*
X179118000Y-81995000D01*
X176940000Y-81034000D02*
X178886000Y-81034000D01*
X172839000Y-81234000D02*
X174860000Y-81234000D01*
X172984000Y-80874000D02*
X174860000Y-80874000D01*
X172853000Y-81194000D02*
X174860000Y-81194000D01*
X173004000Y-80834000D02*
X174860000Y-80834000D01*
X172673000Y-82115000D02*
X179127000Y-82115000D01*
X174066000Y-79594000D02*
X177734000Y-79594000D01*
X176940000Y-80794000D02*
X178776000Y-80794000D01*
X173416000Y-80194000D02*
X174860000Y-80194000D01*
X176940000Y-81755000D02*
X179089000Y-81755000D01*
X173484000Y-80114000D02*
X174860000Y-80114000D01*
X176940000Y-81875000D02*
X179106000Y-81875000D01*
X172826000Y-81274000D02*
X174860000Y-81274000D01*
X176940000Y-81514000D02*
X179041000Y-81514000D01*
X172678000Y-82035000D02*
X174860000Y-82035000D01*
X176940000Y-81274000D02*
X178974000Y-81274000D01*
X172948000Y-80954000D02*
X174860000Y-80954000D01*
X176940000Y-80754000D02*
X178756000Y-80754000D01*
X174010000Y-79634000D02*
X177790000Y-79634000D01*
X176940000Y-80514000D02*
X178616000Y-80514000D01*
X173746000Y-85460241D02*
X174376000Y-85460241D01*
X173808000Y-79794000D02*
X177992000Y-79794000D01*
X172741000Y-81595000D02*
X174860000Y-81595000D01*
X173322000Y-80314000D02*
X174860000Y-80314000D01*
X176940000Y-82035000D02*
X179122000Y-82035000D01*
X176940000Y-81434000D02*
X179021000Y-81434000D01*
X176940000Y-81795000D02*
X179095000Y-81795000D01*
X176940000Y-81955000D02*
X179115000Y-81955000D01*
X176940000Y-80674000D02*
X178712000Y-80674000D01*
X173595000Y-79994000D02*
X174860000Y-79994000D01*
X173044000Y-80754000D02*
X174860000Y-80754000D01*
X174638000Y-79274000D02*
X177162000Y-79274000D01*
X173905000Y-79714000D02*
X177895000Y-79714000D01*
X172802000Y-81354000D02*
X174860000Y-81354000D01*
X173557000Y-80034000D02*
X174860000Y-80034000D01*
X173134000Y-80594000D02*
X174860000Y-80594000D01*
X172718000Y-81715000D02*
X174860000Y-81715000D01*
X173024000Y-80794000D02*
X174860000Y-80794000D01*
X173264000Y-80394000D02*
X174860000Y-80394000D01*
X176940000Y-80834000D02*
X178796000Y-80834000D01*
X172759000Y-81514000D02*
X174860000Y-81514000D01*
X176940000Y-81114000D02*
X178918000Y-81114000D01*
X174468000Y-79354000D02*
X177332000Y-79354000D01*
X176940000Y-80114000D02*
X178316000Y-80114000D01*
X174735000Y-79234000D02*
X177065000Y-79234000D01*
X172867000Y-81154000D02*
X174860000Y-81154000D01*
X176940000Y-81474000D02*
X179031000Y-81474000D01*
X176940000Y-80034000D02*
X178243000Y-80034000D01*
X174061000Y-85775241D02*
X174061000Y-85145241D01*
X176940000Y-80474000D02*
X178590000Y-80474000D01*
X176940000Y-80954000D02*
X178852000Y-80954000D01*
X176940000Y-81915000D02*
X179111000Y-81915000D01*
X173450000Y-80154000D02*
X174860000Y-80154000D01*
X173718000Y-79874000D02*
X178082000Y-79874000D01*
X173110000Y-80634000D02*
X174860000Y-80634000D01*
X176940000Y-81675000D02*
X179075000Y-81675000D01*
X176940000Y-80594000D02*
X178666000Y-80594000D01*
X172733000Y-81635000D02*
X174860000Y-81635000D01*
X172814000Y-81314000D02*
X174860000Y-81314000D01*
X173158000Y-80554000D02*
X174860000Y-80554000D01*
X176940000Y-80434000D02*
X178564000Y-80434000D01*
X173210000Y-80474000D02*
X174860000Y-80474000D01*
X172670000Y-82195000D02*
X179130000Y-82195000D01*
X172930000Y-80994000D02*
X174860000Y-80994000D01*
X172689000Y-81915000D02*
X174860000Y-81915000D01*
X176940000Y-81835000D02*
X179101000Y-81835000D01*
X172898000Y-81074000D02*
X174860000Y-81074000D01*
X172725000Y-81675000D02*
X174860000Y-81675000D01*
X172769000Y-81474000D02*
X174860000Y-81474000D01*
X172882000Y-81114000D02*
X174860000Y-81114000D01*
X173384000Y-80234000D02*
X174860000Y-80234000D01*
X173763000Y-79834000D02*
X178037000Y-79834000D01*
X175498000Y-79034000D02*
X176302000Y-79034000D01*
X173676000Y-79914000D02*
X178124000Y-79914000D01*
X176940000Y-80274000D02*
X178448000Y-80274000D01*
X173956000Y-79674000D02*
X177844000Y-79674000D01*
X175098000Y-79114000D02*
X176702000Y-79114000D01*
X176940000Y-80234000D02*
X178416000Y-80234000D01*
X174391000Y-79394000D02*
X177409000Y-79394000D01*
X174841000Y-79194000D02*
X176959000Y-79194000D01*
X176940000Y-80634000D02*
X178690000Y-80634000D01*
X176940000Y-81595000D02*
X179059000Y-81595000D01*
X172676000Y-82075000D02*
X179124000Y-82075000D01*
X176940000Y-80194000D02*
X178384000Y-80194000D01*
X176940000Y-80314000D02*
X178478000Y-80314000D01*
X176940000Y-81194000D02*
X178947000Y-81194000D01*
X176940000Y-81074000D02*
X178902000Y-81074000D01*
X173088000Y-80674000D02*
X174860000Y-80674000D01*
X172966000Y-80914000D02*
X174860000Y-80914000D01*
X176940000Y-81715000D02*
X179082000Y-81715000D01*
X176940000Y-81154000D02*
X178933000Y-81154000D01*
X176940000Y-80154000D02*
X178350000Y-80154000D01*
X174186000Y-79514000D02*
X177614000Y-79514000D01*
X172682000Y-81995000D02*
X174860000Y-81995000D01*
X173352000Y-80274000D02*
X174860000Y-80274000D01*
X172750000Y-81554000D02*
X174860000Y-81554000D01*
X176940000Y-80714000D02*
X178734000Y-80714000D01*
X179170000Y-82275000D02*
G75*
G03*
X179170000Y-82275000I-3270000J0D01*
G01*
%TO.C,Y1*%
X154025000Y-102210000D02*
X154025000Y-95810000D01*
X148975000Y-102210000D02*
X148975000Y-95810000D01*
X154025000Y-95810000D02*
G75*
G03*
X148975000Y-95810000I-2525000J0D01*
G01*
X148975000Y-102210000D02*
G75*
G03*
X154025000Y-102210000I2525000J0D01*
G01*
D14*
%TO.C,SW3*%
X156570000Y-89402500D02*
X166730000Y-89402500D01*
X166730000Y-89402500D02*
X166730000Y-105862500D01*
X156570000Y-89402500D02*
X156570000Y-105862500D01*
X166730000Y-105862500D02*
X156570000Y-105862500D01*
X158350000Y-89402500D02*
X159900000Y-89402500D01*
D16*
X160180000Y-106672500D02*
G75*
G03*
X160180000Y-106672500I-100000J0D01*
G01*
%TO.C,G\u002A\u002A\u002A*%
G36*
X133962818Y-77312680D02*
G01*
X133962791Y-77311784D01*
X133987935Y-77300526D01*
X134053050Y-77292471D01*
X134122234Y-77289780D01*
X134229516Y-77285176D01*
X134329268Y-77275033D01*
X134373222Y-77267363D01*
X134417794Y-77260194D01*
X134456781Y-77266328D01*
X134500958Y-77292275D01*
X134561100Y-77344549D01*
X134647984Y-77429659D01*
X134657447Y-77439115D01*
X134765936Y-77551335D01*
X134831192Y-77629623D01*
X134852082Y-77675601D01*
X134827470Y-77690891D01*
X134756222Y-77677116D01*
X134637202Y-77635898D01*
X134545105Y-77599764D01*
X134431891Y-77557112D01*
X134330723Y-77524134D01*
X134257710Y-77505886D01*
X134239469Y-77503833D01*
X134185863Y-77487932D01*
X134114643Y-77449239D01*
X134042562Y-77399381D01*
X134014302Y-77374539D01*
X134332668Y-77374539D01*
X134371183Y-77414706D01*
X134436202Y-77452853D01*
X134523596Y-77490193D01*
X134576609Y-77499782D01*
X134589756Y-77481057D01*
X134584118Y-77468050D01*
X134512012Y-77377223D01*
X134427013Y-77338312D01*
X134399850Y-77336336D01*
X134341698Y-77346730D01*
X134332668Y-77374539D01*
X134014302Y-77374539D01*
X133986370Y-77349985D01*
X133962818Y-77312680D01*
G37*
G36*
X137522741Y-80888318D02*
G01*
X137538402Y-80937761D01*
X137535177Y-81000378D01*
X137510495Y-81062453D01*
X137484406Y-81093650D01*
X137439722Y-81148767D01*
X137435903Y-81206064D01*
X137473829Y-81279455D01*
X137498271Y-81313019D01*
X137541676Y-81373957D01*
X137565823Y-81415685D01*
X137567594Y-81422086D01*
X137552189Y-81441338D01*
X137511890Y-81421377D01*
X137455571Y-81366985D01*
X137447193Y-81357228D01*
X137396064Y-81287205D01*
X137361542Y-81223447D01*
X137358750Y-81215677D01*
X137354877Y-81147825D01*
X137369887Y-81056611D01*
X137397681Y-80965483D01*
X137432162Y-80897890D01*
X137445054Y-80883820D01*
X137490768Y-80865766D01*
X137522741Y-80888318D01*
G37*
G36*
X136253121Y-80948427D02*
G01*
X136239583Y-80969974D01*
X136189934Y-81013077D01*
X136115095Y-81069911D01*
X136025990Y-81132647D01*
X135933540Y-81193458D01*
X135848667Y-81244516D01*
X135813719Y-81263317D01*
X135740884Y-81297931D01*
X135693050Y-81316030D01*
X135682005Y-81315894D01*
X135703748Y-81287082D01*
X135761606Y-81239089D01*
X135844519Y-81179031D01*
X135941431Y-81114023D01*
X136041281Y-81051180D01*
X136133013Y-80997616D01*
X136205568Y-80960448D01*
X136247886Y-80946791D01*
X136253121Y-80948427D01*
G37*
G36*
X142575204Y-75536158D02*
G01*
X142621619Y-75608040D01*
X142677851Y-75704824D01*
X142738942Y-75818257D01*
X142799935Y-75940087D01*
X142814982Y-75971727D01*
X142870481Y-76097709D01*
X142902605Y-76186977D01*
X142911984Y-76236698D01*
X142899247Y-76244041D01*
X142865024Y-76206174D01*
X142809942Y-76120266D01*
X142789753Y-76085248D01*
X142722981Y-75960968D01*
X142658869Y-75830808D01*
X142602698Y-75706740D01*
X142559748Y-75600739D01*
X142535302Y-75524778D01*
X142531658Y-75500108D01*
X142543565Y-75497430D01*
X142575204Y-75536158D01*
G37*
G36*
X134967492Y-76416476D02*
G01*
X134991458Y-76382561D01*
X135036322Y-76335256D01*
X135075202Y-76328495D01*
X135108072Y-76342568D01*
X135159097Y-76380348D01*
X135228365Y-76444464D01*
X135281291Y-76499774D01*
X135352851Y-76569921D01*
X135406226Y-76604306D01*
X135427376Y-76604641D01*
X135457994Y-76561118D01*
X135438384Y-76498227D01*
X135390847Y-76437755D01*
X135334578Y-76340769D01*
X135329785Y-76292042D01*
X135418935Y-76292042D01*
X135431459Y-76336248D01*
X135476517Y-76382987D01*
X135524074Y-76381121D01*
X135558878Y-76334584D01*
X135566159Y-76301507D01*
X135559341Y-76225833D01*
X135527925Y-76166775D01*
X135483910Y-76143977D01*
X135447248Y-76167801D01*
X135423578Y-76224528D01*
X135418935Y-76292042D01*
X135329785Y-76292042D01*
X135323846Y-76231675D01*
X135360194Y-76129087D01*
X135364690Y-76122418D01*
X135429461Y-76070099D01*
X135508840Y-76058924D01*
X135587460Y-76083379D01*
X135649949Y-76137951D01*
X135680937Y-76217127D01*
X135682005Y-76236240D01*
X135694032Y-76289480D01*
X135724897Y-76369867D01*
X135751328Y-76426454D01*
X135799952Y-76549530D01*
X135819084Y-76659798D01*
X135807436Y-76744744D01*
X135787376Y-76776205D01*
X135723508Y-76805388D01*
X135638199Y-76802903D01*
X135554782Y-76769803D01*
X135548242Y-76765413D01*
X135479871Y-76734432D01*
X135431022Y-76753493D01*
X135398693Y-76824321D01*
X135391887Y-76855282D01*
X135364849Y-76964171D01*
X135329350Y-77027541D01*
X135277859Y-77055323D01*
X135237361Y-77059043D01*
X135163512Y-77041388D01*
X135081747Y-76983775D01*
X135045778Y-76949673D01*
X134954927Y-76825330D01*
X134910881Y-76687556D01*
X134913822Y-76580068D01*
X134992588Y-76580068D01*
X134993263Y-76690834D01*
X135026307Y-76803893D01*
X135087263Y-76901879D01*
X135148373Y-76954880D01*
X135219211Y-76989711D01*
X135266683Y-76984273D01*
X135304807Y-76940700D01*
X135319899Y-76871654D01*
X135305753Y-76776112D01*
X135268691Y-76670131D01*
X135235272Y-76607617D01*
X135549809Y-76607617D01*
X135552694Y-76671186D01*
X135587619Y-76717806D01*
X135629169Y-76746802D01*
X135655803Y-76750710D01*
X135693601Y-76737190D01*
X135726288Y-76699005D01*
X135738450Y-76633634D01*
X135730250Y-76565345D01*
X135701849Y-76518409D01*
X135692100Y-76513039D01*
X135628084Y-76511745D01*
X135577796Y-76548871D01*
X135549809Y-76607617D01*
X135235272Y-76607617D01*
X135215039Y-76569770D01*
X135151120Y-76491089D01*
X135117471Y-76465008D01*
X135071782Y-76451939D01*
X135031678Y-76485069D01*
X135028743Y-76488961D01*
X134992588Y-76580068D01*
X134913822Y-76580068D01*
X134914712Y-76547542D01*
X134967492Y-76416476D01*
G37*
G36*
X133558333Y-75454567D02*
G01*
X133574873Y-75436570D01*
X133653517Y-75380014D01*
X133736670Y-75376209D01*
X133828607Y-75425465D01*
X133866220Y-75457678D01*
X133950886Y-75560915D01*
X133981450Y-75661443D01*
X133957528Y-75757418D01*
X133935216Y-75790867D01*
X133860233Y-75852844D01*
X133775829Y-75860183D01*
X133682106Y-75812880D01*
X133664915Y-75799120D01*
X133603273Y-75727259D01*
X133553862Y-75636359D01*
X133547329Y-75618568D01*
X133526244Y-75544598D01*
X133526272Y-75544059D01*
X133630039Y-75544059D01*
X133648089Y-75639029D01*
X133694786Y-75716246D01*
X133758951Y-75767229D01*
X133829405Y-75783497D01*
X133894969Y-75756568D01*
X133901786Y-75750222D01*
X133930682Y-75695008D01*
X133935061Y-75664901D01*
X133912298Y-75602041D01*
X133855823Y-75534687D01*
X133783356Y-75479086D01*
X133712619Y-75451486D01*
X133701496Y-75450746D01*
X133652562Y-75458028D01*
X133633038Y-75490952D01*
X133630039Y-75544059D01*
X133526272Y-75544059D01*
X133528683Y-75498052D01*
X133558333Y-75454567D01*
G37*
G36*
X140965463Y-81675964D02*
G01*
X140981378Y-81468012D01*
X141025565Y-81292128D01*
X141095453Y-81153396D01*
X141188469Y-81056900D01*
X141302040Y-81007726D01*
X141303685Y-81007412D01*
X141381366Y-81001980D01*
X141424265Y-81015934D01*
X141425718Y-81042390D01*
X141379061Y-81074466D01*
X141371686Y-81077638D01*
X141269154Y-81142001D01*
X141170398Y-81240825D01*
X141093484Y-81354986D01*
X141077528Y-81388989D01*
X141054201Y-81463944D01*
X141065152Y-81512342D01*
X141117523Y-81543431D01*
X141213991Y-81565678D01*
X141350547Y-81606425D01*
X141444889Y-81675782D01*
X141487367Y-81738616D01*
X141542639Y-81898340D01*
X141543381Y-82056957D01*
X141532323Y-82107829D01*
X141497649Y-82191571D01*
X141444144Y-82274967D01*
X141383873Y-82342858D01*
X141328904Y-82380083D01*
X141313257Y-82383060D01*
X141277280Y-82365732D01*
X141217311Y-82321311D01*
X141174098Y-82284245D01*
X141078211Y-82176433D01*
X141013903Y-82049901D01*
X140977537Y-81894041D01*
X140976613Y-81879049D01*
X141069683Y-81879049D01*
X141090828Y-81996093D01*
X141132872Y-82109913D01*
X141189698Y-82207214D01*
X141255187Y-82274700D01*
X141317976Y-82299029D01*
X141350796Y-82282003D01*
X141394232Y-82244414D01*
X141435377Y-82170167D01*
X141452000Y-82065943D01*
X141446767Y-81946629D01*
X141422345Y-81827113D01*
X141381400Y-81722282D01*
X141326599Y-81647024D01*
X141282422Y-81620223D01*
X141207168Y-81622426D01*
X141136008Y-81666452D01*
X141085564Y-81740101D01*
X141075552Y-81772077D01*
X141069683Y-81879049D01*
X140976613Y-81879049D01*
X140965472Y-81698244D01*
X140965463Y-81675964D01*
G37*
G36*
X137471335Y-81659282D02*
G01*
X137509752Y-81710346D01*
X137517590Y-81725497D01*
X137557112Y-81827387D01*
X137593814Y-81954571D01*
X137623490Y-82088006D01*
X137641932Y-82208645D01*
X137644932Y-82297444D01*
X137644620Y-82300533D01*
X137634009Y-82396925D01*
X137589040Y-82298863D01*
X137561124Y-82225582D01*
X137527077Y-82118398D01*
X137493189Y-81997461D01*
X137485146Y-81966112D01*
X137456666Y-81853644D01*
X137431967Y-81757844D01*
X137415138Y-81694510D01*
X137411852Y-81682897D01*
X137410288Y-81640684D01*
X137434149Y-81634437D01*
X137471335Y-81659282D01*
G37*
G36*
X137917983Y-75453360D02*
G01*
X137973221Y-75396465D01*
X138069777Y-75372180D01*
X138167467Y-75373645D01*
X138265536Y-75386247D01*
X138332007Y-75411088D01*
X138390727Y-75459022D01*
X138417905Y-75487661D01*
X138478369Y-75564678D01*
X138505271Y-75637406D01*
X138510389Y-75711754D01*
X138503138Y-75799640D01*
X138474924Y-75857189D01*
X138437326Y-75892402D01*
X138333450Y-75941213D01*
X138217639Y-75941134D01*
X138109921Y-75895729D01*
X138024556Y-75817648D01*
X137953406Y-75713820D01*
X137909036Y-75605279D01*
X137903650Y-75567403D01*
X137975676Y-75567403D01*
X137993525Y-75636513D01*
X138002105Y-75653953D01*
X138072546Y-75754711D01*
X138159260Y-75827205D01*
X138250873Y-75866224D01*
X138336010Y-75866559D01*
X138393926Y-75833410D01*
X138416273Y-75784852D01*
X138427030Y-75709974D01*
X138427201Y-75699597D01*
X138402865Y-75595455D01*
X138338123Y-75516157D01*
X138245373Y-75469590D01*
X138137012Y-75463648D01*
X138080067Y-75478672D01*
X138002788Y-75518693D01*
X137975676Y-75567403D01*
X137903650Y-75567403D01*
X137900487Y-75545164D01*
X137917983Y-75453360D01*
G37*
G36*
X133821330Y-81988137D02*
G01*
X133918540Y-81858400D01*
X134037108Y-81701299D01*
X134173874Y-81520946D01*
X134325680Y-81321456D01*
X134489366Y-81106941D01*
X134661773Y-80881516D01*
X134839741Y-80649293D01*
X135020112Y-80414386D01*
X135199727Y-80180908D01*
X135375425Y-79952972D01*
X135544049Y-79734693D01*
X135702439Y-79530184D01*
X135847435Y-79343557D01*
X135975879Y-79178926D01*
X136084611Y-79040406D01*
X136170473Y-78932108D01*
X136230304Y-78858147D01*
X136260947Y-78822636D01*
X136263658Y-78820260D01*
X136281125Y-78822940D01*
X136310842Y-78848047D01*
X136355098Y-78898732D01*
X136416181Y-78978149D01*
X136496381Y-79089449D01*
X136597986Y-79235787D01*
X136723284Y-79420315D01*
X136874565Y-79646185D01*
X136998066Y-79831969D01*
X137331607Y-80339751D01*
X137647331Y-80830190D01*
X137940180Y-81295321D01*
X138205096Y-81727174D01*
X138273979Y-81841715D01*
X138489348Y-82201570D01*
X138348919Y-82330694D01*
X138273430Y-82392386D01*
X138163181Y-82472103D01*
X138025270Y-82565582D01*
X137866793Y-82668557D01*
X137694848Y-82776764D01*
X137516532Y-82885938D01*
X137338942Y-82991814D01*
X137169174Y-83090127D01*
X137014326Y-83176613D01*
X136881495Y-83247007D01*
X136777778Y-83297043D01*
X136710273Y-83322458D01*
X136694677Y-83324770D01*
X136630295Y-83313060D01*
X136552799Y-83286323D01*
X136551162Y-83285615D01*
X136509026Y-83268523D01*
X136420293Y-83233478D01*
X136290111Y-83182486D01*
X136123627Y-83117549D01*
X135925988Y-83040672D01*
X135702341Y-82953857D01*
X135457833Y-82859108D01*
X135197612Y-82758429D01*
X135081511Y-82713559D01*
X134819131Y-82612121D01*
X134572679Y-82516712D01*
X134346939Y-82429191D01*
X134146698Y-82351420D01*
X133976737Y-82285260D01*
X133841842Y-82232573D01*
X133746797Y-82195218D01*
X133696387Y-82175058D01*
X133689437Y-82172026D01*
X133703619Y-82149064D01*
X133745564Y-82090672D01*
X133920658Y-82090672D01*
X133921220Y-82122265D01*
X133941247Y-82144999D01*
X133949081Y-82150904D01*
X134007414Y-82184017D01*
X134110603Y-82232411D01*
X134252050Y-82293614D01*
X134425158Y-82365151D01*
X134623327Y-82444547D01*
X134839961Y-82529327D01*
X135068461Y-82617017D01*
X135302229Y-82705143D01*
X135534667Y-82791230D01*
X135759178Y-82872804D01*
X135969162Y-82947389D01*
X136158022Y-83012513D01*
X136319161Y-83065699D01*
X136445979Y-83104473D01*
X136531880Y-83126361D01*
X136560665Y-83130352D01*
X136601375Y-83123824D01*
X136613389Y-83090976D01*
X136609072Y-83041630D01*
X136604855Y-82999365D01*
X136596648Y-82906528D01*
X136584838Y-82767831D01*
X136569815Y-82587986D01*
X136551964Y-82371708D01*
X136531675Y-82123708D01*
X136509334Y-81848700D01*
X136485331Y-81551396D01*
X136460051Y-81236509D01*
X136443094Y-81024327D01*
X136417198Y-80701273D01*
X136392271Y-80393304D01*
X136368702Y-80105061D01*
X136346882Y-79841183D01*
X136327202Y-79606310D01*
X136310053Y-79405084D01*
X136295827Y-79242144D01*
X136284912Y-79122130D01*
X136284901Y-79122019D01*
X136405058Y-79122019D01*
X136405153Y-79162758D01*
X136407320Y-79224901D01*
X136411742Y-79310904D01*
X136418605Y-79423224D01*
X136428092Y-79564317D01*
X136440388Y-79736639D01*
X136455678Y-79942648D01*
X136474146Y-80184799D01*
X136495976Y-80465549D01*
X136521354Y-80787355D01*
X136550463Y-81152673D01*
X136583488Y-81563959D01*
X136620613Y-82023671D01*
X136662024Y-82534263D01*
X136697651Y-82972307D01*
X136709054Y-83084585D01*
X136727164Y-83153651D01*
X136760813Y-83182900D01*
X136818830Y-83175726D01*
X136910046Y-83135526D01*
X137000171Y-83088601D01*
X137079467Y-83045019D01*
X137190663Y-82981808D01*
X137326189Y-82903464D01*
X137478475Y-82814488D01*
X137639954Y-82719378D01*
X137803055Y-82622630D01*
X137960210Y-82528745D01*
X138103850Y-82442221D01*
X138226406Y-82367555D01*
X138320308Y-82309246D01*
X138377988Y-82271792D01*
X138391549Y-82261694D01*
X138392489Y-82244063D01*
X138377821Y-82204369D01*
X138345847Y-82139721D01*
X138294870Y-82047227D01*
X138223192Y-81923995D01*
X138129117Y-81767133D01*
X138010946Y-81573749D01*
X137866981Y-81340952D01*
X137695526Y-81065849D01*
X137600138Y-80913410D01*
X137385028Y-80570191D01*
X137197356Y-80271221D01*
X137035256Y-80013667D01*
X136896862Y-79794693D01*
X136780309Y-79611464D01*
X136683732Y-79461147D01*
X136605264Y-79340905D01*
X136543041Y-79247905D01*
X136495195Y-79179311D01*
X136459863Y-79132289D01*
X136435178Y-79104003D01*
X136419274Y-79091620D01*
X136410287Y-79092304D01*
X136406849Y-79100227D01*
X136405058Y-79122019D01*
X136284901Y-79122019D01*
X136277701Y-79049684D01*
X136275151Y-79030137D01*
X136260946Y-78963131D01*
X136195842Y-79030137D01*
X136155262Y-79076764D01*
X136086593Y-79161086D01*
X135994981Y-79276398D01*
X135885569Y-79415999D01*
X135763503Y-79573184D01*
X135633928Y-79741250D01*
X135501988Y-79913493D01*
X135372828Y-80083212D01*
X135251594Y-80243701D01*
X135143431Y-80388259D01*
X135053482Y-80510181D01*
X134986894Y-80602765D01*
X134968718Y-80628959D01*
X134890054Y-80748761D01*
X134845745Y-80828466D01*
X134834995Y-80870872D01*
X134857008Y-80878776D01*
X134903210Y-80859222D01*
X134948444Y-80844242D01*
X134961044Y-80854995D01*
X134937620Y-80904583D01*
X134882277Y-80948221D01*
X134817406Y-80968740D01*
X134812537Y-80968868D01*
X134758596Y-80990941D01*
X134680627Y-81052326D01*
X134584733Y-81145777D01*
X134477014Y-81264046D01*
X134363573Y-81399885D01*
X134250510Y-81546048D01*
X134143928Y-81695285D01*
X134049928Y-81840350D01*
X133988072Y-81948183D01*
X133942097Y-82037038D01*
X133920658Y-82090672D01*
X133745564Y-82090672D01*
X133748636Y-82086396D01*
X133821330Y-81988137D01*
G37*
G36*
X140444079Y-81894158D02*
G01*
X140453994Y-81686064D01*
X140465097Y-81464592D01*
X140477017Y-81236556D01*
X140489383Y-81008770D01*
X140501826Y-80788046D01*
X140513974Y-80581198D01*
X140525458Y-80395040D01*
X140535905Y-80236384D01*
X140544947Y-80112045D01*
X140552212Y-80028835D01*
X140557329Y-79993569D01*
X140557688Y-79992962D01*
X140588536Y-79984521D01*
X140667881Y-79969190D01*
X140789332Y-79948026D01*
X140946501Y-79922088D01*
X141132999Y-79892434D01*
X141342436Y-79860122D01*
X141531495Y-79831688D01*
X142486771Y-79689661D01*
X143413574Y-79920258D01*
X144340376Y-80150855D01*
X144320524Y-81454130D01*
X144316138Y-81717777D01*
X144311320Y-81964310D01*
X144306231Y-82188217D01*
X144301028Y-82383984D01*
X144295872Y-82546096D01*
X144290920Y-82669040D01*
X144286332Y-82747302D01*
X144282441Y-82775256D01*
X144252938Y-82785339D01*
X144176656Y-82807011D01*
X144060637Y-82838473D01*
X143911922Y-82877927D01*
X143737549Y-82923575D01*
X143544561Y-82973619D01*
X143339997Y-83026260D01*
X143130898Y-83079701D01*
X142924304Y-83132142D01*
X142727257Y-83181786D01*
X142546796Y-83226834D01*
X142389963Y-83265487D01*
X142263796Y-83295949D01*
X142175338Y-83316420D01*
X142131629Y-83325102D01*
X142129057Y-83325274D01*
X142096370Y-83314828D01*
X142020268Y-83286041D01*
X141908497Y-83241984D01*
X141768801Y-83185725D01*
X141608923Y-83120336D01*
X141532878Y-83088924D01*
X141346504Y-83011637D01*
X141158317Y-82933478D01*
X140981026Y-82859733D01*
X140827337Y-82795688D01*
X140709960Y-82746631D01*
X140694068Y-82739968D01*
X140423708Y-82626532D01*
X140423708Y-82456490D01*
X140425166Y-82370040D01*
X140429295Y-82242959D01*
X140431048Y-82199080D01*
X140553368Y-82199080D01*
X140554649Y-82308315D01*
X140557746Y-82369196D01*
X140576219Y-82563301D01*
X140742594Y-82644871D01*
X140817336Y-82679331D01*
X140933471Y-82730156D01*
X141080918Y-82793062D01*
X141249598Y-82863766D01*
X141429432Y-82937987D01*
X141505149Y-82968887D01*
X142101328Y-83211333D01*
X142119188Y-82970505D01*
X142123602Y-82883838D01*
X142127785Y-82750439D01*
X142131586Y-82579031D01*
X142134852Y-82378342D01*
X142137433Y-82157095D01*
X142139176Y-81924017D01*
X142139744Y-81786881D01*
X142139884Y-81556539D01*
X142139481Y-81452728D01*
X142253839Y-81452728D01*
X142254468Y-81692102D01*
X142256244Y-81936266D01*
X142259001Y-82173477D01*
X142262571Y-82391994D01*
X142266789Y-82580078D01*
X142271487Y-82725986D01*
X142272130Y-82741388D01*
X142290422Y-83163991D01*
X142389980Y-83145819D01*
X142441533Y-83135083D01*
X142539495Y-83113447D01*
X142676274Y-83082636D01*
X142844277Y-83044374D01*
X143035910Y-83000385D01*
X143243579Y-82952393D01*
X143321415Y-82934326D01*
X143530036Y-82885744D01*
X143722652Y-82840696D01*
X143892229Y-82800844D01*
X144031732Y-82767848D01*
X144134127Y-82743367D01*
X144192381Y-82729062D01*
X144201819Y-82726539D01*
X144213338Y-82720174D01*
X144222882Y-82705376D01*
X144230636Y-82677349D01*
X144236785Y-82631302D01*
X144241512Y-82562440D01*
X144245001Y-82465969D01*
X144247438Y-82337095D01*
X144249007Y-82171025D01*
X144249890Y-81962966D01*
X144250274Y-81708122D01*
X144250345Y-81464258D01*
X144250243Y-81168523D01*
X144249816Y-80923562D01*
X144248877Y-80724689D01*
X144247244Y-80567218D01*
X144244732Y-80446464D01*
X144241157Y-80357742D01*
X144236335Y-80296367D01*
X144230080Y-80257653D01*
X144222210Y-80236915D01*
X144212539Y-80229468D01*
X144201819Y-80230349D01*
X144129446Y-80247454D01*
X144002902Y-80272857D01*
X143822835Y-80306439D01*
X143589889Y-80348082D01*
X143304710Y-80397667D01*
X143045662Y-80441911D01*
X142857148Y-80474109D01*
X142684087Y-80504062D01*
X142534892Y-80530282D01*
X142417979Y-80551282D01*
X142341761Y-80565574D01*
X142317769Y-80570625D01*
X142253839Y-80586671D01*
X142253839Y-81452728D01*
X142139481Y-81452728D01*
X142139035Y-81337900D01*
X142137302Y-81138695D01*
X142134790Y-80966658D01*
X142131603Y-80829519D01*
X142127843Y-80735012D01*
X142125105Y-80699788D01*
X142107771Y-80555489D01*
X141877404Y-80472133D01*
X141796126Y-80443907D01*
X141681290Y-80405627D01*
X141542024Y-80360174D01*
X141387453Y-80310431D01*
X141226705Y-80259279D01*
X141068907Y-80209600D01*
X140923186Y-80164277D01*
X140798669Y-80126191D01*
X140704482Y-80098223D01*
X140649754Y-80083257D01*
X140640396Y-80081532D01*
X140633453Y-80108087D01*
X140625622Y-80183076D01*
X140617157Y-80299487D01*
X140608311Y-80450307D01*
X140599338Y-80628525D01*
X140590491Y-80827128D01*
X140582023Y-81039103D01*
X140574188Y-81257438D01*
X140567239Y-81475121D01*
X140561429Y-81685139D01*
X140557011Y-81880479D01*
X140554240Y-82054131D01*
X140553368Y-82199080D01*
X140431048Y-82199080D01*
X140435722Y-82082061D01*
X140444079Y-81894158D01*
G37*
G36*
X134987611Y-82035076D02*
G01*
X135066302Y-81914578D01*
X135183887Y-81757880D01*
X135220362Y-81711744D01*
X135315528Y-81596161D01*
X135381055Y-81525601D01*
X135418193Y-81499025D01*
X135428192Y-81515396D01*
X135422022Y-81544250D01*
X135410978Y-81606504D01*
X135400708Y-81706357D01*
X135391981Y-81828354D01*
X135385566Y-81957039D01*
X135382234Y-82076957D01*
X135382755Y-82172652D01*
X135387897Y-82228668D01*
X135387928Y-82228791D01*
X135414892Y-82281666D01*
X135446834Y-82299873D01*
X135483662Y-82314232D01*
X135478279Y-82347055D01*
X135437838Y-82380172D01*
X135392605Y-82421283D01*
X135344050Y-82489081D01*
X135334480Y-82505930D01*
X135287937Y-82579641D01*
X135256257Y-82601141D01*
X135240234Y-82570175D01*
X135238336Y-82536876D01*
X135212612Y-82415488D01*
X135138043Y-82317266D01*
X135065146Y-82268666D01*
X134995369Y-82226028D01*
X134949580Y-82185044D01*
X134942951Y-82174072D01*
X134946315Y-82127993D01*
X135070301Y-82127993D01*
X135087689Y-82175092D01*
X135125407Y-82188956D01*
X135179665Y-82168416D01*
X135232626Y-82120594D01*
X135264451Y-82062396D01*
X135292460Y-81982403D01*
X135311834Y-81899984D01*
X135317754Y-81834509D01*
X135310372Y-81808080D01*
X135281062Y-81812391D01*
X135236140Y-81837985D01*
X135166858Y-81901999D01*
X135113629Y-81979581D01*
X135080195Y-82058868D01*
X135070301Y-82127993D01*
X134946315Y-82127993D01*
X134946824Y-82121025D01*
X134987611Y-82035076D01*
G37*
G36*
X138819541Y-77368732D02*
G01*
X138843140Y-77379792D01*
X138824683Y-77406248D01*
X138777584Y-77456353D01*
X138742480Y-77490453D01*
X138683667Y-77550818D01*
X138662414Y-77590303D01*
X138672426Y-77621970D01*
X138676552Y-77627237D01*
X138737745Y-77661524D01*
X138824496Y-77663237D01*
X138917463Y-77632357D01*
X138926328Y-77627493D01*
X139030189Y-77590436D01*
X139119748Y-77603327D01*
X139175803Y-77648134D01*
X139226198Y-77710370D01*
X139354297Y-77648134D01*
X139451511Y-77603983D01*
X139506344Y-77588050D01*
X139523973Y-77600029D01*
X139509968Y-77638879D01*
X139458265Y-77697256D01*
X139373834Y-77757183D01*
X139277364Y-77805294D01*
X139226696Y-77821870D01*
X139164515Y-77825616D01*
X139126302Y-77790623D01*
X139122220Y-77783344D01*
X139102296Y-77754981D01*
X139071883Y-77739583D01*
X139017939Y-77735028D01*
X138927423Y-77739198D01*
X138874601Y-77743100D01*
X138764772Y-77750451D01*
X138696200Y-77749943D01*
X138654935Y-77738996D01*
X138627026Y-77715027D01*
X138611664Y-77694430D01*
X138570107Y-77597962D01*
X138583409Y-77502647D01*
X138623318Y-77437128D01*
X138699857Y-77375954D01*
X138761965Y-77364065D01*
X138819541Y-77368732D01*
G37*
G36*
X150276985Y-74268596D02*
G01*
X150345473Y-74305039D01*
X150374210Y-74348155D01*
X150378511Y-74390431D01*
X150352544Y-74482851D01*
X150281105Y-74563455D01*
X150173884Y-74626135D01*
X150040573Y-74664784D01*
X149928094Y-74674327D01*
X149861344Y-74679215D01*
X149826204Y-74691338D01*
X149824581Y-74695124D01*
X149845412Y-74722283D01*
X149897776Y-74768358D01*
X149935498Y-74797495D01*
X150009008Y-74859046D01*
X150044899Y-74903089D01*
X150043222Y-74923651D01*
X150004027Y-74914756D01*
X149934843Y-74875399D01*
X149834596Y-74807584D01*
X149742010Y-74741632D01*
X149667089Y-74685058D01*
X149619840Y-74645376D01*
X149608885Y-74630561D01*
X149638868Y-74622284D01*
X149709555Y-74608986D01*
X149806724Y-74593300D01*
X149825090Y-74590550D01*
X149988185Y-74563183D01*
X150105686Y-74534970D01*
X150187406Y-74502741D01*
X150243163Y-74463326D01*
X150254203Y-74451969D01*
X150282564Y-74393852D01*
X150257909Y-74344441D01*
X150182400Y-74306868D01*
X150147829Y-74297851D01*
X150091346Y-74283145D01*
X150083942Y-74270288D01*
X150117542Y-74252234D01*
X150190249Y-74243033D01*
X150276985Y-74268596D01*
G37*
G36*
X143436667Y-75115211D02*
G01*
X143484386Y-75180028D01*
X143501673Y-75265554D01*
X143492601Y-75327364D01*
X143468034Y-75426322D01*
X143431962Y-75547651D01*
X143397688Y-75650374D01*
X143347652Y-75799944D01*
X143321064Y-75902861D01*
X143319815Y-75963573D01*
X143345797Y-75986526D01*
X143400902Y-75976166D01*
X143487022Y-75936939D01*
X143513731Y-75923084D01*
X143597274Y-75880034D01*
X143659390Y-75849702D01*
X143685676Y-75838956D01*
X143678449Y-75853715D01*
X143636332Y-75892517D01*
X143569547Y-75947146D01*
X143488316Y-76009388D01*
X143402862Y-76071028D01*
X143363379Y-76097966D01*
X143259656Y-76162781D01*
X143192119Y-76192889D01*
X143154734Y-76189540D01*
X143141467Y-76153987D01*
X143141175Y-76144056D01*
X143150496Y-76098964D01*
X143176096Y-76013082D01*
X143214423Y-75897413D01*
X143261931Y-75762960D01*
X143279821Y-75714174D01*
X143329847Y-75574357D01*
X143371846Y-75448040D01*
X143402229Y-75346708D01*
X143417407Y-75281847D01*
X143418467Y-75270427D01*
X143409204Y-75224418D01*
X143377381Y-75204623D01*
X143316954Y-75211819D01*
X143221874Y-75246786D01*
X143086096Y-75310301D01*
X143078168Y-75314221D01*
X142850018Y-75427259D01*
X142974799Y-75315049D01*
X143078401Y-75232175D01*
X143187698Y-75161503D01*
X143287893Y-75111453D01*
X143364194Y-75090445D01*
X143369783Y-75090266D01*
X143436667Y-75115211D01*
G37*
G36*
X146813545Y-81334502D02*
G01*
X146759967Y-81265100D01*
X146685982Y-81166010D01*
X146642169Y-81095035D01*
X146735563Y-81095035D01*
X146757874Y-81181948D01*
X146772481Y-81203089D01*
X146833816Y-81238895D01*
X146913665Y-81241911D01*
X146986269Y-81212746D01*
X147002948Y-81197635D01*
X147057447Y-81104175D01*
X147067591Y-81004062D01*
X147039553Y-80927072D01*
X146979056Y-80869849D01*
X146906612Y-80866072D01*
X146820758Y-80915715D01*
X146812226Y-80922886D01*
X146754638Y-81001935D01*
X146735563Y-81095035D01*
X146642169Y-81095035D01*
X146632890Y-81080003D01*
X146608204Y-81019585D01*
X146607332Y-81011069D01*
X146632533Y-80935587D01*
X146698032Y-80868196D01*
X146788670Y-80816352D01*
X146889290Y-80787512D01*
X146984735Y-80789131D01*
X147027283Y-80804484D01*
X147102468Y-80855153D01*
X147142043Y-80916254D01*
X147152956Y-81003759D01*
X147148001Y-81082040D01*
X147132493Y-81236805D01*
X147209596Y-81226503D01*
X147299371Y-81238055D01*
X147396858Y-81286369D01*
X147482057Y-81360170D01*
X147508831Y-81395235D01*
X147537006Y-81448278D01*
X147534706Y-81494317D01*
X147510756Y-81546884D01*
X147441513Y-81638540D01*
X147346557Y-81709703D01*
X147239416Y-81755627D01*
X147133616Y-81771566D01*
X147042683Y-81752775D01*
X147003001Y-81725018D01*
X146962293Y-81661429D01*
X146933204Y-81576152D01*
X146930561Y-81562334D01*
X146903004Y-81485903D01*
X147034331Y-81485903D01*
X147039444Y-81575208D01*
X147084377Y-81641962D01*
X147156281Y-81680981D01*
X147242309Y-81687082D01*
X147329610Y-81655085D01*
X147371147Y-81621766D01*
X147428423Y-81539024D01*
X147430834Y-81457833D01*
X147390684Y-81387963D01*
X147309460Y-81325814D01*
X147219054Y-81310306D01*
X147133320Y-81337633D01*
X147066110Y-81403987D01*
X147034331Y-81485903D01*
X146903004Y-81485903D01*
X146894209Y-81461509D01*
X146813545Y-81334502D01*
G37*
G36*
X147308774Y-75477386D02*
G01*
X147307101Y-75448105D01*
X147383751Y-75448105D01*
X147401875Y-75511055D01*
X147443857Y-75535093D01*
X147491113Y-75516859D01*
X147519153Y-75472577D01*
X147531373Y-75405883D01*
X147523929Y-75345614D01*
X147500278Y-75313313D01*
X147493415Y-75312100D01*
X147449113Y-75334414D01*
X147406287Y-75385498D01*
X147384116Y-75441567D01*
X147383751Y-75448105D01*
X147307101Y-75448105D01*
X147304051Y-75394746D01*
X147347792Y-75311533D01*
X147439021Y-75234508D01*
X147528818Y-75188642D01*
X147623976Y-75159618D01*
X147719546Y-75145891D01*
X147728501Y-75145724D01*
X147808503Y-75159963D01*
X147857210Y-75207611D01*
X147879759Y-75296062D01*
X147882878Y-75367868D01*
X147859504Y-75486487D01*
X147795564Y-75575287D01*
X147700331Y-75628777D01*
X147583079Y-75641464D01*
X147467509Y-75613904D01*
X147405960Y-75577877D01*
X147644323Y-75577877D01*
X147667244Y-75592061D01*
X147704374Y-75573158D01*
X147743764Y-75524773D01*
X147759511Y-75493231D01*
X147784911Y-75412156D01*
X147797723Y-75330154D01*
X147796922Y-75263956D01*
X147781480Y-75230293D01*
X147775728Y-75228912D01*
X147752823Y-75253585D01*
X147720382Y-75319413D01*
X147683688Y-75414110D01*
X147648026Y-75525387D01*
X147647559Y-75527002D01*
X147644323Y-75577877D01*
X147405960Y-75577877D01*
X147362935Y-75552693D01*
X147308774Y-75477386D01*
G37*
G36*
X148476484Y-82031620D02*
G01*
X148499669Y-82043723D01*
X148506472Y-82062831D01*
X148493050Y-82097791D01*
X148455557Y-82157449D01*
X148390150Y-82250653D01*
X148367645Y-82282104D01*
X148308744Y-82366847D01*
X148280037Y-82420895D01*
X148278501Y-82457962D01*
X148301118Y-82491767D01*
X148317707Y-82508907D01*
X148389527Y-82544933D01*
X148487197Y-82548281D01*
X148593993Y-82521809D01*
X148693188Y-82468373D01*
X148728394Y-82438738D01*
X148789437Y-82384911D01*
X148842151Y-82360467D01*
X148911347Y-82357306D01*
X148964595Y-82361624D01*
X149085299Y-82383780D01*
X149154980Y-82423377D01*
X149175897Y-82482476D01*
X149161010Y-82540681D01*
X149134205Y-82589516D01*
X149093800Y-82648930D01*
X149048553Y-82708165D01*
X149007225Y-82756463D01*
X148978576Y-82783067D01*
X148971364Y-82777219D01*
X148973243Y-82771270D01*
X149014506Y-82653176D01*
X149035975Y-82574584D01*
X149039530Y-82523951D01*
X149027052Y-82489730D01*
X149020508Y-82480993D01*
X148957291Y-82441463D01*
X148882683Y-82449136D01*
X148810053Y-82501593D01*
X148793249Y-82522125D01*
X148708520Y-82595129D01*
X148597144Y-82635633D01*
X148475893Y-82642942D01*
X148361537Y-82616359D01*
X148270846Y-82555189D01*
X148261292Y-82544196D01*
X148227659Y-82468897D01*
X148223114Y-82374080D01*
X148242621Y-82271742D01*
X148281142Y-82173880D01*
X148333642Y-82092491D01*
X148395083Y-82039572D01*
X148460429Y-82027121D01*
X148476484Y-82031620D01*
G37*
G36*
X132842473Y-77028063D02*
G01*
X132832488Y-76721935D01*
X132825020Y-76462864D01*
X132816511Y-76116541D01*
X132811709Y-75821901D01*
X132810767Y-75575281D01*
X132812305Y-75474014D01*
X132911321Y-75474014D01*
X132911976Y-75660067D01*
X132913665Y-75859097D01*
X132916274Y-76063073D01*
X132919692Y-76263962D01*
X132923809Y-76453734D01*
X132928513Y-76624357D01*
X132933691Y-76767798D01*
X132939233Y-76876027D01*
X132945028Y-76941012D01*
X132948108Y-76955058D01*
X132966259Y-76984542D01*
X132992567Y-76997717D01*
X133035939Y-76992613D01*
X133105283Y-76967261D01*
X133209507Y-76919692D01*
X133295313Y-76878292D01*
X133573625Y-76735593D01*
X133802855Y-76601551D01*
X133988016Y-76472604D01*
X134134123Y-76345190D01*
X134246189Y-76215747D01*
X134264821Y-76189501D01*
X134309932Y-76117081D01*
X134370679Y-76010567D01*
X134438300Y-75885668D01*
X134490150Y-75785644D01*
X134636748Y-75496634D01*
X134558294Y-75434077D01*
X134455728Y-75370593D01*
X134302446Y-75301906D01*
X134102793Y-75229434D01*
X133861115Y-75154600D01*
X133581757Y-75078822D01*
X133269065Y-75003522D01*
X133180103Y-74983594D01*
X132938136Y-74930208D01*
X132921252Y-75020204D01*
X132916663Y-75074033D01*
X132913553Y-75172965D01*
X132911809Y-75308970D01*
X132911321Y-75474014D01*
X132812305Y-75474014D01*
X132813838Y-75373020D01*
X132821076Y-75211454D01*
X132832636Y-75086923D01*
X132848671Y-74995763D01*
X132869334Y-74934313D01*
X132890505Y-74902851D01*
X132916676Y-74886076D01*
X132962001Y-74871406D01*
X133030427Y-74858595D01*
X133125898Y-74847399D01*
X133252359Y-74837573D01*
X133413757Y-74828872D01*
X133614037Y-74821051D01*
X133857143Y-74813866D01*
X134147022Y-74807071D01*
X134487618Y-74800422D01*
X134562768Y-74799078D01*
X135675737Y-74779421D01*
X135816878Y-74965864D01*
X135886148Y-75066017D01*
X135942637Y-75163562D01*
X135976148Y-75240486D01*
X135979455Y-75253000D01*
X135986653Y-75314817D01*
X135992595Y-75420067D01*
X135996859Y-75556730D01*
X135999020Y-75712786D01*
X135999130Y-75811226D01*
X135997611Y-75950497D01*
X135994171Y-76123875D01*
X135989101Y-76323593D01*
X135982691Y-76541883D01*
X135975234Y-76770976D01*
X135967021Y-77003103D01*
X135958342Y-77230497D01*
X135949490Y-77445389D01*
X135940755Y-77640010D01*
X135932429Y-77806592D01*
X135924802Y-77937367D01*
X135918168Y-78024567D01*
X135915167Y-78050364D01*
X135901326Y-78140484D01*
X134689427Y-78136046D01*
X134431804Y-78134899D01*
X134188437Y-78133425D01*
X133965557Y-78131691D01*
X133769396Y-78129762D01*
X133606184Y-78127704D01*
X133482151Y-78125583D01*
X133403529Y-78123465D01*
X133380476Y-78122198D01*
X133220663Y-78105816D01*
X133106973Y-78091672D01*
X133030205Y-78078177D01*
X132981157Y-78063744D01*
X132952744Y-78048375D01*
X132933093Y-78023577D01*
X132915742Y-77977174D01*
X132900381Y-77905290D01*
X132886695Y-77804052D01*
X132874374Y-77669585D01*
X132863104Y-77498014D01*
X132860861Y-77452743D01*
X132930628Y-77452743D01*
X132936571Y-77616353D01*
X132950560Y-77733488D01*
X132968336Y-77843909D01*
X132984910Y-77931918D01*
X132997669Y-77984215D01*
X133001438Y-77992523D01*
X133032047Y-77994283D01*
X133108653Y-77991000D01*
X133222108Y-77983509D01*
X133363262Y-77972644D01*
X133522967Y-77959243D01*
X133692074Y-77944139D01*
X133861434Y-77928170D01*
X134021899Y-77912169D01*
X134164319Y-77896973D01*
X134279546Y-77883417D01*
X134358431Y-77872337D01*
X134389322Y-77865781D01*
X134419312Y-77849782D01*
X134410511Y-77828938D01*
X134361592Y-77793464D01*
X134254839Y-77751237D01*
X134129166Y-77739351D01*
X134042053Y-77740689D01*
X133997704Y-77749544D01*
X133983474Y-77771085D01*
X133984914Y-77798344D01*
X133979444Y-77858832D01*
X133942932Y-77874383D01*
X133884122Y-77846598D01*
X133839677Y-77793047D01*
X133825571Y-77729048D01*
X133843599Y-77675572D01*
X133868006Y-77658189D01*
X133958512Y-77642171D01*
X134081853Y-77645145D01*
X134219365Y-77665517D01*
X134343834Y-77698760D01*
X134463016Y-77744049D01*
X134534016Y-77786122D01*
X134563232Y-77831596D01*
X134557062Y-77887090D01*
X134547854Y-77909825D01*
X134529430Y-77968957D01*
X134545384Y-78005813D01*
X134603249Y-78027540D01*
X134683751Y-78038726D01*
X134768070Y-78043279D01*
X134888974Y-78044656D01*
X135033948Y-78043265D01*
X135190479Y-78039514D01*
X135346051Y-78033809D01*
X135488150Y-78026559D01*
X135604261Y-78018170D01*
X135681871Y-78009051D01*
X135697797Y-78005715D01*
X135753648Y-77980869D01*
X135783378Y-77933063D01*
X135796445Y-77875181D01*
X135806660Y-77793206D01*
X135818513Y-77661919D01*
X135831625Y-77487428D01*
X135845615Y-77275841D01*
X135860104Y-77033268D01*
X135874711Y-76765818D01*
X135889058Y-76479598D01*
X135902764Y-76180719D01*
X135904959Y-76130113D01*
X135914903Y-75868246D01*
X135919711Y-75657376D01*
X135919111Y-75493252D01*
X135912830Y-75371626D01*
X135900596Y-75288249D01*
X135882136Y-75238872D01*
X135857177Y-75219246D01*
X135846476Y-75218652D01*
X135762516Y-75229101D01*
X135645151Y-75247461D01*
X135505740Y-75271545D01*
X135355643Y-75299164D01*
X135206221Y-75328129D01*
X135068835Y-75356251D01*
X134954844Y-75381343D01*
X134875608Y-75401215D01*
X134845688Y-75411448D01*
X134800629Y-75438745D01*
X134758467Y-75475576D01*
X134714570Y-75528898D01*
X134664306Y-75605666D01*
X134603044Y-75712836D01*
X134526152Y-75857362D01*
X134448741Y-76007548D01*
X134233606Y-76428210D01*
X134867685Y-77067387D01*
X135004066Y-77205440D01*
X135112372Y-77316252D01*
X135190746Y-77397819D01*
X135237329Y-77448136D01*
X135250266Y-77465196D01*
X135227697Y-77446996D01*
X135169013Y-77392705D01*
X134916426Y-77158156D01*
X134699557Y-76964774D01*
X134517642Y-76811954D01*
X134369917Y-76699093D01*
X134255617Y-76625587D01*
X134173979Y-76590834D01*
X134149785Y-76587646D01*
X134086853Y-76601709D01*
X133986875Y-76640461D01*
X133859265Y-76698746D01*
X133713434Y-76771408D01*
X133558794Y-76853291D01*
X133404756Y-76939239D01*
X133260733Y-77024097D01*
X133136137Y-77102708D01*
X133040379Y-77169917D01*
X132982871Y-77220567D01*
X132974733Y-77231355D01*
X132943514Y-77320963D01*
X132930628Y-77452743D01*
X132860861Y-77452743D01*
X132852575Y-77285465D01*
X132842473Y-77028063D01*
G37*
G36*
X145095434Y-75485908D02*
G01*
X145162868Y-75530772D01*
X145236009Y-75586634D01*
X145302589Y-75645290D01*
X145306353Y-75648960D01*
X145396878Y-75765804D01*
X145434153Y-75882307D01*
X145418629Y-75993131D01*
X145350760Y-76092939D01*
X145263156Y-76158902D01*
X145148678Y-76212745D01*
X145053518Y-76221891D01*
X144962385Y-76184973D01*
X144886403Y-76125264D01*
X144778412Y-76011091D01*
X144716644Y-75901132D01*
X144694446Y-75782887D01*
X144694117Y-75764077D01*
X144704555Y-75693907D01*
X144730621Y-75612795D01*
X144764618Y-75538556D01*
X144798848Y-75489005D01*
X144817519Y-75478475D01*
X144822055Y-75503897D01*
X144822075Y-75571320D01*
X144817674Y-75667476D01*
X144815969Y-75693377D01*
X144810200Y-75809716D01*
X144814069Y-75888346D01*
X144829917Y-75946536D01*
X144857109Y-75996894D01*
X144936810Y-76074940D01*
X145044143Y-76109713D01*
X145169193Y-76098754D01*
X145212108Y-76084893D01*
X145303389Y-76037745D01*
X145350085Y-75979603D01*
X145351855Y-75905873D01*
X145308359Y-75811959D01*
X145219258Y-75693266D01*
X145179762Y-75647846D01*
X145109494Y-75567479D01*
X145056238Y-75503489D01*
X145028714Y-75466469D01*
X145026764Y-75461995D01*
X145045977Y-75460248D01*
X145095434Y-75485908D01*
G37*
G36*
X136860232Y-81072423D02*
G01*
X136843990Y-81176619D01*
X136845028Y-81288955D01*
X136862330Y-81383786D01*
X136873606Y-81411123D01*
X136917893Y-81458067D01*
X136973870Y-81460739D01*
X137026092Y-81456808D01*
X137036387Y-81478051D01*
X137006776Y-81531665D01*
X136997572Y-81545013D01*
X136937267Y-81597930D01*
X136874206Y-81597586D01*
X136817358Y-81544924D01*
X136805752Y-81524831D01*
X136773205Y-81424468D01*
X136762543Y-81306268D01*
X136773089Y-81190962D01*
X136804169Y-81099285D01*
X136820370Y-81075925D01*
X136877294Y-81010462D01*
X136860232Y-81072423D01*
G37*
G36*
X149119693Y-76851935D02*
G01*
X149090487Y-76779838D01*
X149079590Y-76742236D01*
X149080225Y-76739789D01*
X149110171Y-76743465D01*
X149170771Y-76767574D01*
X149200840Y-76782170D01*
X149285892Y-76817141D01*
X149364013Y-76836093D01*
X149380575Y-76837209D01*
X149448103Y-76849368D01*
X149485629Y-76870484D01*
X149509076Y-76924829D01*
X149515917Y-77011667D01*
X149508573Y-77114369D01*
X149489466Y-77216307D01*
X149461015Y-77300853D01*
X149425643Y-77351377D01*
X149414776Y-77357180D01*
X149378803Y-77344233D01*
X149342158Y-77303396D01*
X149306348Y-77241587D01*
X149260534Y-77153352D01*
X149210378Y-77050876D01*
X149178280Y-76982167D01*
X149305625Y-76982167D01*
X149313000Y-77051721D01*
X149325006Y-77087270D01*
X149361291Y-77153075D01*
X149392652Y-77163729D01*
X149418882Y-77119212D01*
X149425407Y-77096345D01*
X149426849Y-77011977D01*
X149391949Y-76947617D01*
X149357494Y-76926674D01*
X149321463Y-76935512D01*
X149305625Y-76982167D01*
X149178280Y-76982167D01*
X149161544Y-76946342D01*
X149119693Y-76851935D01*
G37*
G36*
X146169172Y-80104224D02*
G01*
X146169990Y-80093692D01*
X146200740Y-80088459D01*
X146280640Y-80081155D01*
X146403429Y-80072105D01*
X146562851Y-80061633D01*
X146752647Y-80050064D01*
X146966559Y-80037720D01*
X147198329Y-80024927D01*
X147441698Y-80012008D01*
X147690409Y-79999287D01*
X147938203Y-79987090D01*
X148178822Y-79975739D01*
X148406008Y-79965559D01*
X148613503Y-79956875D01*
X148795049Y-79950009D01*
X148944387Y-79945288D01*
X149055260Y-79943033D01*
X149081662Y-79942886D01*
X149178264Y-79942886D01*
X149252943Y-80317162D01*
X149282122Y-80477939D01*
X149306903Y-80641743D01*
X149324723Y-80789757D01*
X149333024Y-80903166D01*
X149333114Y-80906408D01*
X149340038Y-81019252D01*
X149353151Y-81104331D01*
X149370332Y-81148177D01*
X149371334Y-81149108D01*
X149399297Y-81192992D01*
X149433139Y-81283110D01*
X149473308Y-81421150D01*
X149520251Y-81608798D01*
X149574416Y-81847741D01*
X149636250Y-82139666D01*
X149643540Y-82175091D01*
X149680657Y-82355061D01*
X149714885Y-82519434D01*
X149744383Y-82659494D01*
X149767309Y-82766523D01*
X149781823Y-82831807D01*
X149785094Y-82845151D01*
X149790662Y-82871068D01*
X149789895Y-82893879D01*
X149779144Y-82914081D01*
X149754761Y-82932173D01*
X149713098Y-82948653D01*
X149650507Y-82964020D01*
X149563338Y-82978773D01*
X149447943Y-82993408D01*
X149300674Y-83008426D01*
X149117883Y-83024324D01*
X148895921Y-83041601D01*
X148631139Y-83060755D01*
X148319890Y-83082284D01*
X147958524Y-83106687D01*
X147785826Y-83118254D01*
X147552073Y-83133839D01*
X147335268Y-83148191D01*
X147141755Y-83160900D01*
X146977877Y-83171551D01*
X146849981Y-83179734D01*
X146764409Y-83185035D01*
X146727507Y-83187044D01*
X146727050Y-83187050D01*
X146692159Y-83164418D01*
X146679053Y-83138683D01*
X146664925Y-83081216D01*
X146643769Y-82978445D01*
X146616594Y-82836406D01*
X146584409Y-82661132D01*
X146548224Y-82458660D01*
X146509046Y-82235024D01*
X146467885Y-81996259D01*
X146425750Y-81748401D01*
X146383650Y-81497483D01*
X146342594Y-81249542D01*
X146303590Y-81010612D01*
X146267648Y-80786728D01*
X146235776Y-80583925D01*
X146208984Y-80408238D01*
X146188280Y-80265702D01*
X146176708Y-80177809D01*
X146246852Y-80177809D01*
X146251590Y-80209416D01*
X146265048Y-80289244D01*
X146286091Y-80410935D01*
X146313586Y-80568134D01*
X146346396Y-80754485D01*
X146383389Y-80963632D01*
X146423428Y-81189218D01*
X146465380Y-81424889D01*
X146508110Y-81664287D01*
X146550484Y-81901057D01*
X146591367Y-82128843D01*
X146629624Y-82341288D01*
X146664121Y-82532038D01*
X146693724Y-82694734D01*
X146717297Y-82823023D01*
X146733706Y-82910547D01*
X146741818Y-82950951D01*
X146741957Y-82951510D01*
X146750401Y-82981256D01*
X146762254Y-83005961D01*
X146782031Y-83025743D01*
X146814245Y-83040722D01*
X146863410Y-83051019D01*
X146934040Y-83056754D01*
X147030649Y-83058045D01*
X147157751Y-83055013D01*
X147319859Y-83047778D01*
X147521488Y-83036459D01*
X147767151Y-83021176D01*
X148061363Y-83002049D01*
X148229494Y-82990989D01*
X148578836Y-82967321D01*
X148874615Y-82945822D01*
X149118676Y-82926325D01*
X149312863Y-82908660D01*
X149459024Y-82892660D01*
X149559002Y-82878156D01*
X149614644Y-82864981D01*
X149615775Y-82864555D01*
X149649854Y-82829388D01*
X149649350Y-82774251D01*
X149618455Y-82614514D01*
X149591865Y-82499069D01*
X149566131Y-82417294D01*
X149537805Y-82358566D01*
X149503437Y-82312264D01*
X149497031Y-82305173D01*
X149461660Y-82256369D01*
X149406120Y-82166926D01*
X149335476Y-82045591D01*
X149254788Y-81901111D01*
X149169119Y-81742235D01*
X149146985Y-81700281D01*
X149017153Y-81456601D01*
X148901546Y-81246852D01*
X148801954Y-81074012D01*
X148720167Y-80941055D01*
X148657974Y-80850959D01*
X148617167Y-80806699D01*
X148606999Y-80802493D01*
X148583192Y-80822910D01*
X148528648Y-80880588D01*
X148448110Y-80970161D01*
X148346322Y-81086267D01*
X148228029Y-81223543D01*
X148097975Y-81376624D01*
X148073547Y-81405604D01*
X147811022Y-81717090D01*
X147582319Y-81987700D01*
X147385866Y-82219251D01*
X147220088Y-82413564D01*
X147083414Y-82572455D01*
X146974270Y-82697744D01*
X146891082Y-82791248D01*
X146832278Y-82854785D01*
X146796284Y-82890175D01*
X146781528Y-82899235D01*
X146781412Y-82899134D01*
X146778893Y-82888945D01*
X146786267Y-82869034D01*
X146806343Y-82835805D01*
X146841932Y-82785661D01*
X146895844Y-82715007D01*
X146970889Y-82620246D01*
X147069878Y-82497780D01*
X147195621Y-82344015D01*
X147350929Y-82155353D01*
X147538611Y-81928198D01*
X147565830Y-81895295D01*
X147785126Y-81629811D01*
X147970639Y-81404241D01*
X148124342Y-81216106D01*
X148248206Y-81062926D01*
X148344205Y-80942220D01*
X148414309Y-80851509D01*
X148460491Y-80788312D01*
X148484723Y-80750151D01*
X148488977Y-80734545D01*
X148488915Y-80734485D01*
X148452828Y-80718224D01*
X148371258Y-80690706D01*
X148252477Y-80654318D01*
X148104756Y-80611450D01*
X147936367Y-80564487D01*
X147755579Y-80515818D01*
X147570666Y-80467831D01*
X147526685Y-80456705D01*
X147361088Y-80414200D01*
X147206457Y-80372976D01*
X147074003Y-80336136D01*
X146974938Y-80306788D01*
X146926219Y-80290387D01*
X146815301Y-80247256D01*
X146986598Y-80262596D01*
X147059968Y-80273430D01*
X147177805Y-80295988D01*
X147330844Y-80328261D01*
X147509821Y-80368239D01*
X147705473Y-80413913D01*
X147884575Y-80457344D01*
X148117959Y-80514173D01*
X148302447Y-80557192D01*
X148442618Y-80587292D01*
X148543050Y-80605364D01*
X148608323Y-80612301D01*
X148643014Y-80608995D01*
X148648218Y-80606076D01*
X148693512Y-80559249D01*
X148755660Y-80483390D01*
X148825417Y-80391310D01*
X148893535Y-80295824D01*
X148950770Y-80209745D01*
X148987876Y-80145885D01*
X148996708Y-80123126D01*
X148987740Y-80085589D01*
X148942448Y-80071691D01*
X148857749Y-80081869D01*
X148730564Y-80116560D01*
X148557812Y-80176201D01*
X148517721Y-80191088D01*
X148394768Y-80235315D01*
X148289506Y-80269721D01*
X148213396Y-80290789D01*
X148178372Y-80295194D01*
X148186798Y-80279000D01*
X148236057Y-80244775D01*
X148316983Y-80198479D01*
X148368140Y-80171814D01*
X148589974Y-80059498D01*
X148451328Y-80072733D01*
X148333833Y-80087699D01*
X148208784Y-80109008D01*
X148174035Y-80116134D01*
X148111518Y-80124016D01*
X148001278Y-80131763D01*
X147851051Y-80139071D01*
X147668571Y-80145636D01*
X147461575Y-80151156D01*
X147237797Y-80155329D01*
X147141120Y-80156601D01*
X146924751Y-80159418D01*
X146727242Y-80162614D01*
X146555131Y-80166035D01*
X146414953Y-80169526D01*
X146313247Y-80172931D01*
X146256548Y-80176095D01*
X146246852Y-80177809D01*
X146176708Y-80177809D01*
X146174673Y-80162352D01*
X146169172Y-80104224D01*
G37*
G36*
X143397478Y-81201216D02*
G01*
X143477984Y-81227179D01*
X143552049Y-81260972D01*
X143601777Y-81294869D01*
X143612572Y-81313463D01*
X143587309Y-81317597D01*
X143520847Y-81316549D01*
X143427180Y-81310571D01*
X143420210Y-81309995D01*
X143317769Y-81302784D01*
X143252799Y-81305391D01*
X143207576Y-81322214D01*
X143164377Y-81357650D01*
X143142917Y-81378798D01*
X143074738Y-81481155D01*
X143055920Y-81594898D01*
X143084382Y-81710699D01*
X143158038Y-81819233D01*
X143259814Y-81902095D01*
X143347412Y-81961103D01*
X143391769Y-82006031D01*
X143399120Y-82047852D01*
X143375702Y-82097542D01*
X143373115Y-82101532D01*
X143347936Y-82154826D01*
X143360197Y-82189604D01*
X143415702Y-82210341D01*
X143520256Y-82221514D01*
X143529384Y-82222043D01*
X143681895Y-82230579D01*
X143487791Y-82294429D01*
X143372158Y-82327722D01*
X143253161Y-82354126D01*
X143141491Y-82372364D01*
X143047838Y-82381157D01*
X142982892Y-82379227D01*
X142957344Y-82365297D01*
X142959551Y-82357570D01*
X142990518Y-82321036D01*
X143048628Y-82262108D01*
X143102564Y-82210975D01*
X143167661Y-82146567D01*
X143211856Y-82094413D01*
X143224363Y-82070450D01*
X143206655Y-82036955D01*
X143160426Y-81977332D01*
X143101431Y-81910773D01*
X143000999Y-81774425D01*
X142955786Y-81639925D01*
X142965765Y-81508399D01*
X143030914Y-81380976D01*
X143115072Y-81289584D01*
X143199117Y-81224418D01*
X143274249Y-81195254D01*
X143328427Y-81190806D01*
X143397478Y-81201216D01*
G37*
G36*
X135101556Y-80635524D02*
G01*
X135124003Y-80679422D01*
X135139189Y-80760075D01*
X135148251Y-80883609D01*
X135152325Y-81056153D01*
X135152385Y-81062375D01*
X135155149Y-81363851D01*
X135342159Y-81201021D01*
X135419384Y-81134235D01*
X135467986Y-81095325D01*
X135487615Y-81087662D01*
X135477921Y-81114617D01*
X135438557Y-81179564D01*
X135369171Y-81285872D01*
X135326711Y-81350146D01*
X135252861Y-81447770D01*
X135195144Y-81492927D01*
X135153824Y-81485435D01*
X135145850Y-81474927D01*
X135135551Y-81440722D01*
X135117371Y-81364157D01*
X135094062Y-81257302D01*
X135073268Y-81156617D01*
X135040400Y-80968594D01*
X135024417Y-80816928D01*
X135025339Y-80705919D01*
X135043188Y-80639862D01*
X135070711Y-80622253D01*
X135101556Y-80635524D01*
G37*
G36*
X147482397Y-77145147D02*
G01*
X147404031Y-76958228D01*
X147320348Y-76758336D01*
X147237364Y-76559859D01*
X148060971Y-76559859D01*
X148061041Y-76559916D01*
X148087086Y-76551468D01*
X148159075Y-76527601D01*
X148270372Y-76490527D01*
X148414341Y-76442462D01*
X148584345Y-76385618D01*
X148773748Y-76322210D01*
X148812386Y-76309266D01*
X149099765Y-76213754D01*
X149369920Y-76125468D01*
X149618352Y-76045785D01*
X149840563Y-75976079D01*
X150032054Y-75917724D01*
X150188327Y-75872095D01*
X150304882Y-75840567D01*
X150377221Y-75824516D01*
X150400473Y-75823945D01*
X150395773Y-75836519D01*
X150361479Y-75857217D01*
X150294150Y-75887357D01*
X150190343Y-75928254D01*
X150046617Y-75981226D01*
X149859530Y-76047588D01*
X149625642Y-76128659D01*
X149420492Y-76198867D01*
X149095885Y-76310246D01*
X148822523Y-76405672D01*
X148598731Y-76485777D01*
X148422835Y-76551191D01*
X148293158Y-76602546D01*
X148208025Y-76640474D01*
X148165762Y-76665606D01*
X148160170Y-76673887D01*
X148181746Y-76704278D01*
X148246699Y-76765433D01*
X148355373Y-76857632D01*
X148508107Y-76981158D01*
X148705245Y-77136289D01*
X148947126Y-77323307D01*
X148992048Y-77357777D01*
X149145834Y-77478028D01*
X149298684Y-77601776D01*
X149439730Y-77719915D01*
X149558101Y-77823337D01*
X149642927Y-77902935D01*
X149643686Y-77903698D01*
X149837791Y-78098890D01*
X149920978Y-78050468D01*
X149992969Y-78016922D01*
X150053405Y-78001989D01*
X150055648Y-78001941D01*
X150103895Y-77980514D01*
X150185845Y-77917116D01*
X150300317Y-77812891D01*
X150446127Y-77668980D01*
X150622093Y-77486526D01*
X150827032Y-77266669D01*
X150902897Y-77183825D01*
X151124673Y-76939069D01*
X151308582Y-76732648D01*
X151454403Y-76564816D01*
X151561917Y-76435830D01*
X151630904Y-76345946D01*
X151655711Y-76307263D01*
X151674607Y-76264561D01*
X151659933Y-76258222D01*
X151640449Y-76264824D01*
X151584470Y-76271433D01*
X151500191Y-76256847D01*
X151382680Y-76219492D01*
X151227003Y-76157793D01*
X151028226Y-76070176D01*
X151023187Y-76067880D01*
X150897333Y-76012277D01*
X150789885Y-75968184D01*
X150710596Y-75939352D01*
X150669222Y-75929532D01*
X150665928Y-75930505D01*
X150654201Y-75960733D01*
X150629686Y-76037534D01*
X150594422Y-76154042D01*
X150550449Y-76303393D01*
X150499809Y-76478719D01*
X150444540Y-76673155D01*
X150431784Y-76718449D01*
X150342021Y-77034414D01*
X150265124Y-77298019D01*
X150201173Y-77509028D01*
X150150241Y-77667208D01*
X150112406Y-77772322D01*
X150087745Y-77824137D01*
X150076333Y-77822418D01*
X150075553Y-77813414D01*
X150081803Y-77771265D01*
X150100369Y-77683109D01*
X150129360Y-77556543D01*
X150166884Y-77399168D01*
X150211049Y-77218583D01*
X150259966Y-77022388D01*
X150311741Y-76818182D01*
X150364484Y-76613564D01*
X150416304Y-76416135D01*
X150465308Y-76233494D01*
X150501256Y-76102983D01*
X150570856Y-75854018D01*
X150495481Y-75774641D01*
X150418367Y-75701567D01*
X150299377Y-75600806D01*
X150137697Y-75471723D01*
X149932514Y-75313685D01*
X149683017Y-75126055D01*
X149388392Y-74908199D01*
X149352529Y-74881875D01*
X149185717Y-74759040D01*
X149026823Y-74641150D01*
X148883460Y-74533922D01*
X148763244Y-74443075D01*
X148673786Y-74374323D01*
X148627720Y-74337613D01*
X148556650Y-74280862D01*
X148502694Y-74242080D01*
X148480726Y-74230659D01*
X148450373Y-74258280D01*
X148416976Y-74340889D01*
X148380610Y-74478101D01*
X148341355Y-74669534D01*
X148299288Y-74914805D01*
X148254486Y-75213529D01*
X148207026Y-75565325D01*
X148200386Y-75617122D01*
X148176167Y-75802793D01*
X148151685Y-75982743D01*
X148128659Y-76144893D01*
X148108807Y-76277164D01*
X148093848Y-76367477D01*
X148092873Y-76372744D01*
X148075877Y-76465767D01*
X148064454Y-76532775D01*
X148060971Y-76559859D01*
X147237364Y-76559859D01*
X147234012Y-76551843D01*
X147147684Y-76345121D01*
X147064029Y-76144542D01*
X146985708Y-75956479D01*
X146915384Y-75787305D01*
X146855721Y-75643392D01*
X146814986Y-75544694D01*
X146953948Y-75544694D01*
X146957828Y-75634197D01*
X146970729Y-75675921D01*
X146989296Y-75679573D01*
X147041487Y-75687263D01*
X147126718Y-75735572D01*
X147242410Y-75822609D01*
X147385984Y-75946483D01*
X147506827Y-76059000D01*
X147640983Y-76185482D01*
X147758099Y-76292590D01*
X147852618Y-76375455D01*
X147918981Y-76429208D01*
X147951632Y-76448982D01*
X147952031Y-76448999D01*
X147962533Y-76424431D01*
X147979523Y-76361215D01*
X147992703Y-76303421D01*
X148013568Y-76195195D01*
X148037787Y-76051385D01*
X148064442Y-75879237D01*
X148092616Y-75685995D01*
X148121393Y-75478905D01*
X148149856Y-75265212D01*
X148177089Y-75052163D01*
X148202174Y-74847002D01*
X148224196Y-74656975D01*
X148242237Y-74489328D01*
X148255380Y-74351305D01*
X148262710Y-74250153D01*
X148262943Y-74227963D01*
X148548623Y-74227963D01*
X148570374Y-74249821D01*
X148627598Y-74292316D01*
X148708626Y-74346865D01*
X148721930Y-74355440D01*
X148797767Y-74405809D01*
X148908622Y-74481780D01*
X149044583Y-74576444D01*
X149195739Y-74682891D01*
X149352178Y-74794213D01*
X149381633Y-74815310D01*
X149656464Y-75011362D01*
X149889550Y-75175322D01*
X150083255Y-75308716D01*
X150239946Y-75413068D01*
X150361986Y-75489904D01*
X150451739Y-75540747D01*
X150511571Y-75567124D01*
X150543846Y-75570557D01*
X150548283Y-75567598D01*
X150561854Y-75531822D01*
X150579670Y-75457696D01*
X150596755Y-75367558D01*
X150621855Y-75202191D01*
X150646439Y-75010499D01*
X150669026Y-74807312D01*
X150688138Y-74607460D01*
X150702293Y-74425772D01*
X150710012Y-74277078D01*
X150710995Y-74222856D01*
X150709011Y-74109714D01*
X150701192Y-74040408D01*
X150685260Y-74003428D01*
X150664684Y-73989210D01*
X150612625Y-73982351D01*
X150516337Y-73982344D01*
X150383100Y-73988369D01*
X150220192Y-73999604D01*
X150034893Y-74015229D01*
X149834481Y-74034421D01*
X149626235Y-74056360D01*
X149417434Y-74080225D01*
X149215357Y-74105193D01*
X149027283Y-74130445D01*
X148860490Y-74155158D01*
X148722258Y-74178512D01*
X148619865Y-74199684D01*
X148560590Y-74217855D01*
X148548623Y-74227963D01*
X148262943Y-74227963D01*
X148263309Y-74193116D01*
X148260912Y-74183511D01*
X148233220Y-74193069D01*
X148171821Y-74235587D01*
X148082918Y-74305516D01*
X147972714Y-74397307D01*
X147847411Y-74505412D01*
X147713211Y-74624281D01*
X147576317Y-74748365D01*
X147442930Y-74872116D01*
X147319253Y-74989984D01*
X147211490Y-75096420D01*
X147125841Y-75185876D01*
X147075007Y-75244484D01*
X147009468Y-75331264D01*
X146972956Y-75397490D01*
X146957206Y-75463658D01*
X146953948Y-75544694D01*
X146814986Y-75544694D01*
X146809380Y-75531111D01*
X146779025Y-75456837D01*
X146767328Y-75426978D01*
X146785659Y-75402430D01*
X146842043Y-75344328D01*
X146933005Y-75255879D01*
X147055072Y-75140288D01*
X147204771Y-75000760D01*
X147378628Y-74840503D01*
X147573169Y-74662722D01*
X147784921Y-74470622D01*
X148010411Y-74267411D01*
X148246164Y-74056293D01*
X148425033Y-73896997D01*
X148731490Y-73624727D01*
X149658985Y-73746731D01*
X149883468Y-73775937D01*
X150093726Y-73802679D01*
X150282581Y-73826092D01*
X150442859Y-73845308D01*
X150567381Y-73859463D01*
X150648972Y-73867690D01*
X150676201Y-73869457D01*
X150727816Y-73874724D01*
X150765967Y-73897235D01*
X150802886Y-73948562D01*
X150845501Y-74029622D01*
X150903729Y-74153342D01*
X150980306Y-74327771D01*
X151074646Y-74551494D01*
X151186163Y-74823092D01*
X151314271Y-75141150D01*
X151458384Y-75504250D01*
X151518080Y-75655926D01*
X151789234Y-76346369D01*
X151243316Y-76926079D01*
X151097410Y-77081386D01*
X150959231Y-77229164D01*
X150834739Y-77362983D01*
X150729899Y-77476413D01*
X150650672Y-77563023D01*
X150603020Y-77616382D01*
X150600345Y-77619497D01*
X150538563Y-77686279D01*
X150453481Y-77770743D01*
X150353660Y-77865237D01*
X150247660Y-77962112D01*
X150144041Y-78053716D01*
X150051365Y-78132400D01*
X149978191Y-78190513D01*
X149933081Y-78220405D01*
X149925279Y-78222783D01*
X149892228Y-78215989D01*
X149811293Y-78196967D01*
X149688340Y-78167164D01*
X149529232Y-78128024D01*
X149339833Y-78080992D01*
X149126005Y-78027515D01*
X148893615Y-77969039D01*
X148800202Y-77945439D01*
X148563382Y-77885413D01*
X148343924Y-77829541D01*
X148147516Y-77779290D01*
X147979846Y-77736124D01*
X147846600Y-77701511D01*
X147753465Y-77676916D01*
X147706128Y-77663807D01*
X147701286Y-77662102D01*
X147689443Y-77635638D01*
X147658969Y-77564338D01*
X147612529Y-77454574D01*
X147589803Y-77400615D01*
X147799690Y-77400615D01*
X147811639Y-77509900D01*
X147849763Y-77580445D01*
X147852375Y-77583125D01*
X147921743Y-77627864D01*
X148032075Y-77671089D01*
X148168941Y-77708543D01*
X148317916Y-77735971D01*
X148402801Y-77745494D01*
X148498854Y-77751376D01*
X148551769Y-77747498D01*
X148573325Y-77731819D01*
X148576109Y-77715453D01*
X148551438Y-77665779D01*
X148489650Y-77628060D01*
X148411557Y-77613628D01*
X148365542Y-77600881D01*
X148354275Y-77582248D01*
X148376923Y-77561335D01*
X148435343Y-77561084D01*
X148515252Y-77578283D01*
X148602363Y-77609719D01*
X148682392Y-77652182D01*
X148690956Y-77657945D01*
X148764440Y-77718886D01*
X148790110Y-77768686D01*
X148788583Y-77785075D01*
X148791134Y-77818130D01*
X148826017Y-77844722D01*
X148903681Y-77872210D01*
X148918394Y-77876500D01*
X149114499Y-77929956D01*
X149295461Y-77973805D01*
X149450735Y-78005778D01*
X149569778Y-78023607D01*
X149615957Y-78026562D01*
X149726874Y-78027573D01*
X149643686Y-77956715D01*
X149578675Y-77904033D01*
X149476759Y-77824731D01*
X149345920Y-77724757D01*
X149194142Y-77610059D01*
X149029406Y-77486586D01*
X148859696Y-77360284D01*
X148692996Y-77237102D01*
X148537287Y-77122988D01*
X148400553Y-77023890D01*
X148290778Y-76945755D01*
X148236280Y-76908092D01*
X148128060Y-76835633D01*
X148056000Y-76790976D01*
X148010625Y-76770409D01*
X147982457Y-76770224D01*
X147962021Y-76786711D01*
X147953662Y-76797447D01*
X147920077Y-76863649D01*
X147883926Y-76967842D01*
X147849557Y-77092992D01*
X147821320Y-77222065D01*
X147803561Y-77338026D01*
X147799690Y-77400615D01*
X147589803Y-77400615D01*
X147552784Y-77312720D01*
X147482397Y-77145147D01*
G37*
G36*
X137331838Y-77374627D02*
G01*
X137327864Y-77222763D01*
X137327684Y-77094533D01*
X137392750Y-77094533D01*
X137500969Y-77074897D01*
X137572710Y-77057875D01*
X137680347Y-77027537D01*
X137807364Y-76988692D01*
X137898690Y-76959104D01*
X138049786Y-76903583D01*
X138223321Y-76831577D01*
X138393564Y-76754089D01*
X138488645Y-76706839D01*
X138636658Y-76626500D01*
X138750871Y-76554381D01*
X138848801Y-76477673D01*
X138947965Y-76383568D01*
X138989767Y-76340422D01*
X139111535Y-76204839D01*
X139233994Y-76054274D01*
X139351627Y-75897021D01*
X139458916Y-75741372D01*
X139550346Y-75595617D01*
X139620399Y-75468049D01*
X139663559Y-75366961D01*
X139675018Y-75310458D01*
X139661810Y-75277976D01*
X139615919Y-75248327D01*
X139527937Y-75216161D01*
X139487845Y-75204018D01*
X139375416Y-75173036D01*
X139227569Y-75135336D01*
X139052454Y-75092718D01*
X138858216Y-75046985D01*
X138653003Y-74999940D01*
X138444962Y-74953385D01*
X138242240Y-74909121D01*
X138052985Y-74868951D01*
X137885344Y-74834677D01*
X137747463Y-74808101D01*
X137647491Y-74791026D01*
X137594642Y-74785244D01*
X137544432Y-74809708D01*
X137526866Y-74847635D01*
X137521493Y-74892019D01*
X137513685Y-74985000D01*
X137503862Y-75119788D01*
X137492444Y-75289595D01*
X137479851Y-75487632D01*
X137466502Y-75707111D01*
X137452818Y-75941243D01*
X137439219Y-76183239D01*
X137426124Y-76426311D01*
X137413954Y-76663670D01*
X137411692Y-76709375D01*
X137392750Y-77094533D01*
X137327684Y-77094533D01*
X137327596Y-77032040D01*
X137330706Y-76810672D01*
X137336865Y-76566873D01*
X137345745Y-76308857D01*
X137357017Y-76044838D01*
X137370352Y-75783031D01*
X137385423Y-75531648D01*
X137401901Y-75298904D01*
X137419457Y-75093013D01*
X137437763Y-74922188D01*
X137444044Y-74873951D01*
X137464780Y-74787496D01*
X137501353Y-74741680D01*
X137520979Y-74731978D01*
X137579687Y-74719260D01*
X137686677Y-74705522D01*
X137834790Y-74691141D01*
X138016867Y-74676488D01*
X138225751Y-74661940D01*
X138454280Y-74647871D01*
X138695298Y-74634654D01*
X138941645Y-74622663D01*
X139186162Y-74612275D01*
X139421690Y-74603861D01*
X139641070Y-74597798D01*
X139837144Y-74594459D01*
X140002752Y-74594218D01*
X140110473Y-74596583D01*
X140246825Y-74602464D01*
X140342067Y-74610115D01*
X140410519Y-74623109D01*
X140466501Y-74645024D01*
X140524331Y-74679435D01*
X140572094Y-74711848D01*
X140621933Y-74744383D01*
X140664418Y-74771049D01*
X140699968Y-74796303D01*
X140729007Y-74824603D01*
X140751956Y-74860406D01*
X140769235Y-74908170D01*
X140781267Y-74972353D01*
X140788474Y-75057411D01*
X140791276Y-75167802D01*
X140790096Y-75307983D01*
X140785354Y-75482413D01*
X140777474Y-75695548D01*
X140766875Y-75951846D01*
X140753980Y-76255765D01*
X140743002Y-76518937D01*
X140730935Y-76811934D01*
X140719516Y-77087947D01*
X140708953Y-77342078D01*
X140699452Y-77569430D01*
X140691217Y-77765106D01*
X140684457Y-77924208D01*
X140679375Y-78041838D01*
X140676179Y-78113100D01*
X140675099Y-78133552D01*
X140646857Y-78136568D01*
X140566287Y-78137718D01*
X140436487Y-78137055D01*
X140260555Y-78134629D01*
X140041588Y-78130492D01*
X139782683Y-78124693D01*
X139486940Y-78117285D01*
X139175891Y-78108837D01*
X138818848Y-78098058D01*
X138513746Y-78087126D01*
X138257065Y-78075790D01*
X138045289Y-78063798D01*
X137874897Y-78050901D01*
X137742373Y-78036848D01*
X137644197Y-78021388D01*
X137576852Y-78004271D01*
X137549549Y-77992981D01*
X137479393Y-77936262D01*
X137423645Y-77843071D01*
X137379942Y-77707621D01*
X137345921Y-77524124D01*
X137343251Y-77504476D01*
X137405659Y-77504476D01*
X137410251Y-77561009D01*
X137426558Y-77653904D01*
X137454736Y-77731596D01*
X137499568Y-77795687D01*
X137565836Y-77847783D01*
X137658322Y-77889487D01*
X137781808Y-77922403D01*
X137941077Y-77948135D01*
X138140911Y-77968288D01*
X138386092Y-77984465D01*
X138681403Y-77998270D01*
X138718358Y-77999761D01*
X138958219Y-78007999D01*
X139202629Y-78013992D01*
X139445008Y-78017791D01*
X139678781Y-78019445D01*
X139897369Y-78019005D01*
X140094194Y-78016521D01*
X140262680Y-78012044D01*
X140396248Y-78005625D01*
X140488322Y-77997313D01*
X140532322Y-77987160D01*
X140534043Y-77985837D01*
X140548821Y-77947081D01*
X140565122Y-77866088D01*
X140580652Y-77755949D01*
X140589977Y-77666950D01*
X140598640Y-77551183D01*
X140607573Y-77395921D01*
X140616575Y-77208398D01*
X140625445Y-76995847D01*
X140633980Y-76765502D01*
X140641980Y-76524595D01*
X140649244Y-76280360D01*
X140655569Y-76040031D01*
X140660755Y-75810840D01*
X140664600Y-75600021D01*
X140666903Y-75414807D01*
X140667463Y-75262432D01*
X140666078Y-75150129D01*
X140662546Y-75085131D01*
X140661968Y-75080847D01*
X140647648Y-75001289D01*
X140630202Y-74964452D01*
X140599605Y-74958030D01*
X140567214Y-74964505D01*
X140456162Y-75001868D01*
X140319057Y-75063419D01*
X140172075Y-75140251D01*
X140031390Y-75223457D01*
X139913177Y-75304130D01*
X139843418Y-75363081D01*
X139772044Y-75449562D01*
X139687730Y-75575361D01*
X139597441Y-75728030D01*
X139508140Y-75895122D01*
X139426789Y-76064191D01*
X139360353Y-76222788D01*
X139356041Y-76234249D01*
X139306887Y-76366115D01*
X139405811Y-76515105D01*
X139453485Y-76581773D01*
X139529620Y-76682104D01*
X139627199Y-76807133D01*
X139739208Y-76947894D01*
X139858630Y-77095423D01*
X139888508Y-77131929D01*
X140059580Y-77340821D01*
X140198095Y-77510979D01*
X140306948Y-77646313D01*
X140389033Y-77750736D01*
X140447245Y-77828160D01*
X140484480Y-77882498D01*
X140503633Y-77917661D01*
X140507599Y-77937561D01*
X140499272Y-77946110D01*
X140491914Y-77947321D01*
X140470146Y-77927438D01*
X140418840Y-77871638D01*
X140343925Y-77786637D01*
X140251328Y-77679155D01*
X140155493Y-77566044D01*
X139991903Y-77372783D01*
X139833335Y-77187832D01*
X139684007Y-77015925D01*
X139548135Y-76861791D01*
X139429936Y-76730163D01*
X139333625Y-76625773D01*
X139263419Y-76553352D01*
X139223535Y-76517631D01*
X139218947Y-76515047D01*
X139196628Y-76512973D01*
X139158703Y-76519842D01*
X139101532Y-76537181D01*
X139021471Y-76566517D01*
X138914878Y-76609376D01*
X138778111Y-76667284D01*
X138607526Y-76741769D01*
X138399483Y-76834357D01*
X138150337Y-76946574D01*
X137856447Y-77079948D01*
X137687605Y-77156860D01*
X137550878Y-77229615D01*
X137462679Y-77305439D01*
X137416457Y-77393877D01*
X137405659Y-77504476D01*
X137343251Y-77504476D01*
X137339847Y-77479419D01*
X137331838Y-77374627D01*
G37*
G36*
X140134206Y-76084733D02*
G01*
X140139705Y-76128908D01*
X140146744Y-76221028D01*
X140154565Y-76336514D01*
X140167659Y-76511987D01*
X140180597Y-76638129D01*
X140194415Y-76721054D01*
X140210149Y-76766877D01*
X140228834Y-76781712D01*
X140229985Y-76781750D01*
X140261926Y-76765280D01*
X140320696Y-76722885D01*
X140369338Y-76683789D01*
X140447867Y-76622319D01*
X140489910Y-76598312D01*
X140496822Y-76608688D01*
X140469956Y-76650364D01*
X140410666Y-76720260D01*
X140320308Y-76815296D01*
X140304591Y-76831097D01*
X140090957Y-77044731D01*
X140094198Y-76712204D01*
X140097111Y-76560060D01*
X140102464Y-76407791D01*
X140109428Y-76275440D01*
X140115394Y-76199436D01*
X140123206Y-76124041D01*
X140129092Y-76084458D01*
X140134206Y-76084733D01*
G37*
G36*
X148832172Y-75448331D02*
G01*
X148852118Y-75463449D01*
X148887636Y-75505663D01*
X148903928Y-75557881D01*
X148900613Y-75630656D01*
X148877309Y-75734537D01*
X148837511Y-75867849D01*
X148806652Y-75971495D01*
X148785795Y-76053425D01*
X148778097Y-76100668D01*
X148779295Y-76106843D01*
X148809002Y-76102518D01*
X148872159Y-76077700D01*
X148932911Y-76048789D01*
X149036339Y-76001429D01*
X149108307Y-75978831D01*
X149143584Y-75981726D01*
X149136936Y-76010842D01*
X149128817Y-76021459D01*
X149082700Y-76058849D01*
X149004395Y-76106714D01*
X148911365Y-76156080D01*
X148821074Y-76197971D01*
X148750984Y-76223414D01*
X148728541Y-76227165D01*
X148681669Y-76204700D01*
X148669158Y-76185138D01*
X148669742Y-76140891D01*
X148685177Y-76058981D01*
X148712419Y-75954237D01*
X148725487Y-75910719D01*
X148758728Y-75795907D01*
X148783938Y-75693232D01*
X148797000Y-75620041D01*
X148797943Y-75605260D01*
X148779314Y-75537926D01*
X148727906Y-75511934D01*
X148650443Y-75529697D01*
X148624651Y-75543040D01*
X148547130Y-75581266D01*
X148505417Y-75584193D01*
X148492922Y-75552275D01*
X148492922Y-75552096D01*
X148517260Y-75490662D01*
X148579508Y-75445581D01*
X148663511Y-75420842D01*
X148753117Y-75420430D01*
X148832172Y-75448331D01*
G37*
G36*
X149102493Y-75223890D02*
G01*
X149128872Y-75202158D01*
X149195554Y-75177490D01*
X149257555Y-75185583D01*
X149329822Y-75230767D01*
X149382186Y-75275547D01*
X149465646Y-75364488D01*
X149536859Y-75464687D01*
X149585679Y-75559839D01*
X149602092Y-75628917D01*
X149584828Y-75673579D01*
X149541195Y-75738177D01*
X149516032Y-75768668D01*
X149429957Y-75843836D01*
X149351676Y-75864169D01*
X149280870Y-75829692D01*
X149247121Y-75790429D01*
X149164648Y-75654440D01*
X149107058Y-75520387D01*
X149076242Y-75397674D01*
X149074820Y-75330315D01*
X149127200Y-75330315D01*
X149132639Y-75384588D01*
X149164699Y-75473157D01*
X149197548Y-75548248D01*
X149268247Y-75681192D01*
X149335408Y-75758863D01*
X149399115Y-75781326D01*
X149457900Y-75750222D01*
X149492016Y-75680720D01*
X149488623Y-75591388D01*
X149455019Y-75495074D01*
X149398503Y-75404625D01*
X149326373Y-75332889D01*
X149245929Y-75292713D01*
X149195973Y-75289182D01*
X149148330Y-75301469D01*
X149127200Y-75330315D01*
X149074820Y-75330315D01*
X149074090Y-75295707D01*
X149102493Y-75223890D01*
G37*
G36*
X133083861Y-75869938D02*
G01*
X133126164Y-75801659D01*
X133199142Y-75766527D01*
X133295583Y-75757067D01*
X133388984Y-75774889D01*
X133409938Y-75784424D01*
X133461628Y-75833309D01*
X133513932Y-75914595D01*
X133555343Y-76006564D01*
X133574351Y-76087499D01*
X133574581Y-76095109D01*
X133556276Y-76175194D01*
X133510743Y-76243204D01*
X133452049Y-76280323D01*
X133434362Y-76282624D01*
X133398448Y-76280021D01*
X133401426Y-76263376D01*
X133435935Y-76227165D01*
X133466894Y-76177393D01*
X133486939Y-76111796D01*
X133493043Y-76049725D01*
X133482179Y-76010531D01*
X133470596Y-76005514D01*
X133435615Y-76019649D01*
X133376849Y-76054110D01*
X133366612Y-76060790D01*
X133293927Y-76098512D01*
X133229382Y-76115932D01*
X133225331Y-76116066D01*
X133153565Y-76092483D01*
X133102536Y-76032414D01*
X133097250Y-76015547D01*
X133181248Y-76015547D01*
X133210802Y-76036423D01*
X133266898Y-76021431D01*
X133340143Y-75964998D01*
X133395518Y-75897184D01*
X133402450Y-75850233D01*
X133362279Y-75819592D01*
X133308966Y-75827943D01*
X133239239Y-75888291D01*
X133236690Y-75891126D01*
X133186967Y-75965036D01*
X133181248Y-76015547D01*
X133097250Y-76015547D01*
X133077537Y-75952640D01*
X133083861Y-75869938D01*
G37*
G36*
X149777483Y-76639634D02*
G01*
X149811779Y-76702802D01*
X149849649Y-76790463D01*
X149885258Y-76888204D01*
X149912773Y-76981608D01*
X149924636Y-77040495D01*
X149932378Y-77116147D01*
X149932088Y-77162777D01*
X149928534Y-77169960D01*
X149910955Y-77146751D01*
X149878780Y-77086204D01*
X149842947Y-77010102D01*
X149803941Y-76911553D01*
X149772031Y-76809827D01*
X149750213Y-76718009D01*
X149741482Y-76649186D01*
X149748833Y-76616443D01*
X149752593Y-76615375D01*
X149777483Y-76639634D01*
G37*
G36*
X143813979Y-77274892D02*
G01*
X143852171Y-77153585D01*
X143880163Y-77092383D01*
X144005539Y-77092383D01*
X144018307Y-77134163D01*
X144031403Y-77144605D01*
X144079925Y-77158969D01*
X144157374Y-77167100D01*
X144244104Y-77168810D01*
X144320467Y-77163914D01*
X144366816Y-77152224D01*
X144371661Y-77147839D01*
X144372171Y-77105296D01*
X144330821Y-77065709D01*
X144261117Y-77035217D01*
X144176567Y-77019956D01*
X144099552Y-77024199D01*
X144035236Y-77051107D01*
X144005539Y-77092383D01*
X143880163Y-77092383D01*
X143900273Y-77048413D01*
X143955227Y-76972486D01*
X143987371Y-76947883D01*
X144075632Y-76925611D01*
X144176127Y-76929291D01*
X144320495Y-76960216D01*
X144413952Y-77008522D01*
X144459284Y-77077719D01*
X144459276Y-77171318D01*
X144433593Y-77253716D01*
X144404774Y-77345869D01*
X144389653Y-77433488D01*
X144388991Y-77449637D01*
X144372351Y-77557213D01*
X144318078Y-77627788D01*
X144229222Y-77667719D01*
X144112345Y-77689722D01*
X143992772Y-77695300D01*
X143889281Y-77684838D01*
X143821450Y-77659315D01*
X143789432Y-77604546D01*
X143779552Y-77513481D01*
X143780222Y-77505159D01*
X143841413Y-77505159D01*
X143841815Y-77564439D01*
X143881161Y-77594035D01*
X143882932Y-77594514D01*
X143960808Y-77605595D01*
X144064937Y-77609637D01*
X144168222Y-77606516D01*
X144243413Y-77596151D01*
X144295319Y-77564045D01*
X144297593Y-77510392D01*
X144250727Y-77437374D01*
X144194807Y-77381156D01*
X144097447Y-77306653D01*
X144019786Y-77281465D01*
X143954910Y-77306251D01*
X143895903Y-77381672D01*
X143879869Y-77411214D01*
X143841413Y-77505159D01*
X143780222Y-77505159D01*
X143788754Y-77399226D01*
X143813979Y-77274892D01*
G37*
G36*
X150973065Y-76758139D02*
G01*
X151029872Y-76809190D01*
X151080139Y-76871849D01*
X151090143Y-76906741D01*
X151062919Y-76907853D01*
X151001504Y-76869169D01*
X151000140Y-76868099D01*
X150924712Y-76821501D01*
X150857975Y-76816652D01*
X150783755Y-76854999D01*
X150737944Y-76891541D01*
X150666024Y-76947816D01*
X150622894Y-76971359D01*
X150613071Y-76961721D01*
X150641075Y-76918453D01*
X150656874Y-76899600D01*
X150755133Y-76796510D01*
X150834982Y-76739927D01*
X150904824Y-76727816D01*
X150973065Y-76758139D01*
G37*
G36*
X142237668Y-77510924D02*
G01*
X142215181Y-77417068D01*
X142191220Y-77333587D01*
X142121884Y-77237229D01*
X142101328Y-77214816D01*
X142046509Y-77147147D01*
X141973714Y-77043564D01*
X141891477Y-76916867D01*
X141808329Y-76779856D01*
X141787822Y-76744486D01*
X141585233Y-76391414D01*
X141800414Y-75974660D01*
X141941873Y-75974660D01*
X141970754Y-75997123D01*
X142034783Y-76048605D01*
X142126289Y-76122883D01*
X142237596Y-76213734D01*
X142325262Y-76285565D01*
X142504442Y-76431412D01*
X142647400Y-76544607D01*
X142759730Y-76628930D01*
X142847026Y-76688162D01*
X142914878Y-76726081D01*
X142968882Y-76746468D01*
X143014629Y-76753102D01*
X143017117Y-76753144D01*
X143068091Y-76741859D01*
X143150661Y-76705998D01*
X143268380Y-76643696D01*
X143424798Y-76553086D01*
X143599432Y-76447125D01*
X143749907Y-76354534D01*
X143885676Y-76271115D01*
X143999173Y-76201508D01*
X144082829Y-76150354D01*
X144129076Y-76122290D01*
X144134469Y-76119100D01*
X144145371Y-76102811D01*
X144150251Y-76065695D01*
X144148632Y-76001572D01*
X144140041Y-75904264D01*
X144124003Y-75767593D01*
X144100044Y-75585381D01*
X144085084Y-75476269D01*
X144059341Y-75291357D01*
X144035209Y-75120130D01*
X144014021Y-74971886D01*
X143997110Y-74855923D01*
X143985810Y-74781539D01*
X143982972Y-74764447D01*
X143966881Y-74674327D01*
X142559092Y-74674327D01*
X142237977Y-75316090D01*
X142152517Y-75489357D01*
X142077529Y-75646181D01*
X142016030Y-75779855D01*
X141971036Y-75883669D01*
X141945563Y-75950914D01*
X141941873Y-75974660D01*
X141800414Y-75974660D01*
X141867451Y-75844825D01*
X142021794Y-75550836D01*
X142169023Y-75280057D01*
X142306259Y-75037398D01*
X142430624Y-74827768D01*
X142539240Y-74656078D01*
X142629229Y-74527238D01*
X142669344Y-74476883D01*
X142743477Y-74396678D01*
X142815840Y-74337434D01*
X142896919Y-74295662D01*
X142997204Y-74267873D01*
X143127183Y-74250579D01*
X143297343Y-74240291D01*
X143390542Y-74236995D01*
X143581216Y-74234505D01*
X143796802Y-74237064D01*
X144009865Y-74244080D01*
X144181022Y-74254035D01*
X144384524Y-74271905D01*
X144559096Y-74295032D01*
X144710284Y-74327693D01*
X144843636Y-74374166D01*
X144964698Y-74438729D01*
X145079019Y-74525661D01*
X145192145Y-74639240D01*
X145309624Y-74783744D01*
X145437002Y-74963451D01*
X145579828Y-75182639D01*
X145743648Y-75445587D01*
X145759534Y-75471420D01*
X146002285Y-75866439D01*
X145816243Y-76220110D01*
X145741932Y-76359465D01*
X145644381Y-76539433D01*
X145527782Y-76752426D01*
X145396326Y-76990857D01*
X145254204Y-77247138D01*
X145105608Y-77513684D01*
X144954729Y-77782906D01*
X144854881Y-77960244D01*
X144761016Y-78126619D01*
X144249185Y-78129001D01*
X144076545Y-78129260D01*
X143914325Y-78128505D01*
X143774205Y-78126867D01*
X143667872Y-78124474D01*
X143612572Y-78121929D01*
X143389108Y-78100235D01*
X143176159Y-78070669D01*
X142989164Y-78035690D01*
X142854477Y-78001199D01*
X142693635Y-77935930D01*
X142542606Y-77846111D01*
X142410318Y-77739899D01*
X142318761Y-77639743D01*
X142895517Y-77639743D01*
X142903859Y-77744103D01*
X142930650Y-77829495D01*
X142980199Y-77897717D01*
X143056811Y-77950566D01*
X143164795Y-77989840D01*
X143308458Y-78017337D01*
X143492106Y-78034853D01*
X143720046Y-78044186D01*
X143996587Y-78047135D01*
X144176167Y-78046656D01*
X144725897Y-78043432D01*
X145318372Y-76961991D01*
X145460603Y-76701921D01*
X145577991Y-76485983D01*
X145672659Y-76309849D01*
X145746729Y-76169190D01*
X145802324Y-76059677D01*
X145841568Y-75976981D01*
X145866583Y-75916773D01*
X145879491Y-75874725D01*
X145882416Y-75846509D01*
X145877481Y-75827794D01*
X145875915Y-75825091D01*
X145852270Y-75786831D01*
X145804078Y-75708295D01*
X145735666Y-75596553D01*
X145651361Y-75458678D01*
X145555491Y-75301742D01*
X145472872Y-75166398D01*
X145350352Y-74967501D01*
X145252136Y-74812612D01*
X145175235Y-74697463D01*
X145116659Y-74617786D01*
X145073418Y-74569312D01*
X145042522Y-74547772D01*
X145038729Y-74546590D01*
X144980154Y-74544013D01*
X144880838Y-74551874D01*
X144754080Y-74568137D01*
X144613175Y-74590764D01*
X144471420Y-74617718D01*
X144342113Y-74646962D01*
X144285671Y-74661979D01*
X144199142Y-74694069D01*
X144134519Y-74731590D01*
X144113950Y-74753308D01*
X144104853Y-74806513D01*
X144108663Y-74909288D01*
X144125486Y-75063348D01*
X144139040Y-75161734D01*
X144162674Y-75330689D01*
X144186709Y-75512271D01*
X144208050Y-75682580D01*
X144221399Y-75797362D01*
X144238155Y-75950060D01*
X144253389Y-76058838D01*
X144273319Y-76134691D01*
X144304166Y-76188614D01*
X144352146Y-76231601D01*
X144423481Y-76274649D01*
X144520895Y-76326876D01*
X144671359Y-76409000D01*
X144822034Y-76493650D01*
X144965411Y-76576337D01*
X145093981Y-76652574D01*
X145200235Y-76717873D01*
X145276665Y-76767747D01*
X145315761Y-76797707D01*
X145318940Y-76803840D01*
X145285902Y-76803777D01*
X145211398Y-76777688D01*
X145094104Y-76724959D01*
X144932695Y-76644976D01*
X144725847Y-76537125D01*
X144608353Y-76474376D01*
X144462143Y-76396647D01*
X144331779Y-76328940D01*
X144225445Y-76275378D01*
X144151323Y-76240080D01*
X144117597Y-76227168D01*
X144117460Y-76227165D01*
X144077904Y-76242331D01*
X144001775Y-76284055D01*
X143897641Y-76346673D01*
X143774066Y-76424524D01*
X143639619Y-76511944D01*
X143502865Y-76603272D01*
X143372371Y-76692844D01*
X143256703Y-76774999D01*
X143164428Y-76844074D01*
X143104112Y-76894406D01*
X143096069Y-76902312D01*
X143031207Y-76980426D01*
X142982994Y-77068184D01*
X142947843Y-77176865D01*
X142922168Y-77317743D01*
X142902382Y-77502097D01*
X142901318Y-77514618D01*
X142895517Y-77639743D01*
X142318761Y-77639743D01*
X142305696Y-77625451D01*
X142237668Y-77510924D01*
G37*
G36*
X144700110Y-75053052D02*
G01*
X144793826Y-75068564D01*
X144904356Y-75092731D01*
X145019772Y-75122575D01*
X145128149Y-75155116D01*
X145217559Y-75187375D01*
X145276076Y-75216371D01*
X145290722Y-75229769D01*
X145280489Y-75247435D01*
X145229507Y-75253676D01*
X145151140Y-75249205D01*
X145058753Y-75234733D01*
X144971306Y-75212723D01*
X144815139Y-75161577D01*
X144700071Y-75117349D01*
X144630622Y-75081956D01*
X144610826Y-75059915D01*
X144635134Y-75049176D01*
X144700110Y-75053052D01*
G37*
D13*
%TO.C,J1*%
X129620000Y-119145000D02*
X129620000Y-120475000D01*
X128290000Y-119145000D02*
X129620000Y-119145000D01*
X127020000Y-119145000D02*
X127020000Y-121745000D01*
X124420000Y-126885000D02*
X129620000Y-126885000D01*
X124420000Y-119145000D02*
X124420000Y-126885000D01*
X129620000Y-121745000D02*
X129620000Y-126885000D01*
X124420000Y-119145000D02*
X127020000Y-119145000D01*
X127020000Y-121745000D02*
X129620000Y-121745000D01*
%TO.C,D2*%
X113605000Y-38005000D02*
X113605000Y-40245000D01*
X118495000Y-39125000D02*
X117845000Y-39125000D01*
X114205000Y-38005000D02*
X114205000Y-40245000D01*
X114445000Y-38005000D02*
X114445000Y-40245000D01*
X117845000Y-40245000D02*
X117845000Y-38005000D01*
X114325000Y-38005000D02*
X114325000Y-40245000D01*
X113605000Y-40245000D02*
X117845000Y-40245000D01*
X112955000Y-39125000D02*
X113605000Y-39125000D01*
X117845000Y-38005000D02*
X113605000Y-38005000D01*
%TO.C,SW4*%
X166575000Y-110800000D02*
X166275000Y-110500000D01*
X173575000Y-114600000D02*
X174575000Y-114600000D01*
X180175000Y-113300000D02*
X180175000Y-115900000D01*
X166275000Y-110500000D02*
X166875000Y-110500000D01*
X172075000Y-108700000D02*
X167975000Y-108700000D01*
X180175000Y-120500000D02*
X176075000Y-120500000D01*
X166875000Y-110500000D02*
X166575000Y-110800000D01*
X172075000Y-120500000D02*
X167975000Y-120500000D01*
X174075000Y-114100000D02*
X174075000Y-115100000D01*
X180175000Y-108700000D02*
X180175000Y-111100000D01*
X180175000Y-118100000D02*
X180175000Y-120500000D01*
X167975000Y-108700000D02*
X167975000Y-120500000D01*
X176075000Y-108700000D02*
X180175000Y-108700000D01*
X177075000Y-114600000D02*
G75*
G03*
X177075000Y-114600000I-3000000J0D01*
G01*
%TO.C,TP2*%
X102325000Y-90725000D02*
G75*
G03*
X102325000Y-90725000I-1200000J0D01*
G01*
%TO.C,JP1*%
X103420000Y-89245000D02*
X106080000Y-89245000D01*
X103420000Y-89245000D02*
X103420000Y-94385000D01*
X103420000Y-94385000D02*
X106080000Y-94385000D01*
X103420000Y-86645000D02*
X104750000Y-86645000D01*
X103420000Y-87975000D02*
X103420000Y-86645000D01*
X106080000Y-89245000D02*
X106080000Y-94385000D01*
%TO.C,C1*%
X170936252Y-51860000D02*
X169513748Y-51860000D01*
X170936252Y-50040000D02*
X169513748Y-50040000D01*
%TO.C,SW5*%
X115500000Y-70600000D02*
X115500000Y-69100000D01*
X114250000Y-66600000D02*
X109750000Y-66600000D01*
X109750000Y-73100000D02*
X114250000Y-73100000D01*
X108500000Y-69100000D02*
X108500000Y-70600000D01*
%TO.C,TPG2*%
X102275000Y-95275000D02*
G75*
G03*
X102275000Y-95275000I-1200000J0D01*
G01*
%TO.C,JP2*%
X165985000Y-87405000D02*
X165985000Y-84745000D01*
X160845000Y-84745000D02*
X165985000Y-84745000D01*
X160845000Y-87405000D02*
X160845000Y-84745000D01*
X158245000Y-87405000D02*
X158245000Y-86075000D01*
X160845000Y-87405000D02*
X165985000Y-87405000D01*
X159575000Y-87405000D02*
X158245000Y-87405000D01*
%TO.C,J2*%
X148691600Y-26730000D02*
X110531600Y-26730000D01*
X148691600Y-24070000D02*
X110531600Y-24070000D01*
X148691600Y-24070000D02*
X148691600Y-26730000D01*
X110531600Y-24070000D02*
X110531600Y-26730000D01*
X151291600Y-26730000D02*
X149961600Y-26730000D01*
X151291600Y-25400000D02*
X151291600Y-26730000D01*
%TO.C,U1*%
X162475000Y-48310000D02*
X164425000Y-48310000D01*
X162475000Y-43190000D02*
X164425000Y-43190000D01*
X162475000Y-48310000D02*
X160525000Y-48310000D01*
X162475000Y-43190000D02*
X159025000Y-43190000D01*
D14*
%TO.C,RV1*%
X156750000Y-53025000D02*
X156750000Y-53625000D01*
X154100000Y-53025000D02*
X156750000Y-53025000D01*
X154100000Y-56625000D02*
X156750000Y-56625000D01*
X156750000Y-56625000D02*
X156750000Y-56025000D01*
D15*
X152124330Y-53267000D02*
G75*
G03*
X152124330Y-53267000I-120000J0D01*
G01*
D13*
%TO.C,D1*%
X153205000Y-38005000D02*
X153205000Y-40245000D01*
X152555000Y-39125000D02*
X153205000Y-39125000D01*
X153205000Y-40245000D02*
X157445000Y-40245000D01*
X153805000Y-38005000D02*
X153805000Y-40245000D01*
X153925000Y-38005000D02*
X153925000Y-40245000D01*
X157445000Y-38005000D02*
X153205000Y-38005000D01*
X157445000Y-40245000D02*
X157445000Y-38005000D01*
X154045000Y-38005000D02*
X154045000Y-40245000D01*
X158095000Y-39125000D02*
X157445000Y-39125000D01*
%TO.C,C17*%
X110915000Y-46936252D02*
X110915000Y-45513748D01*
X112735000Y-46936252D02*
X112735000Y-45513748D01*
%TO.C,SW2*%
X149370000Y-86580000D02*
X149370000Y-85250000D01*
X151970000Y-83920000D02*
X154570000Y-83920000D01*
X154570000Y-86580000D02*
X154570000Y-83920000D01*
X150700000Y-86580000D02*
X149370000Y-86580000D01*
X151970000Y-86580000D02*
X151970000Y-83920000D01*
X151970000Y-86580000D02*
X154570000Y-86580000D01*
%TO.C,C4*%
X130736252Y-50040000D02*
X129313748Y-50040000D01*
X130736252Y-51860000D02*
X129313748Y-51860000D01*
%TO.C,C5*%
X114990000Y-46936252D02*
X114990000Y-45513748D01*
X116810000Y-46936252D02*
X116810000Y-45513748D01*
%TO.C,R10*%
X124015000Y-37827064D02*
X124015000Y-36372936D01*
X125835000Y-37827064D02*
X125835000Y-36372936D01*
%TO.C,SW7*%
X156250000Y-126750000D02*
X160750000Y-126750000D01*
X155000000Y-122750000D02*
X155000000Y-124250000D01*
X162000000Y-124250000D02*
X162000000Y-122750000D01*
X160750000Y-120250000D02*
X156250000Y-120250000D01*
%TO.C,SW1*%
X115575000Y-108675000D02*
X107575000Y-108675000D01*
X107575000Y-108675000D02*
X107575000Y-122675000D01*
X107575000Y-122675000D02*
X115575000Y-122675000D01*
X115575000Y-122675000D02*
X115575000Y-108675000D01*
%TD*%
%LPC*%
D17*
%TO.C,H2*%
X179700000Y-55900000D03*
%TD*%
D18*
%TO.C,R8*%
X132325000Y-46550000D03*
X132325000Y-43450000D03*
%TD*%
D19*
%TO.C,SW8*%
X175250000Y-67600000D03*
X168750000Y-67600000D03*
X168750000Y-72100000D03*
X175250000Y-72100000D03*
%TD*%
D20*
%TO.C,J3*%
X171350000Y-97582500D03*
D21*
X177350000Y-97582500D03*
%TD*%
D22*
%TO.C,U3*%
X120725000Y-43845000D03*
X120725000Y-45115000D03*
X120725000Y-46385000D03*
X120725000Y-47655000D03*
X125675000Y-47655000D03*
X125675000Y-46385000D03*
X125675000Y-45115000D03*
X125675000Y-43845000D03*
%TD*%
D19*
%TO.C,SW6*%
X138750000Y-67600000D03*
X145250000Y-67600000D03*
X138750000Y-72100000D03*
X145250000Y-72100000D03*
%TD*%
D23*
%TO.C,L2*%
X107275000Y-44107500D03*
X107275000Y-47082500D03*
%TD*%
D18*
%TO.C,R7*%
X165000000Y-38650000D03*
X165000000Y-35550000D03*
%TD*%
D24*
%TO.C,D4*%
X150445000Y-33275000D03*
D25*
X160605000Y-33275000D03*
%TD*%
D26*
%TO.C,C16*%
X150300000Y-47787500D03*
X150300000Y-44662500D03*
%TD*%
D19*
%TO.C,TP1*%
X168550000Y-82375000D03*
%TD*%
D26*
%TO.C,C2*%
X155175000Y-47787500D03*
X155175000Y-44662500D03*
%TD*%
D18*
%TO.C,R5*%
X171800000Y-46550000D03*
X171800000Y-43450000D03*
%TD*%
D27*
%TO.C,RV2*%
X112875000Y-53825000D03*
D28*
X116125000Y-54825000D03*
D27*
X112875000Y-55825000D03*
%TD*%
D19*
%TO.C,TPG1*%
X168550000Y-86775000D03*
%TD*%
D29*
%TO.C,U4*%
X145800000Y-121000000D03*
D30*
X145800000Y-118460000D03*
X145800000Y-115920000D03*
X145800000Y-113380000D03*
X145800000Y-110840000D03*
X145800000Y-108300000D03*
X145800000Y-105760000D03*
X145800000Y-103220000D03*
X145800000Y-100680000D03*
X145800000Y-98140000D03*
X145800000Y-95600000D03*
X145800000Y-93060000D03*
X145800000Y-90520000D03*
X145800000Y-87980000D03*
X138180000Y-87980000D03*
X138180000Y-90520000D03*
X138180000Y-93060000D03*
X138180000Y-95600000D03*
X138180000Y-98140000D03*
X138180000Y-100680000D03*
X138180000Y-103220000D03*
X138180000Y-105760000D03*
X138180000Y-108300000D03*
X138180000Y-110840000D03*
X138180000Y-113380000D03*
X138180000Y-115920000D03*
X138180000Y-118460000D03*
X138180000Y-121000000D03*
%TD*%
D17*
%TO.C,H5*%
X101600000Y-125700000D03*
%TD*%
D23*
%TO.C,L1*%
X145500000Y-44107500D03*
X145500000Y-47082500D03*
%TD*%
D17*
%TO.C,H4*%
X179700000Y-25400000D03*
%TD*%
D29*
%TO.C,C8*%
X112500000Y-90044887D03*
D31*
X115000000Y-90044887D03*
%TD*%
D24*
%TO.C,D3*%
X110570000Y-33275000D03*
D25*
X120730000Y-33275000D03*
%TD*%
D29*
%TO.C,C6*%
X175900000Y-83525000D03*
D31*
X175900000Y-81025000D03*
%TD*%
D32*
%TO.C,Y1*%
X151500000Y-101450000D03*
X151500000Y-96570000D03*
%TD*%
D33*
%TO.C,SW3*%
X160560000Y-102232500D03*
D34*
X160560000Y-97632500D03*
%TD*%
D35*
%TO.C,J1*%
X128290000Y-120475000D03*
D36*
X125750000Y-120475000D03*
X128290000Y-123015000D03*
X125750000Y-123015000D03*
X128290000Y-125555000D03*
X125750000Y-125555000D03*
%TD*%
D29*
%TO.C,D2*%
X111915000Y-39125000D03*
D30*
X119535000Y-39125000D03*
%TD*%
D37*
%TO.C,SW4*%
X166575000Y-112100000D03*
D19*
X166575000Y-117100000D03*
X166575000Y-114600000D03*
D38*
X174075000Y-120200000D03*
X174075000Y-109000000D03*
D19*
X181075000Y-117100000D03*
X181075000Y-112100000D03*
%TD*%
%TO.C,TP2*%
X101125000Y-90725000D03*
%TD*%
D35*
%TO.C,JP1*%
X104750000Y-87975000D03*
D36*
X104750000Y-90515000D03*
X104750000Y-93055000D03*
%TD*%
D39*
%TO.C,C1*%
X171787500Y-50950000D03*
X168662500Y-50950000D03*
%TD*%
D19*
%TO.C,SW5*%
X108750000Y-67600000D03*
X115250000Y-67600000D03*
X115250000Y-72100000D03*
X108750000Y-72100000D03*
%TD*%
%TO.C,TPG2*%
X101075000Y-95275000D03*
%TD*%
D17*
%TO.C,H1*%
X104775000Y-55875000D03*
%TD*%
D35*
%TO.C,JP2*%
X159575000Y-86075000D03*
D36*
X162115000Y-86075000D03*
X164655000Y-86075000D03*
%TD*%
D35*
%TO.C,J2*%
X149961600Y-25400000D03*
D36*
X147421600Y-25400000D03*
X144881600Y-25400000D03*
X142341600Y-25400000D03*
X139801600Y-25400000D03*
X137261600Y-25400000D03*
X134721600Y-25400000D03*
X132181600Y-25400000D03*
X129641600Y-25400000D03*
X127101600Y-25400000D03*
X124561600Y-25400000D03*
X122021600Y-25400000D03*
X119481600Y-25400000D03*
X116941600Y-25400000D03*
X114401600Y-25400000D03*
X111861600Y-25400000D03*
%TD*%
D22*
%TO.C,U1*%
X160000000Y-43845000D03*
X160000000Y-45115000D03*
X160000000Y-46385000D03*
X160000000Y-47655000D03*
X164950000Y-47655000D03*
X164950000Y-46385000D03*
X164950000Y-45115000D03*
X164950000Y-43845000D03*
%TD*%
D17*
%TO.C,H3*%
X104775000Y-25400000D03*
%TD*%
D27*
%TO.C,RV1*%
X153150000Y-53825000D03*
D28*
X156400000Y-54825000D03*
D27*
X153150000Y-55825000D03*
%TD*%
D29*
%TO.C,D1*%
X151515000Y-39125000D03*
D30*
X159135000Y-39125000D03*
%TD*%
D26*
%TO.C,C17*%
X111825000Y-47787500D03*
X111825000Y-44662500D03*
%TD*%
D35*
%TO.C,SW2*%
X150700000Y-85250000D03*
D36*
X153240000Y-85250000D03*
%TD*%
D39*
%TO.C,C4*%
X131587500Y-50950000D03*
X128462500Y-50950000D03*
%TD*%
D17*
%TO.C,H6*%
X182425000Y-125675000D03*
%TD*%
D26*
%TO.C,C5*%
X115900000Y-47787500D03*
X115900000Y-44662500D03*
%TD*%
D18*
%TO.C,R10*%
X124925000Y-38650000D03*
X124925000Y-35550000D03*
%TD*%
D19*
%TO.C,SW7*%
X161750000Y-125750000D03*
X155250000Y-125750000D03*
X155250000Y-121250000D03*
X161750000Y-121250000D03*
%TD*%
D40*
%TO.C,SW1*%
X111575000Y-110975000D03*
X111575000Y-115675000D03*
X111575000Y-120375000D03*
%TD*%
M02*
