M48
; DRILL file {KiCad (5.99.0-12960-gccd3a1e6a9)} date Wed Nov 17 23:13:16 2021
; FORMAT={-:-/ absolute / inch / decimal}
; #@! TF.CreationDate,2021-11-17T23:13:16-08:00
; #@! TF.GenerationSoftware,Kicad,Pcbnew,(5.99.0-12960-gccd3a1e6a9)
; #@! TF.FileFunction,Plated,1,2,PTH
FMAT,2
INCH
; #@! TA.AperFunction,Plated,PTH,ViaDrill
T1C0.0100
; #@! TA.AperFunction,Plated,PTH,ComponentDrill
T2C0.0315
; #@! TA.AperFunction,Plated,PTH,ComponentDrill
T3C0.0374
; #@! TA.AperFunction,Plated,PTH,ComponentDrill
T4C0.0394
; #@! TA.AperFunction,Plated,PTH,ComponentDrill
T5C0.0433
; #@! TA.AperFunction,Plated,PTH,ComponentDrill
T6C0.0591
; #@! TA.AperFunction,Plated,PTH,ComponentDrill
T7C0.0689
%
G90
G05
T1
X3.9144Y-4.1427
X3.9291Y-1.2333
X3.9291Y-1.7175
X3.9596Y-2.5246
X3.9626Y-3.2648
X4.0236Y-4.1289
X4.0876Y-1.9734
X4.0876Y-4.5207
X4.0906Y-1.4656
X4.2333Y-4.1299
X4.2421Y-4.938
X4.3986Y-3.8297
X4.4045Y-1.6831
X4.4272Y-3.0059
X4.4272Y-3.2913
X4.4843Y-1.1506
X4.5561Y-3.3819
X4.5876Y-3.6949
X4.6171Y-4.9567
X4.6201Y-4.1053
X4.624Y-4.373
X4.6614Y-2.7293
X4.7431Y-4.0
X4.747Y-1.9321
X4.753Y-1.2096
X4.7894Y-3.8691
X4.7972Y-3.4813
X4.811Y-4.4872
X4.811Y-4.6004
X4.8553Y-3.313
X4.8858Y-3.8524
X4.9163Y-1.3297
X4.9203Y-3.7628
X4.9675Y-3.1289
X4.9774Y-2.8346
X4.9823Y-2.564
X4.9911Y-2.0059
X5.0177Y-3.3819
X5.0354Y-3.8789
X5.0374Y-3.7677
X5.0945Y-4.1093
X5.0965Y-3.9026
X5.1024Y-1.4587
X5.1181Y-1.1742
X5.1329Y-3.7726
X5.2077Y-3.1289
X5.251Y-2.3317
X5.2776Y-3.9596
X5.2776Y-3.9892
X5.3445Y-3.4577
X5.3494Y-3.2657
X5.3652Y-2.6427
X5.3829Y-2.1132
X5.4222Y-4.874
X5.4281Y-1.5738
X5.502Y-4.1604
X5.5787Y-2.4941
X5.5837Y-2.3189
X5.5856Y-3.8543
X5.5866Y-1.8317
X5.5896Y-4.7313
X5.5906Y-4.4557
X5.5965Y-2.1053
X5.6673Y-4.0591
X5.7589Y-3.1289
X5.7835Y-1.6064
X5.8081Y-4.06
X5.8297Y-4.5846
X5.8406Y-1.5148
X5.8504Y-4.3199
X5.8563Y-4.9242
X5.939Y-3.0571
X5.9685Y-2.8573
X6.0925Y-4.3917
X6.0984Y-4.2431
X6.1024Y-3.5541
X6.1673Y-2.6398
X6.186Y-1.4262
X6.2431Y-2.3376
X6.2539Y-1.94
X6.3209Y-4.1417
X6.3415Y-2.9596
X6.3671Y-2.1289
X6.4902Y-4.0207
X6.4931Y-1.3219
X6.5167Y-2.1988
X6.5571Y-4.8907
X6.561Y-2.6447
X6.565Y-2.0039
X6.686Y-2.501
X6.687Y-4.6909
X6.6998Y-4.3356
X6.7451Y-3.9862
X6.7697Y-3.0118
X6.7972Y-3.1476
X6.8543Y-4.5128
X6.9301Y-3.0846
X6.936Y-3.4114
X6.9695Y-1.9941
X6.9862Y-3.9774
X6.9911Y-4.9715
X7.0305Y-4.1545
X7.0354Y-4.3228
X7.0453Y-1.2362
X7.0994Y-1.6585
X7.1112Y-3.8396
X7.249Y-2.498
X7.25Y-1.9449
X7.252Y-3.0492
X7.252Y-4.2028
X7.253Y-4.7037
X7.2589Y-3.5659
X7.2717Y-1.4183
T2
X4.4061Y-1.5404
X4.4291Y-3.5451
X4.5276Y-3.5451
X4.7061Y-1.5404
X5.4402Y-3.4638
X5.4402Y-3.5638
X5.4402Y-3.6638
X5.4402Y-3.7638
X5.4402Y-3.8638
X5.4402Y-3.9638
X5.4402Y-4.0638
X5.4402Y-4.1638
X5.4402Y-4.2638
X5.4402Y-4.3638
X5.4402Y-4.4638
X5.4402Y-4.5638
X5.4402Y-4.6638
X5.4402Y-4.7638
X5.7402Y-3.4638
X5.7402Y-3.5638
X5.7402Y-3.6638
X5.7402Y-3.7638
X5.7402Y-3.8638
X5.7402Y-3.9638
X5.7402Y-4.0638
X5.7402Y-4.1638
X5.7402Y-4.2638
X5.7402Y-4.3638
X5.7402Y-4.4638
X5.7402Y-4.5638
X5.7402Y-4.6638
X5.7402Y-4.7638
X5.9646Y-3.802
X5.9646Y-3.9941
X5.9652Y-1.5404
X6.2652Y-1.5404
X6.9252Y-3.19
X6.9252Y-3.2884
T4
X4.124Y-3.4636
X4.124Y-3.5636
X4.124Y-3.6636
X4.404Y-1.0
X4.504Y-1.0
X4.604Y-1.0
X4.704Y-1.0
X4.804Y-1.0
X4.904Y-1.0
X4.9508Y-4.7431
X4.9508Y-4.8431
X4.9508Y-4.9431
X5.004Y-1.0
X5.0508Y-4.7431
X5.0508Y-4.8431
X5.0508Y-4.9431
X5.104Y-1.0
X5.204Y-1.0
X5.304Y-1.0
X5.404Y-1.0
X5.504Y-1.0
X5.604Y-1.0
X5.704Y-1.0
X5.804Y-1.0
X5.904Y-1.0
X5.9331Y-3.3563
X6.0331Y-3.3563
X6.2825Y-3.3888
X6.3825Y-3.3888
X6.4825Y-3.3888
X6.5581Y-4.4134
X6.5581Y-4.5118
X6.5581Y-4.6102
X7.1289Y-4.4134
X7.1289Y-4.6102
T5
X4.2815Y-2.6614
X4.2815Y-2.8386
X4.3531Y-1.31
X4.5374Y-2.6614
X4.5374Y-2.8386
X4.7531Y-1.31
X5.4626Y-2.6614
X5.4626Y-2.8386
X5.7185Y-2.6614
X5.7185Y-2.8386
X5.923Y-1.31
X6.1122Y-4.7736
X6.1122Y-4.9508
X6.323Y-1.31
X6.3681Y-4.7736
X6.3681Y-4.9508
X6.6437Y-2.6614
X6.6437Y-2.8386
X6.8996Y-2.6614
X6.8996Y-2.8386
T7
X6.3213Y-3.8438
X6.3213Y-4.0249
T3
G00X4.4183Y-4.3691
M15
G01X4.3671Y-4.3691
M16
G05
G00X4.4183Y-4.5541
M15
G01X4.3671Y-4.5541
M16
G05
G00X4.4183Y-4.7392
M15
G01X4.3671Y-4.7392
M16
G05
T4
G00X6.7461Y-3.891
M15
G01X6.7461Y-3.7926
M16
G05
G00X6.9823Y-3.8812
M15
G01X6.9823Y-3.8025
M16
G05
T6
G00X6.8278Y-4.2913
M15
G01X6.8789Y-4.2913
M16
G05
G00X6.8278Y-4.7323
M15
G01X6.8789Y-4.7323
M16
G05
T0
M30
