%TF.GenerationSoftware,KiCad,Pcbnew,(5.99.0-12960-gccd3a1e6a9)*%
%TF.CreationDate,2021-11-17T23:12:52-08:00*%
%TF.ProjectId,Team2EpicDiceRoller,5465616d-3245-4706-9963-44696365526f,rev?*%
%TF.SameCoordinates,Original*%
%TF.FileFunction,Legend,Bot*%
%TF.FilePolarity,Positive*%
%FSLAX46Y46*%
G04 Gerber Fmt 4.6, Leading zero omitted, Abs format (unit mm)*
G04 Created by KiCad (PCBNEW (5.99.0-12960-gccd3a1e6a9)) date 2021-11-17 23:12:52*
%MOMM*%
%LPD*%
G01*
G04 APERTURE LIST*
G04 Aperture macros list*
%AMRoundRect*
0 Rectangle with rounded corners*
0 $1 Rounding radius*
0 $2 $3 $4 $5 $6 $7 $8 $9 X,Y pos of 4 corners*
0 Add a 4 corners polygon primitive as box body*
4,1,4,$2,$3,$4,$5,$6,$7,$8,$9,$2,$3,0*
0 Add four circle primitives for the rounded corners*
1,1,$1+$1,$2,$3*
1,1,$1+$1,$4,$5*
1,1,$1+$1,$6,$7*
1,1,$1+$1,$8,$9*
0 Add four rect primitives between the rounded corners*
20,1,$1+$1,$2,$3,$4,$5,0*
20,1,$1+$1,$4,$5,$6,$7,0*
20,1,$1+$1,$6,$7,$8,$9,0*
20,1,$1+$1,$8,$9,$2,$3,0*%
G04 Aperture macros list end*
%ADD10C,0.150000*%
%ADD11C,0.120000*%
%ADD12C,3.200000*%
%ADD13C,2.000000*%
%ADD14R,3.500000X4.000000*%
%ADD15RoundRect,0.750000X0.750000X1.000000X-0.750000X1.000000X-0.750000X-1.000000X0.750000X-1.000000X0*%
%ADD16R,2.200000X2.200000*%
%ADD17O,2.200000X2.200000*%
%ADD18R,1.600000X1.600000*%
%ADD19O,1.600000X1.600000*%
%ADD20C,1.600000*%
%ADD21C,1.500000*%
%ADD22R,2.625000X2.625000*%
%ADD23C,2.625000*%
%ADD24R,1.700000X1.700000*%
%ADD25O,1.700000X1.700000*%
%ADD26R,2.000000X2.000000*%
%ADD27R,3.200000X2.000000*%
%ADD28R,2.600000X2.000000*%
%ADD29RoundRect,0.250000X-0.400000X-0.625000X0.400000X-0.625000X0.400000X0.625000X-0.400000X0.625000X0*%
%ADD30RoundRect,0.250000X0.412500X0.650000X-0.412500X0.650000X-0.412500X-0.650000X0.412500X-0.650000X0*%
%ADD31RoundRect,0.250000X-0.412500X-0.650000X0.412500X-0.650000X0.412500X0.650000X-0.412500X0.650000X0*%
%ADD32RoundRect,0.250000X0.400000X0.625000X-0.400000X0.625000X-0.400000X-0.625000X0.400000X-0.625000X0*%
%ADD33RoundRect,0.250000X-0.625000X0.400000X-0.625000X-0.400000X0.625000X-0.400000X0.625000X0.400000X0*%
%ADD34RoundRect,0.250000X0.625000X-0.400000X0.625000X0.400000X-0.625000X0.400000X-0.625000X-0.400000X0*%
%ADD35R,1.500000X0.450000*%
%ADD36RoundRect,0.250000X-0.650000X0.412500X-0.650000X-0.412500X0.650000X-0.412500X0.650000X0.412500X0*%
%ADD37RoundRect,0.249999X-1.425001X0.450001X-1.425001X-0.450001X1.425001X-0.450001X1.425001X0.450001X0*%
%ADD38RoundRect,0.249999X-0.450001X-1.425001X0.450001X-1.425001X0.450001X1.425001X-0.450001X1.425001X0*%
%ADD39RoundRect,0.150000X-0.150000X0.825000X-0.150000X-0.825000X0.150000X-0.825000X0.150000X0.825000X0*%
G04 APERTURE END LIST*
D10*
%TO.C,R11*%
X120692857Y-70577380D02*
X121026190Y-70101190D01*
X121264285Y-70577380D02*
X121264285Y-69577380D01*
X120883333Y-69577380D01*
X120788095Y-69625000D01*
X120740476Y-69672619D01*
X120692857Y-69767857D01*
X120692857Y-69910714D01*
X120740476Y-70005952D01*
X120788095Y-70053571D01*
X120883333Y-70101190D01*
X121264285Y-70101190D01*
X119740476Y-70577380D02*
X120311904Y-70577380D01*
X120026190Y-70577380D02*
X120026190Y-69577380D01*
X120121428Y-69720238D01*
X120216666Y-69815476D01*
X120311904Y-69863095D01*
X118788095Y-70577380D02*
X119359523Y-70577380D01*
X119073809Y-70577380D02*
X119073809Y-69577380D01*
X119169047Y-69720238D01*
X119264285Y-69815476D01*
X119359523Y-69863095D01*
%TO.C,C7*%
X120141666Y-65707142D02*
X120189285Y-65754761D01*
X120332142Y-65802380D01*
X120427380Y-65802380D01*
X120570238Y-65754761D01*
X120665476Y-65659523D01*
X120713095Y-65564285D01*
X120760714Y-65373809D01*
X120760714Y-65230952D01*
X120713095Y-65040476D01*
X120665476Y-64945238D01*
X120570238Y-64850000D01*
X120427380Y-64802380D01*
X120332142Y-64802380D01*
X120189285Y-64850000D01*
X120141666Y-64897619D01*
X119808333Y-64802380D02*
X119141666Y-64802380D01*
X119570238Y-65802380D01*
%TO.C,C11*%
X133617857Y-65632142D02*
X133665476Y-65679761D01*
X133808333Y-65727380D01*
X133903571Y-65727380D01*
X134046428Y-65679761D01*
X134141666Y-65584523D01*
X134189285Y-65489285D01*
X134236904Y-65298809D01*
X134236904Y-65155952D01*
X134189285Y-64965476D01*
X134141666Y-64870238D01*
X134046428Y-64775000D01*
X133903571Y-64727380D01*
X133808333Y-64727380D01*
X133665476Y-64775000D01*
X133617857Y-64822619D01*
X132665476Y-65727380D02*
X133236904Y-65727380D01*
X132951190Y-65727380D02*
X132951190Y-64727380D01*
X133046428Y-64870238D01*
X133141666Y-64965476D01*
X133236904Y-65013095D01*
X131713095Y-65727380D02*
X132284523Y-65727380D01*
X131998809Y-65727380D02*
X131998809Y-64727380D01*
X132094047Y-64870238D01*
X132189285Y-64965476D01*
X132284523Y-65013095D01*
%TO.C,C12*%
X163987857Y-65482142D02*
X164035476Y-65529761D01*
X164178333Y-65577380D01*
X164273571Y-65577380D01*
X164416428Y-65529761D01*
X164511666Y-65434523D01*
X164559285Y-65339285D01*
X164606904Y-65148809D01*
X164606904Y-65005952D01*
X164559285Y-64815476D01*
X164511666Y-64720238D01*
X164416428Y-64625000D01*
X164273571Y-64577380D01*
X164178333Y-64577380D01*
X164035476Y-64625000D01*
X163987857Y-64672619D01*
X163035476Y-65577380D02*
X163606904Y-65577380D01*
X163321190Y-65577380D02*
X163321190Y-64577380D01*
X163416428Y-64720238D01*
X163511666Y-64815476D01*
X163606904Y-64863095D01*
X162654523Y-64672619D02*
X162606904Y-64625000D01*
X162511666Y-64577380D01*
X162273571Y-64577380D01*
X162178333Y-64625000D01*
X162130714Y-64672619D01*
X162083095Y-64767857D01*
X162083095Y-64863095D01*
X162130714Y-65005952D01*
X162702142Y-65577380D01*
X162083095Y-65577380D01*
%TO.C,R17*%
X133637857Y-70657380D02*
X133971190Y-70181190D01*
X134209285Y-70657380D02*
X134209285Y-69657380D01*
X133828333Y-69657380D01*
X133733095Y-69705000D01*
X133685476Y-69752619D01*
X133637857Y-69847857D01*
X133637857Y-69990714D01*
X133685476Y-70085952D01*
X133733095Y-70133571D01*
X133828333Y-70181190D01*
X134209285Y-70181190D01*
X132685476Y-70657380D02*
X133256904Y-70657380D01*
X132971190Y-70657380D02*
X132971190Y-69657380D01*
X133066428Y-69800238D01*
X133161666Y-69895476D01*
X133256904Y-69943095D01*
X132352142Y-69657380D02*
X131685476Y-69657380D01*
X132114047Y-70657380D01*
%TO.C,R18*%
X148632380Y-118857142D02*
X148156190Y-118523809D01*
X148632380Y-118285714D02*
X147632380Y-118285714D01*
X147632380Y-118666666D01*
X147680000Y-118761904D01*
X147727619Y-118809523D01*
X147822857Y-118857142D01*
X147965714Y-118857142D01*
X148060952Y-118809523D01*
X148108571Y-118761904D01*
X148156190Y-118666666D01*
X148156190Y-118285714D01*
X148632380Y-119809523D02*
X148632380Y-119238095D01*
X148632380Y-119523809D02*
X147632380Y-119523809D01*
X147775238Y-119428571D01*
X147870476Y-119333333D01*
X147918095Y-119238095D01*
X148060952Y-120380952D02*
X148013333Y-120285714D01*
X147965714Y-120238095D01*
X147870476Y-120190476D01*
X147822857Y-120190476D01*
X147727619Y-120238095D01*
X147680000Y-120285714D01*
X147632380Y-120380952D01*
X147632380Y-120571428D01*
X147680000Y-120666666D01*
X147727619Y-120714285D01*
X147822857Y-120761904D01*
X147870476Y-120761904D01*
X147965714Y-120714285D01*
X148013333Y-120666666D01*
X148060952Y-120571428D01*
X148060952Y-120380952D01*
X148108571Y-120285714D01*
X148156190Y-120238095D01*
X148251428Y-120190476D01*
X148441904Y-120190476D01*
X148537142Y-120238095D01*
X148584761Y-120285714D01*
X148632380Y-120380952D01*
X148632380Y-120571428D01*
X148584761Y-120666666D01*
X148537142Y-120714285D01*
X148441904Y-120761904D01*
X148251428Y-120761904D01*
X148156190Y-120714285D01*
X148108571Y-120666666D01*
X148060952Y-120571428D01*
%TO.C,R1*%
X152416666Y-79557380D02*
X152750000Y-79081190D01*
X152988095Y-79557380D02*
X152988095Y-78557380D01*
X152607142Y-78557380D01*
X152511904Y-78605000D01*
X152464285Y-78652619D01*
X152416666Y-78747857D01*
X152416666Y-78890714D01*
X152464285Y-78985952D01*
X152511904Y-79033571D01*
X152607142Y-79081190D01*
X152988095Y-79081190D01*
X151464285Y-79557380D02*
X152035714Y-79557380D01*
X151750000Y-79557380D02*
X151750000Y-78557380D01*
X151845238Y-78700238D01*
X151940476Y-78795476D01*
X152035714Y-78843095D01*
%TO.C,R19*%
X167172380Y-76032142D02*
X166696190Y-75698809D01*
X167172380Y-75460714D02*
X166172380Y-75460714D01*
X166172380Y-75841666D01*
X166220000Y-75936904D01*
X166267619Y-75984523D01*
X166362857Y-76032142D01*
X166505714Y-76032142D01*
X166600952Y-75984523D01*
X166648571Y-75936904D01*
X166696190Y-75841666D01*
X166696190Y-75460714D01*
X167172380Y-76984523D02*
X167172380Y-76413095D01*
X167172380Y-76698809D02*
X166172380Y-76698809D01*
X166315238Y-76603571D01*
X166410476Y-76508333D01*
X166458095Y-76413095D01*
X167172380Y-77460714D02*
X167172380Y-77651190D01*
X167124761Y-77746428D01*
X167077142Y-77794047D01*
X166934285Y-77889285D01*
X166743809Y-77936904D01*
X166362857Y-77936904D01*
X166267619Y-77889285D01*
X166220000Y-77841666D01*
X166172380Y-77746428D01*
X166172380Y-77555952D01*
X166220000Y-77460714D01*
X166267619Y-77413095D01*
X166362857Y-77365476D01*
X166600952Y-77365476D01*
X166696190Y-77413095D01*
X166743809Y-77460714D01*
X166791428Y-77555952D01*
X166791428Y-77746428D01*
X166743809Y-77841666D01*
X166696190Y-77889285D01*
X166600952Y-77936904D01*
%TO.C,C9*%
X151741666Y-106332142D02*
X151789285Y-106379761D01*
X151932142Y-106427380D01*
X152027380Y-106427380D01*
X152170238Y-106379761D01*
X152265476Y-106284523D01*
X152313095Y-106189285D01*
X152360714Y-105998809D01*
X152360714Y-105855952D01*
X152313095Y-105665476D01*
X152265476Y-105570238D01*
X152170238Y-105475000D01*
X152027380Y-105427380D01*
X151932142Y-105427380D01*
X151789285Y-105475000D01*
X151741666Y-105522619D01*
X151265476Y-106427380D02*
X151075000Y-106427380D01*
X150979761Y-106379761D01*
X150932142Y-106332142D01*
X150836904Y-106189285D01*
X150789285Y-105998809D01*
X150789285Y-105617857D01*
X150836904Y-105522619D01*
X150884523Y-105475000D01*
X150979761Y-105427380D01*
X151170238Y-105427380D01*
X151265476Y-105475000D01*
X151313095Y-105522619D01*
X151360714Y-105617857D01*
X151360714Y-105855952D01*
X151313095Y-105951190D01*
X151265476Y-105998809D01*
X151170238Y-106046428D01*
X150979761Y-106046428D01*
X150884523Y-105998809D01*
X150836904Y-105951190D01*
X150789285Y-105855952D01*
%TO.C,Q1*%
X143070238Y-38822619D02*
X143165476Y-38775000D01*
X143260714Y-38679761D01*
X143403571Y-38536904D01*
X143498809Y-38489285D01*
X143594047Y-38489285D01*
X143546428Y-38727380D02*
X143641666Y-38679761D01*
X143736904Y-38584523D01*
X143784523Y-38394047D01*
X143784523Y-38060714D01*
X143736904Y-37870238D01*
X143641666Y-37775000D01*
X143546428Y-37727380D01*
X143355952Y-37727380D01*
X143260714Y-37775000D01*
X143165476Y-37870238D01*
X143117857Y-38060714D01*
X143117857Y-38394047D01*
X143165476Y-38584523D01*
X143260714Y-38679761D01*
X143355952Y-38727380D01*
X143546428Y-38727380D01*
X142165476Y-38727380D02*
X142736904Y-38727380D01*
X142451190Y-38727380D02*
X142451190Y-37727380D01*
X142546428Y-37870238D01*
X142641666Y-37965476D01*
X142736904Y-38013095D01*
%TO.C,R20*%
X164092857Y-70657380D02*
X164426190Y-70181190D01*
X164664285Y-70657380D02*
X164664285Y-69657380D01*
X164283333Y-69657380D01*
X164188095Y-69705000D01*
X164140476Y-69752619D01*
X164092857Y-69847857D01*
X164092857Y-69990714D01*
X164140476Y-70085952D01*
X164188095Y-70133571D01*
X164283333Y-70181190D01*
X164664285Y-70181190D01*
X163711904Y-69752619D02*
X163664285Y-69705000D01*
X163569047Y-69657380D01*
X163330952Y-69657380D01*
X163235714Y-69705000D01*
X163188095Y-69752619D01*
X163140476Y-69847857D01*
X163140476Y-69943095D01*
X163188095Y-70085952D01*
X163759523Y-70657380D01*
X163140476Y-70657380D01*
X162521428Y-69657380D02*
X162426190Y-69657380D01*
X162330952Y-69705000D01*
X162283333Y-69752619D01*
X162235714Y-69847857D01*
X162188095Y-70038333D01*
X162188095Y-70276428D01*
X162235714Y-70466904D01*
X162283333Y-70562142D01*
X162330952Y-70609761D01*
X162426190Y-70657380D01*
X162521428Y-70657380D01*
X162616666Y-70609761D01*
X162664285Y-70562142D01*
X162711904Y-70466904D01*
X162759523Y-70276428D01*
X162759523Y-70038333D01*
X162711904Y-69847857D01*
X162664285Y-69752619D01*
X162616666Y-69705000D01*
X162521428Y-69657380D01*
%TO.C,R16*%
X144867857Y-28882380D02*
X145201190Y-28406190D01*
X145439285Y-28882380D02*
X145439285Y-27882380D01*
X145058333Y-27882380D01*
X144963095Y-27930000D01*
X144915476Y-27977619D01*
X144867857Y-28072857D01*
X144867857Y-28215714D01*
X144915476Y-28310952D01*
X144963095Y-28358571D01*
X145058333Y-28406190D01*
X145439285Y-28406190D01*
X143915476Y-28882380D02*
X144486904Y-28882380D01*
X144201190Y-28882380D02*
X144201190Y-27882380D01*
X144296428Y-28025238D01*
X144391666Y-28120476D01*
X144486904Y-28168095D01*
X143058333Y-27882380D02*
X143248809Y-27882380D01*
X143344047Y-27930000D01*
X143391666Y-27977619D01*
X143486904Y-28120476D01*
X143534523Y-28310952D01*
X143534523Y-28691904D01*
X143486904Y-28787142D01*
X143439285Y-28834761D01*
X143344047Y-28882380D01*
X143153571Y-28882380D01*
X143058333Y-28834761D01*
X143010714Y-28787142D01*
X142963095Y-28691904D01*
X142963095Y-28453809D01*
X143010714Y-28358571D01*
X143058333Y-28310952D01*
X143153571Y-28263333D01*
X143344047Y-28263333D01*
X143439285Y-28310952D01*
X143486904Y-28358571D01*
X143534523Y-28453809D01*
%TO.C,R15*%
X136772380Y-77282142D02*
X136296190Y-76948809D01*
X136772380Y-76710714D02*
X135772380Y-76710714D01*
X135772380Y-77091666D01*
X135820000Y-77186904D01*
X135867619Y-77234523D01*
X135962857Y-77282142D01*
X136105714Y-77282142D01*
X136200952Y-77234523D01*
X136248571Y-77186904D01*
X136296190Y-77091666D01*
X136296190Y-76710714D01*
X136772380Y-78234523D02*
X136772380Y-77663095D01*
X136772380Y-77948809D02*
X135772380Y-77948809D01*
X135915238Y-77853571D01*
X136010476Y-77758333D01*
X136058095Y-77663095D01*
X135772380Y-79139285D02*
X135772380Y-78663095D01*
X136248571Y-78615476D01*
X136200952Y-78663095D01*
X136153333Y-78758333D01*
X136153333Y-78996428D01*
X136200952Y-79091666D01*
X136248571Y-79139285D01*
X136343809Y-79186904D01*
X136581904Y-79186904D01*
X136677142Y-79139285D01*
X136724761Y-79091666D01*
X136772380Y-78996428D01*
X136772380Y-78758333D01*
X136724761Y-78663095D01*
X136677142Y-78615476D01*
%TO.C,R4*%
X123911666Y-110632380D02*
X124245000Y-110156190D01*
X124483095Y-110632380D02*
X124483095Y-109632380D01*
X124102142Y-109632380D01*
X124006904Y-109680000D01*
X123959285Y-109727619D01*
X123911666Y-109822857D01*
X123911666Y-109965714D01*
X123959285Y-110060952D01*
X124006904Y-110108571D01*
X124102142Y-110156190D01*
X124483095Y-110156190D01*
X123054523Y-109965714D02*
X123054523Y-110632380D01*
X123292619Y-109584761D02*
X123530714Y-110299047D01*
X122911666Y-110299047D01*
%TO.C,C3*%
X123941666Y-100132142D02*
X123989285Y-100179761D01*
X124132142Y-100227380D01*
X124227380Y-100227380D01*
X124370238Y-100179761D01*
X124465476Y-100084523D01*
X124513095Y-99989285D01*
X124560714Y-99798809D01*
X124560714Y-99655952D01*
X124513095Y-99465476D01*
X124465476Y-99370238D01*
X124370238Y-99275000D01*
X124227380Y-99227380D01*
X124132142Y-99227380D01*
X123989285Y-99275000D01*
X123941666Y-99322619D01*
X123608333Y-99227380D02*
X122989285Y-99227380D01*
X123322619Y-99608333D01*
X123179761Y-99608333D01*
X123084523Y-99655952D01*
X123036904Y-99703571D01*
X122989285Y-99798809D01*
X122989285Y-100036904D01*
X123036904Y-100132142D01*
X123084523Y-100179761D01*
X123179761Y-100227380D01*
X123465476Y-100227380D01*
X123560714Y-100179761D01*
X123608333Y-100132142D01*
%TO.C,R2*%
X101641666Y-117752380D02*
X101975000Y-117276190D01*
X102213095Y-117752380D02*
X102213095Y-116752380D01*
X101832142Y-116752380D01*
X101736904Y-116800000D01*
X101689285Y-116847619D01*
X101641666Y-116942857D01*
X101641666Y-117085714D01*
X101689285Y-117180952D01*
X101736904Y-117228571D01*
X101832142Y-117276190D01*
X102213095Y-117276190D01*
X101260714Y-116847619D02*
X101213095Y-116800000D01*
X101117857Y-116752380D01*
X100879761Y-116752380D01*
X100784523Y-116800000D01*
X100736904Y-116847619D01*
X100689285Y-116942857D01*
X100689285Y-117038095D01*
X100736904Y-117180952D01*
X101308333Y-117752380D01*
X100689285Y-117752380D01*
%TO.C,C18*%
X120357142Y-91032142D02*
X120404761Y-90984523D01*
X120452380Y-90841666D01*
X120452380Y-90746428D01*
X120404761Y-90603571D01*
X120309523Y-90508333D01*
X120214285Y-90460714D01*
X120023809Y-90413095D01*
X119880952Y-90413095D01*
X119690476Y-90460714D01*
X119595238Y-90508333D01*
X119500000Y-90603571D01*
X119452380Y-90746428D01*
X119452380Y-90841666D01*
X119500000Y-90984523D01*
X119547619Y-91032142D01*
X120452380Y-91984523D02*
X120452380Y-91413095D01*
X120452380Y-91698809D02*
X119452380Y-91698809D01*
X119595238Y-91603571D01*
X119690476Y-91508333D01*
X119738095Y-91413095D01*
X119880952Y-92555952D02*
X119833333Y-92460714D01*
X119785714Y-92413095D01*
X119690476Y-92365476D01*
X119642857Y-92365476D01*
X119547619Y-92413095D01*
X119500000Y-92460714D01*
X119452380Y-92555952D01*
X119452380Y-92746428D01*
X119500000Y-92841666D01*
X119547619Y-92889285D01*
X119642857Y-92936904D01*
X119690476Y-92936904D01*
X119785714Y-92889285D01*
X119833333Y-92841666D01*
X119880952Y-92746428D01*
X119880952Y-92555952D01*
X119928571Y-92460714D01*
X119976190Y-92413095D01*
X120071428Y-92365476D01*
X120261904Y-92365476D01*
X120357142Y-92413095D01*
X120404761Y-92460714D01*
X120452380Y-92555952D01*
X120452380Y-92746428D01*
X120404761Y-92841666D01*
X120357142Y-92889285D01*
X120261904Y-92936904D01*
X120071428Y-92936904D01*
X119976190Y-92889285D01*
X119928571Y-92841666D01*
X119880952Y-92746428D01*
%TO.C,R21*%
X160442857Y-109682380D02*
X160776190Y-109206190D01*
X161014285Y-109682380D02*
X161014285Y-108682380D01*
X160633333Y-108682380D01*
X160538095Y-108730000D01*
X160490476Y-108777619D01*
X160442857Y-108872857D01*
X160442857Y-109015714D01*
X160490476Y-109110952D01*
X160538095Y-109158571D01*
X160633333Y-109206190D01*
X161014285Y-109206190D01*
X160061904Y-108777619D02*
X160014285Y-108730000D01*
X159919047Y-108682380D01*
X159680952Y-108682380D01*
X159585714Y-108730000D01*
X159538095Y-108777619D01*
X159490476Y-108872857D01*
X159490476Y-108968095D01*
X159538095Y-109110952D01*
X160109523Y-109682380D01*
X159490476Y-109682380D01*
X158538095Y-109682380D02*
X159109523Y-109682380D01*
X158823809Y-109682380D02*
X158823809Y-108682380D01*
X158919047Y-108825238D01*
X159014285Y-108920476D01*
X159109523Y-108968095D01*
%TO.C,R22*%
X160442857Y-114577380D02*
X160776190Y-114101190D01*
X161014285Y-114577380D02*
X161014285Y-113577380D01*
X160633333Y-113577380D01*
X160538095Y-113625000D01*
X160490476Y-113672619D01*
X160442857Y-113767857D01*
X160442857Y-113910714D01*
X160490476Y-114005952D01*
X160538095Y-114053571D01*
X160633333Y-114101190D01*
X161014285Y-114101190D01*
X160061904Y-113672619D02*
X160014285Y-113625000D01*
X159919047Y-113577380D01*
X159680952Y-113577380D01*
X159585714Y-113625000D01*
X159538095Y-113672619D01*
X159490476Y-113767857D01*
X159490476Y-113863095D01*
X159538095Y-114005952D01*
X160109523Y-114577380D01*
X159490476Y-114577380D01*
X159109523Y-113672619D02*
X159061904Y-113625000D01*
X158966666Y-113577380D01*
X158728571Y-113577380D01*
X158633333Y-113625000D01*
X158585714Y-113672619D01*
X158538095Y-113767857D01*
X158538095Y-113863095D01*
X158585714Y-114005952D01*
X159157142Y-114577380D01*
X158538095Y-114577380D01*
%TO.C,C15*%
X133142857Y-97507142D02*
X133190476Y-97554761D01*
X133333333Y-97602380D01*
X133428571Y-97602380D01*
X133571428Y-97554761D01*
X133666666Y-97459523D01*
X133714285Y-97364285D01*
X133761904Y-97173809D01*
X133761904Y-97030952D01*
X133714285Y-96840476D01*
X133666666Y-96745238D01*
X133571428Y-96650000D01*
X133428571Y-96602380D01*
X133333333Y-96602380D01*
X133190476Y-96650000D01*
X133142857Y-96697619D01*
X132190476Y-97602380D02*
X132761904Y-97602380D01*
X132476190Y-97602380D02*
X132476190Y-96602380D01*
X132571428Y-96745238D01*
X132666666Y-96840476D01*
X132761904Y-96888095D01*
X131285714Y-96602380D02*
X131761904Y-96602380D01*
X131809523Y-97078571D01*
X131761904Y-97030952D01*
X131666666Y-96983333D01*
X131428571Y-96983333D01*
X131333333Y-97030952D01*
X131285714Y-97078571D01*
X131238095Y-97173809D01*
X131238095Y-97411904D01*
X131285714Y-97507142D01*
X131333333Y-97554761D01*
X131428571Y-97602380D01*
X131666666Y-97602380D01*
X131761904Y-97554761D01*
X131809523Y-97507142D01*
%TO.C,C14*%
X152217857Y-110182142D02*
X152265476Y-110229761D01*
X152408333Y-110277380D01*
X152503571Y-110277380D01*
X152646428Y-110229761D01*
X152741666Y-110134523D01*
X152789285Y-110039285D01*
X152836904Y-109848809D01*
X152836904Y-109705952D01*
X152789285Y-109515476D01*
X152741666Y-109420238D01*
X152646428Y-109325000D01*
X152503571Y-109277380D01*
X152408333Y-109277380D01*
X152265476Y-109325000D01*
X152217857Y-109372619D01*
X151265476Y-110277380D02*
X151836904Y-110277380D01*
X151551190Y-110277380D02*
X151551190Y-109277380D01*
X151646428Y-109420238D01*
X151741666Y-109515476D01*
X151836904Y-109563095D01*
X150408333Y-109610714D02*
X150408333Y-110277380D01*
X150646428Y-109229761D02*
X150884523Y-109944047D01*
X150265476Y-109944047D01*
%TO.C,C13*%
X133142857Y-103132142D02*
X133190476Y-103179761D01*
X133333333Y-103227380D01*
X133428571Y-103227380D01*
X133571428Y-103179761D01*
X133666666Y-103084523D01*
X133714285Y-102989285D01*
X133761904Y-102798809D01*
X133761904Y-102655952D01*
X133714285Y-102465476D01*
X133666666Y-102370238D01*
X133571428Y-102275000D01*
X133428571Y-102227380D01*
X133333333Y-102227380D01*
X133190476Y-102275000D01*
X133142857Y-102322619D01*
X132190476Y-103227380D02*
X132761904Y-103227380D01*
X132476190Y-103227380D02*
X132476190Y-102227380D01*
X132571428Y-102370238D01*
X132666666Y-102465476D01*
X132761904Y-102513095D01*
X131857142Y-102227380D02*
X131238095Y-102227380D01*
X131571428Y-102608333D01*
X131428571Y-102608333D01*
X131333333Y-102655952D01*
X131285714Y-102703571D01*
X131238095Y-102798809D01*
X131238095Y-103036904D01*
X131285714Y-103132142D01*
X131333333Y-103179761D01*
X131428571Y-103227380D01*
X131714285Y-103227380D01*
X131809523Y-103179761D01*
X131857142Y-103132142D01*
%TO.C,R14*%
X137272380Y-34507142D02*
X136796190Y-34173809D01*
X137272380Y-33935714D02*
X136272380Y-33935714D01*
X136272380Y-34316666D01*
X136320000Y-34411904D01*
X136367619Y-34459523D01*
X136462857Y-34507142D01*
X136605714Y-34507142D01*
X136700952Y-34459523D01*
X136748571Y-34411904D01*
X136796190Y-34316666D01*
X136796190Y-33935714D01*
X137272380Y-35459523D02*
X137272380Y-34888095D01*
X137272380Y-35173809D02*
X136272380Y-35173809D01*
X136415238Y-35078571D01*
X136510476Y-34983333D01*
X136558095Y-34888095D01*
X136605714Y-36316666D02*
X137272380Y-36316666D01*
X136224761Y-36078571D02*
X136939047Y-35840476D01*
X136939047Y-36459523D01*
%TO.C,R12*%
X102582380Y-101157142D02*
X102106190Y-100823809D01*
X102582380Y-100585714D02*
X101582380Y-100585714D01*
X101582380Y-100966666D01*
X101630000Y-101061904D01*
X101677619Y-101109523D01*
X101772857Y-101157142D01*
X101915714Y-101157142D01*
X102010952Y-101109523D01*
X102058571Y-101061904D01*
X102106190Y-100966666D01*
X102106190Y-100585714D01*
X102582380Y-102109523D02*
X102582380Y-101538095D01*
X102582380Y-101823809D02*
X101582380Y-101823809D01*
X101725238Y-101728571D01*
X101820476Y-101633333D01*
X101868095Y-101538095D01*
X101677619Y-102490476D02*
X101630000Y-102538095D01*
X101582380Y-102633333D01*
X101582380Y-102871428D01*
X101630000Y-102966666D01*
X101677619Y-103014285D01*
X101772857Y-103061904D01*
X101868095Y-103061904D01*
X102010952Y-103014285D01*
X102582380Y-102442857D01*
X102582380Y-103061904D01*
%TO.C,C10*%
X152217857Y-88832142D02*
X152265476Y-88879761D01*
X152408333Y-88927380D01*
X152503571Y-88927380D01*
X152646428Y-88879761D01*
X152741666Y-88784523D01*
X152789285Y-88689285D01*
X152836904Y-88498809D01*
X152836904Y-88355952D01*
X152789285Y-88165476D01*
X152741666Y-88070238D01*
X152646428Y-87975000D01*
X152503571Y-87927380D01*
X152408333Y-87927380D01*
X152265476Y-87975000D01*
X152217857Y-88022619D01*
X151265476Y-88927380D02*
X151836904Y-88927380D01*
X151551190Y-88927380D02*
X151551190Y-87927380D01*
X151646428Y-88070238D01*
X151741666Y-88165476D01*
X151836904Y-88213095D01*
X150646428Y-87927380D02*
X150551190Y-87927380D01*
X150455952Y-87975000D01*
X150408333Y-88022619D01*
X150360714Y-88117857D01*
X150313095Y-88308333D01*
X150313095Y-88546428D01*
X150360714Y-88736904D01*
X150408333Y-88832142D01*
X150455952Y-88879761D01*
X150551190Y-88927380D01*
X150646428Y-88927380D01*
X150741666Y-88879761D01*
X150789285Y-88832142D01*
X150836904Y-88736904D01*
X150884523Y-88546428D01*
X150884523Y-88308333D01*
X150836904Y-88117857D01*
X150789285Y-88022619D01*
X150741666Y-87975000D01*
X150646428Y-87927380D01*
%TO.C,R13*%
X176142857Y-92572380D02*
X176476190Y-92096190D01*
X176714285Y-92572380D02*
X176714285Y-91572380D01*
X176333333Y-91572380D01*
X176238095Y-91620000D01*
X176190476Y-91667619D01*
X176142857Y-91762857D01*
X176142857Y-91905714D01*
X176190476Y-92000952D01*
X176238095Y-92048571D01*
X176333333Y-92096190D01*
X176714285Y-92096190D01*
X175190476Y-92572380D02*
X175761904Y-92572380D01*
X175476190Y-92572380D02*
X175476190Y-91572380D01*
X175571428Y-91715238D01*
X175666666Y-91810476D01*
X175761904Y-91858095D01*
X174857142Y-91572380D02*
X174238095Y-91572380D01*
X174571428Y-91953333D01*
X174428571Y-91953333D01*
X174333333Y-92000952D01*
X174285714Y-92048571D01*
X174238095Y-92143809D01*
X174238095Y-92381904D01*
X174285714Y-92477142D01*
X174333333Y-92524761D01*
X174428571Y-92572380D01*
X174714285Y-92572380D01*
X174809523Y-92524761D01*
X174857142Y-92477142D01*
%TO.C,R3*%
X101691666Y-109502380D02*
X102025000Y-109026190D01*
X102263095Y-109502380D02*
X102263095Y-108502380D01*
X101882142Y-108502380D01*
X101786904Y-108550000D01*
X101739285Y-108597619D01*
X101691666Y-108692857D01*
X101691666Y-108835714D01*
X101739285Y-108930952D01*
X101786904Y-108978571D01*
X101882142Y-109026190D01*
X102263095Y-109026190D01*
X101358333Y-108502380D02*
X100739285Y-108502380D01*
X101072619Y-108883333D01*
X100929761Y-108883333D01*
X100834523Y-108930952D01*
X100786904Y-108978571D01*
X100739285Y-109073809D01*
X100739285Y-109311904D01*
X100786904Y-109407142D01*
X100834523Y-109454761D01*
X100929761Y-109502380D01*
X101215476Y-109502380D01*
X101310714Y-109454761D01*
X101358333Y-109407142D01*
%TO.C,R6*%
X123911666Y-105452380D02*
X124245000Y-104976190D01*
X124483095Y-105452380D02*
X124483095Y-104452380D01*
X124102142Y-104452380D01*
X124006904Y-104500000D01*
X123959285Y-104547619D01*
X123911666Y-104642857D01*
X123911666Y-104785714D01*
X123959285Y-104880952D01*
X124006904Y-104928571D01*
X124102142Y-104976190D01*
X124483095Y-104976190D01*
X123054523Y-104452380D02*
X123245000Y-104452380D01*
X123340238Y-104500000D01*
X123387857Y-104547619D01*
X123483095Y-104690476D01*
X123530714Y-104880952D01*
X123530714Y-105261904D01*
X123483095Y-105357142D01*
X123435476Y-105404761D01*
X123340238Y-105452380D01*
X123149761Y-105452380D01*
X123054523Y-105404761D01*
X123006904Y-105357142D01*
X122959285Y-105261904D01*
X122959285Y-105023809D01*
X123006904Y-104928571D01*
X123054523Y-104880952D01*
X123149761Y-104833333D01*
X123340238Y-104833333D01*
X123435476Y-104880952D01*
X123483095Y-104928571D01*
X123530714Y-105023809D01*
%TO.C,R9*%
X121047380Y-77758333D02*
X120571190Y-77425000D01*
X121047380Y-77186904D02*
X120047380Y-77186904D01*
X120047380Y-77567857D01*
X120095000Y-77663095D01*
X120142619Y-77710714D01*
X120237857Y-77758333D01*
X120380714Y-77758333D01*
X120475952Y-77710714D01*
X120523571Y-77663095D01*
X120571190Y-77567857D01*
X120571190Y-77186904D01*
X121047380Y-78234523D02*
X121047380Y-78425000D01*
X120999761Y-78520238D01*
X120952142Y-78567857D01*
X120809285Y-78663095D01*
X120618809Y-78710714D01*
X120237857Y-78710714D01*
X120142619Y-78663095D01*
X120095000Y-78615476D01*
X120047380Y-78520238D01*
X120047380Y-78329761D01*
X120095000Y-78234523D01*
X120142619Y-78186904D01*
X120237857Y-78139285D01*
X120475952Y-78139285D01*
X120571190Y-78186904D01*
X120618809Y-78234523D01*
X120666428Y-78329761D01*
X120666428Y-78520238D01*
X120618809Y-78615476D01*
X120571190Y-78663095D01*
X120475952Y-78710714D01*
%TO.C,U2*%
X124572380Y-90713095D02*
X125381904Y-90713095D01*
X125477142Y-90760714D01*
X125524761Y-90808333D01*
X125572380Y-90903571D01*
X125572380Y-91094047D01*
X125524761Y-91189285D01*
X125477142Y-91236904D01*
X125381904Y-91284523D01*
X124572380Y-91284523D01*
X124667619Y-91713095D02*
X124620000Y-91760714D01*
X124572380Y-91855952D01*
X124572380Y-92094047D01*
X124620000Y-92189285D01*
X124667619Y-92236904D01*
X124762857Y-92284523D01*
X124858095Y-92284523D01*
X125000952Y-92236904D01*
X125572380Y-91665476D01*
X125572380Y-92284523D01*
D11*
%TO.C,R11*%
X119267936Y-71115000D02*
X120722064Y-71115000D01*
X119267936Y-72935000D02*
X120722064Y-72935000D01*
%TO.C,C7*%
X120686252Y-68110000D02*
X119263748Y-68110000D01*
X120686252Y-66290000D02*
X119263748Y-66290000D01*
%TO.C,C11*%
X132263748Y-68110000D02*
X133686252Y-68110000D01*
X132263748Y-66290000D02*
X133686252Y-66290000D01*
%TO.C,C12*%
X162663748Y-66290000D02*
X164086252Y-66290000D01*
X162663748Y-68110000D02*
X164086252Y-68110000D01*
%TO.C,R17*%
X133722064Y-72935000D02*
X132267936Y-72935000D01*
X133722064Y-71115000D02*
X132267936Y-71115000D01*
%TO.C,G\u002A\u002A\u002A*%
G36*
X168926093Y-41233363D02*
G01*
X169073121Y-41246144D01*
X169131346Y-41310279D01*
X169141666Y-41466667D01*
X169141637Y-41484427D01*
X169128856Y-41631455D01*
X169064721Y-41689680D01*
X168908333Y-41700000D01*
X168890573Y-41699971D01*
X168743545Y-41687190D01*
X168685320Y-41623054D01*
X168675000Y-41466667D01*
X168675029Y-41448907D01*
X168687810Y-41301879D01*
X168751946Y-41243654D01*
X168908333Y-41233334D01*
X168926093Y-41233363D01*
G37*
G36*
X172659427Y-38900029D02*
G01*
X172806454Y-38912810D01*
X172864680Y-38976946D01*
X172875000Y-39133334D01*
X172874971Y-39151094D01*
X172862190Y-39298121D01*
X172798054Y-39356347D01*
X172641666Y-39366667D01*
X172623906Y-39366696D01*
X172476879Y-39379477D01*
X172418653Y-39443613D01*
X172408333Y-39600000D01*
X172408304Y-39617760D01*
X172395523Y-39764788D01*
X172331387Y-39823013D01*
X172175000Y-39833334D01*
X172157240Y-39833304D01*
X172010212Y-39820523D01*
X171951987Y-39756388D01*
X171941666Y-39600000D01*
X171941696Y-39582240D01*
X171954477Y-39435212D01*
X172018612Y-39376987D01*
X172175000Y-39366667D01*
X172192760Y-39366638D01*
X172339788Y-39353857D01*
X172398013Y-39289721D01*
X172408333Y-39133334D01*
X172408362Y-39115573D01*
X172421143Y-38968546D01*
X172485279Y-38910320D01*
X172641666Y-38900000D01*
X172659427Y-38900029D01*
G37*
G36*
X176141666Y-44500000D02*
G01*
X176608333Y-44500000D01*
X176608333Y-45433334D01*
X177541666Y-45433334D01*
X177541666Y-45666667D01*
X177541696Y-45684427D01*
X177554477Y-45831455D01*
X177618612Y-45889680D01*
X177775000Y-45900000D01*
X178008333Y-45900000D01*
X178008333Y-43566667D01*
X178475000Y-43566667D01*
X178475000Y-46366667D01*
X177541666Y-46366667D01*
X177541666Y-46133334D01*
X177541637Y-46115573D01*
X177528856Y-45968546D01*
X177464721Y-45910320D01*
X177308333Y-45900000D01*
X177290573Y-45900029D01*
X177143545Y-45912810D01*
X177085320Y-45976946D01*
X177075000Y-46133334D01*
X177074971Y-46151094D01*
X177062190Y-46298121D01*
X176998054Y-46356347D01*
X176841666Y-46366667D01*
X176823906Y-46366638D01*
X176676879Y-46353857D01*
X176618653Y-46289721D01*
X176608333Y-46133334D01*
X176608304Y-46115573D01*
X176595523Y-45968546D01*
X176531387Y-45910320D01*
X176375000Y-45900000D01*
X176357240Y-45900029D01*
X176210212Y-45912810D01*
X176151987Y-45976946D01*
X176141666Y-46133334D01*
X176141666Y-46366667D01*
X175208333Y-46366667D01*
X175208333Y-45900000D01*
X176141666Y-45900000D01*
X176141666Y-45433334D01*
X175208333Y-45433334D01*
X175208333Y-45900000D01*
X173808333Y-45900000D01*
X173808333Y-44500000D01*
X173341666Y-44500000D01*
X173341666Y-43566667D01*
X174275000Y-43566667D01*
X174275000Y-42633334D01*
X174741666Y-42633334D01*
X174741666Y-43566667D01*
X174975000Y-43566667D01*
X174992760Y-43566638D01*
X175139788Y-43553857D01*
X175198013Y-43489721D01*
X175208333Y-43333334D01*
X175208362Y-43315573D01*
X175221143Y-43168546D01*
X175285279Y-43110320D01*
X175441666Y-43100000D01*
X175459427Y-43099971D01*
X175606454Y-43087190D01*
X175664680Y-43023054D01*
X175675000Y-42866667D01*
X175674971Y-42848907D01*
X175662190Y-42701879D01*
X175598054Y-42643654D01*
X175441666Y-42633334D01*
X175423906Y-42633304D01*
X175276879Y-42620523D01*
X175218653Y-42556388D01*
X175208333Y-42400000D01*
X175208362Y-42382240D01*
X175221143Y-42235212D01*
X175285279Y-42176987D01*
X175441666Y-42166667D01*
X175459427Y-42166696D01*
X175606454Y-42179477D01*
X175664680Y-42243613D01*
X175675000Y-42400000D01*
X175675029Y-42417760D01*
X175687810Y-42564788D01*
X175751946Y-42623013D01*
X175908333Y-42633334D01*
X175926093Y-42633363D01*
X176073121Y-42646144D01*
X176131346Y-42710279D01*
X176141666Y-42866667D01*
X176141637Y-42884427D01*
X176128856Y-43031455D01*
X176064721Y-43089680D01*
X175908333Y-43100000D01*
X175890573Y-43100029D01*
X175743545Y-43112810D01*
X175685320Y-43176946D01*
X175675000Y-43333334D01*
X175675029Y-43351094D01*
X175687810Y-43498121D01*
X175751946Y-43556347D01*
X175908333Y-43566667D01*
X176141666Y-43566667D01*
X176141666Y-44500000D01*
X175208333Y-44500000D01*
X175208333Y-44733334D01*
X175208304Y-44751094D01*
X175195523Y-44898121D01*
X175131387Y-44956347D01*
X174975000Y-44966667D01*
X174741666Y-44966667D01*
X174741666Y-43800000D01*
X175208333Y-43800000D01*
X175208362Y-43817760D01*
X175221143Y-43964788D01*
X175285279Y-44023013D01*
X175441666Y-44033334D01*
X175459427Y-44033304D01*
X175606454Y-44020523D01*
X175664680Y-43956388D01*
X175675000Y-43800000D01*
X175674971Y-43782240D01*
X175662190Y-43635212D01*
X175598054Y-43576987D01*
X175441666Y-43566667D01*
X175423906Y-43566696D01*
X175276879Y-43579477D01*
X175218653Y-43643613D01*
X175208333Y-43800000D01*
X174741666Y-43800000D01*
X174741666Y-43566667D01*
X174275000Y-43566667D01*
X174275000Y-45433334D01*
X175208333Y-45433334D01*
X175208333Y-44966667D01*
X176141666Y-44966667D01*
X176141666Y-44500000D01*
G37*
G36*
X163075000Y-37966667D02*
G01*
X163075000Y-37500000D01*
X163541666Y-37500000D01*
X165875000Y-37500000D01*
X165875000Y-35166667D01*
X163541666Y-35166667D01*
X163541666Y-37500000D01*
X163075000Y-37500000D01*
X163075000Y-34700000D01*
X166341666Y-34700000D01*
X166341666Y-37966667D01*
X163075000Y-37966667D01*
G37*
G36*
X175208333Y-50100000D02*
G01*
X175208333Y-49633334D01*
X175675000Y-49633334D01*
X178008333Y-49633334D01*
X178008333Y-47300000D01*
X175675000Y-47300000D01*
X175675000Y-49633334D01*
X175208333Y-49633334D01*
X175208333Y-46833334D01*
X178475000Y-46833334D01*
X178475000Y-50100000D01*
X175208333Y-50100000D01*
G37*
G36*
X178475000Y-39366667D02*
G01*
X177541666Y-39366667D01*
X177541666Y-38433334D01*
X178475000Y-38433334D01*
X178475000Y-39366667D01*
G37*
G36*
X177075000Y-38666667D02*
G01*
X177074971Y-38684427D01*
X177062190Y-38831455D01*
X176998054Y-38889680D01*
X176841666Y-38900000D01*
X176823906Y-38900029D01*
X176676879Y-38912810D01*
X176618653Y-38976946D01*
X176608333Y-39133334D01*
X176608304Y-39151094D01*
X176595523Y-39298121D01*
X176531387Y-39356347D01*
X176375000Y-39366667D01*
X176141666Y-39366667D01*
X176141666Y-38433334D01*
X177075000Y-38433334D01*
X177075000Y-38666667D01*
G37*
G36*
X169859427Y-43566696D02*
G01*
X170006454Y-43579477D01*
X170064680Y-43643613D01*
X170075000Y-43800000D01*
X170074971Y-43817760D01*
X170062190Y-43964788D01*
X169998054Y-44023013D01*
X169841666Y-44033334D01*
X169823906Y-44033304D01*
X169676879Y-44020523D01*
X169618653Y-43956388D01*
X169608333Y-43800000D01*
X169608362Y-43782240D01*
X169621143Y-43635212D01*
X169685279Y-43576987D01*
X169841666Y-43566667D01*
X169859427Y-43566696D01*
G37*
G36*
X168675000Y-37966667D02*
G01*
X168675000Y-37033334D01*
X167741666Y-37033334D01*
X167741666Y-35400000D01*
X168208333Y-35400000D01*
X168208362Y-35417760D01*
X168221143Y-35564788D01*
X168285279Y-35623013D01*
X168441666Y-35633334D01*
X168459427Y-35633304D01*
X168606454Y-35620523D01*
X168664680Y-35556388D01*
X168675000Y-35400000D01*
X168674971Y-35382240D01*
X168662190Y-35235212D01*
X168598054Y-35176987D01*
X168441666Y-35166667D01*
X168423906Y-35166696D01*
X168276879Y-35179477D01*
X168218653Y-35243613D01*
X168208333Y-35400000D01*
X167741666Y-35400000D01*
X167741666Y-35166667D01*
X167508333Y-35166667D01*
X167490573Y-35166696D01*
X167343545Y-35179477D01*
X167285320Y-35243613D01*
X167275000Y-35400000D01*
X167274971Y-35417760D01*
X167262190Y-35564788D01*
X167198054Y-35623013D01*
X167041666Y-35633334D01*
X167023906Y-35633304D01*
X166876879Y-35620523D01*
X166818653Y-35556388D01*
X166808333Y-35400000D01*
X166808362Y-35382240D01*
X166821143Y-35235212D01*
X166885279Y-35176987D01*
X167041666Y-35166667D01*
X167059427Y-35166638D01*
X167206454Y-35153857D01*
X167264680Y-35089721D01*
X167275000Y-34933334D01*
X167275029Y-34915573D01*
X167287810Y-34768546D01*
X167351946Y-34710320D01*
X167508333Y-34700000D01*
X167526093Y-34700029D01*
X167673121Y-34712810D01*
X167731346Y-34776946D01*
X167741666Y-34933334D01*
X167741696Y-34951094D01*
X167754477Y-35098121D01*
X167818612Y-35156347D01*
X167975000Y-35166667D01*
X167992760Y-35166638D01*
X168139788Y-35153857D01*
X168198013Y-35089721D01*
X168208333Y-34933334D01*
X168208333Y-34700000D01*
X169608333Y-34700000D01*
X169608333Y-34933334D01*
X169608304Y-34951094D01*
X169595523Y-35098121D01*
X169531387Y-35156347D01*
X169375000Y-35166667D01*
X169141666Y-35166667D01*
X169141666Y-37966667D01*
X168675000Y-37966667D01*
G37*
G36*
X166592760Y-43566696D02*
G01*
X166739788Y-43579477D01*
X166798013Y-43643613D01*
X166808333Y-43800000D01*
X166808304Y-43817760D01*
X166795523Y-43964788D01*
X166731387Y-44023013D01*
X166575000Y-44033334D01*
X166557240Y-44033304D01*
X166410212Y-44020523D01*
X166351987Y-43956388D01*
X166341666Y-43800000D01*
X166341696Y-43782240D01*
X166354477Y-43635212D01*
X166418612Y-43576987D01*
X166575000Y-43566667D01*
X166592760Y-43566696D01*
G37*
G36*
X175208333Y-37966667D02*
G01*
X175208333Y-37500000D01*
X175675000Y-37500000D01*
X178008333Y-37500000D01*
X178008333Y-35166667D01*
X175675000Y-35166667D01*
X175675000Y-37500000D01*
X175208333Y-37500000D01*
X175208333Y-34700000D01*
X178475000Y-34700000D01*
X178475000Y-37966667D01*
X175208333Y-37966667D01*
G37*
G36*
X174526093Y-34700029D02*
G01*
X174673121Y-34712810D01*
X174731346Y-34776946D01*
X174741666Y-34933334D01*
X174741637Y-34951094D01*
X174728856Y-35098121D01*
X174664721Y-35156347D01*
X174508333Y-35166667D01*
X174490573Y-35166696D01*
X174343545Y-35179477D01*
X174285320Y-35243613D01*
X174275000Y-35400000D01*
X174274971Y-35417760D01*
X174262190Y-35564788D01*
X174198054Y-35623013D01*
X174041666Y-35633334D01*
X174023906Y-35633363D01*
X173876879Y-35646144D01*
X173818653Y-35710279D01*
X173808333Y-35866667D01*
X173808304Y-35884427D01*
X173795523Y-36031455D01*
X173731387Y-36089680D01*
X173575000Y-36100000D01*
X173341666Y-36100000D01*
X173341666Y-35166667D01*
X174275000Y-35166667D01*
X174275000Y-34933334D01*
X174275029Y-34915573D01*
X174287810Y-34768546D01*
X174351946Y-34710320D01*
X174508333Y-34700000D01*
X174526093Y-34700029D01*
G37*
G36*
X167741666Y-45433334D02*
G01*
X167275000Y-45433334D01*
X167275000Y-44500000D01*
X167741666Y-44500000D01*
X167741666Y-45433334D01*
G37*
G36*
X172875000Y-36566667D02*
G01*
X171941666Y-36566667D01*
X171941666Y-36333334D01*
X171941696Y-36315573D01*
X171954477Y-36168546D01*
X172018612Y-36110320D01*
X172175000Y-36100000D01*
X172192760Y-36099971D01*
X172339788Y-36087190D01*
X172398013Y-36023054D01*
X172408333Y-35866667D01*
X172408362Y-35848907D01*
X172421143Y-35701879D01*
X172485279Y-35643654D01*
X172641666Y-35633334D01*
X172875000Y-35633334D01*
X172875000Y-36566667D01*
G37*
G36*
X174526093Y-46366696D02*
G01*
X174673121Y-46379477D01*
X174731346Y-46443613D01*
X174741666Y-46600000D01*
X174741637Y-46617760D01*
X174728856Y-46764788D01*
X174664721Y-46823013D01*
X174508333Y-46833334D01*
X174490573Y-46833304D01*
X174343545Y-46820523D01*
X174285320Y-46756388D01*
X174275000Y-46600000D01*
X174275029Y-46582240D01*
X174287810Y-46435212D01*
X174351946Y-46376987D01*
X174508333Y-46366667D01*
X174526093Y-46366696D01*
G37*
G36*
X177541666Y-37033334D02*
G01*
X176141666Y-37033334D01*
X176141666Y-35633334D01*
X177541666Y-35633334D01*
X177541666Y-37033334D01*
G37*
G36*
X170326093Y-42633363D02*
G01*
X170473121Y-42646144D01*
X170531346Y-42710279D01*
X170541666Y-42866667D01*
X170541637Y-42884427D01*
X170528856Y-43031455D01*
X170464721Y-43089680D01*
X170308333Y-43100000D01*
X170290573Y-43099971D01*
X170143545Y-43087190D01*
X170085320Y-43023054D01*
X170075000Y-42866667D01*
X170075029Y-42848907D01*
X170087810Y-42701879D01*
X170151946Y-42643654D01*
X170308333Y-42633334D01*
X170326093Y-42633363D01*
G37*
G36*
X177326093Y-44500029D02*
G01*
X177473121Y-44512810D01*
X177531346Y-44576946D01*
X177541666Y-44733334D01*
X177541637Y-44751094D01*
X177528856Y-44898121D01*
X177464721Y-44956347D01*
X177308333Y-44966667D01*
X177290573Y-44966638D01*
X177143545Y-44953857D01*
X177085320Y-44889721D01*
X177075000Y-44733334D01*
X177075029Y-44715573D01*
X177087810Y-44568546D01*
X177151946Y-44510320D01*
X177308333Y-44500000D01*
X177326093Y-44500029D01*
G37*
G36*
X175459427Y-38433363D02*
G01*
X175606454Y-38446144D01*
X175664680Y-38510279D01*
X175675000Y-38666667D01*
X175674971Y-38684427D01*
X175662190Y-38831455D01*
X175598054Y-38889680D01*
X175441666Y-38900000D01*
X175423906Y-38899971D01*
X175276879Y-38887190D01*
X175218653Y-38823054D01*
X175208333Y-38666667D01*
X175208362Y-38648907D01*
X175221143Y-38501879D01*
X175285279Y-38443654D01*
X175441666Y-38433334D01*
X175459427Y-38433363D01*
G37*
G36*
X170075000Y-38433334D02*
G01*
X169841666Y-38433334D01*
X169823906Y-38433363D01*
X169676879Y-38446144D01*
X169618653Y-38510279D01*
X169608333Y-38666667D01*
X169608362Y-38684427D01*
X169621143Y-38831455D01*
X169685279Y-38889680D01*
X169841666Y-38900000D01*
X169859427Y-38900029D01*
X170006454Y-38912810D01*
X170064680Y-38976946D01*
X170075000Y-39133334D01*
X170074971Y-39151094D01*
X170062190Y-39298121D01*
X169998054Y-39356347D01*
X169841666Y-39366667D01*
X169823906Y-39366638D01*
X169676879Y-39353857D01*
X169618653Y-39289721D01*
X169608333Y-39133334D01*
X169608333Y-38900000D01*
X168208333Y-38900000D01*
X168208333Y-38433334D01*
X169608333Y-38433334D01*
X169608333Y-37500000D01*
X170075000Y-37500000D01*
X170075000Y-38433334D01*
G37*
G36*
X165408333Y-37033334D02*
G01*
X164008333Y-37033334D01*
X164008333Y-35633334D01*
X165408333Y-35633334D01*
X165408333Y-37033334D01*
G37*
G36*
X172659427Y-44966696D02*
G01*
X172806454Y-44979477D01*
X172864680Y-45043613D01*
X172875000Y-45200000D01*
X172874971Y-45217760D01*
X172862190Y-45364788D01*
X172798054Y-45423013D01*
X172641666Y-45433334D01*
X172623906Y-45433304D01*
X172476879Y-45420523D01*
X172418653Y-45356388D01*
X172408333Y-45200000D01*
X172408362Y-45182240D01*
X172421143Y-45035212D01*
X172485279Y-44976987D01*
X172641666Y-44966667D01*
X172659427Y-44966696D01*
G37*
G36*
X169141666Y-40300000D02*
G01*
X168208333Y-40300000D01*
X168208333Y-39833334D01*
X166808333Y-39833334D01*
X166808333Y-39366667D01*
X169141666Y-39366667D01*
X169141666Y-40300000D01*
G37*
G36*
X173341666Y-35166667D02*
G01*
X171941666Y-35166667D01*
X171941666Y-35400000D01*
X171941637Y-35417760D01*
X171928856Y-35564788D01*
X171864721Y-35623013D01*
X171708333Y-35633334D01*
X171690573Y-35633304D01*
X171543545Y-35620523D01*
X171485320Y-35556388D01*
X171475000Y-35400000D01*
X171474971Y-35382240D01*
X171462190Y-35235212D01*
X171398054Y-35176987D01*
X171241666Y-35166667D01*
X171223906Y-35166638D01*
X171076879Y-35153857D01*
X171018653Y-35089721D01*
X171008333Y-34933334D01*
X171008362Y-34915573D01*
X171021143Y-34768546D01*
X171085279Y-34710320D01*
X171241666Y-34700000D01*
X171259427Y-34700029D01*
X171406454Y-34712810D01*
X171464680Y-34776946D01*
X171475000Y-34933334D01*
X171475029Y-34951094D01*
X171487810Y-35098121D01*
X171551946Y-35156347D01*
X171708333Y-35166667D01*
X171726093Y-35166638D01*
X171873121Y-35153857D01*
X171931346Y-35089721D01*
X171941666Y-34933334D01*
X171941666Y-34700000D01*
X173341666Y-34700000D01*
X173341666Y-35166667D01*
G37*
G36*
X166126093Y-38433363D02*
G01*
X166273121Y-38446144D01*
X166331346Y-38510279D01*
X166341666Y-38666667D01*
X166341637Y-38684427D01*
X166328856Y-38831455D01*
X166264721Y-38889680D01*
X166108333Y-38900000D01*
X166090573Y-38899971D01*
X165943545Y-38887190D01*
X165885320Y-38823054D01*
X165875000Y-38666667D01*
X165875029Y-38648907D01*
X165887810Y-38501879D01*
X165951946Y-38443654D01*
X166108333Y-38433334D01*
X166126093Y-38433363D01*
G37*
G36*
X176608333Y-40766667D02*
G01*
X176608333Y-39833334D01*
X176841666Y-39833334D01*
X176859427Y-39833304D01*
X177006454Y-39820523D01*
X177064680Y-39756388D01*
X177075000Y-39600000D01*
X177075029Y-39582240D01*
X177087810Y-39435212D01*
X177151946Y-39376987D01*
X177308333Y-39366667D01*
X177541666Y-39366667D01*
X177541666Y-39600000D01*
X177541637Y-39617760D01*
X177528856Y-39764788D01*
X177464721Y-39823013D01*
X177308333Y-39833334D01*
X177290573Y-39833363D01*
X177143545Y-39846144D01*
X177085320Y-39910279D01*
X177075000Y-40066667D01*
X177075029Y-40084427D01*
X177087810Y-40231455D01*
X177151946Y-40289680D01*
X177308333Y-40300000D01*
X177541666Y-40300000D01*
X177541666Y-41233334D01*
X177075000Y-41233334D01*
X177075000Y-42166667D01*
X177541666Y-42166667D01*
X177541666Y-42400000D01*
X177541696Y-42417760D01*
X177554477Y-42564788D01*
X177618612Y-42623013D01*
X177775000Y-42633334D01*
X177792760Y-42633363D01*
X177939788Y-42646144D01*
X177998013Y-42710279D01*
X178008333Y-42866667D01*
X178008333Y-43100000D01*
X177075000Y-43100000D01*
X177075000Y-43333334D01*
X177075029Y-43351094D01*
X177087810Y-43498121D01*
X177151946Y-43556347D01*
X177308333Y-43566667D01*
X177326093Y-43566696D01*
X177473121Y-43579477D01*
X177531346Y-43643613D01*
X177541666Y-43800000D01*
X177541637Y-43817760D01*
X177528856Y-43964788D01*
X177464721Y-44023013D01*
X177308333Y-44033334D01*
X177290573Y-44033304D01*
X177143545Y-44020523D01*
X177085320Y-43956388D01*
X177075000Y-43800000D01*
X177074971Y-43782240D01*
X177062190Y-43635212D01*
X176998054Y-43576987D01*
X176841666Y-43566667D01*
X176608333Y-43566667D01*
X176608333Y-42633334D01*
X176841666Y-42633334D01*
X176859427Y-42633304D01*
X177006454Y-42620523D01*
X177064680Y-42556388D01*
X177075000Y-42400000D01*
X177074971Y-42382240D01*
X177062190Y-42235212D01*
X176998054Y-42176987D01*
X176841666Y-42166667D01*
X176823906Y-42166638D01*
X176676879Y-42153857D01*
X176618653Y-42089721D01*
X176608333Y-41933334D01*
X176608304Y-41915573D01*
X176595523Y-41768546D01*
X176531387Y-41710320D01*
X176375000Y-41700000D01*
X176357240Y-41699971D01*
X176210212Y-41687190D01*
X176151987Y-41623054D01*
X176141666Y-41466667D01*
X176141637Y-41448907D01*
X176128856Y-41301879D01*
X176064721Y-41243654D01*
X175908333Y-41233334D01*
X175890573Y-41233363D01*
X175743545Y-41246144D01*
X175685320Y-41310279D01*
X175675000Y-41466667D01*
X175674971Y-41484427D01*
X175662190Y-41631455D01*
X175598054Y-41689680D01*
X175441666Y-41700000D01*
X175423906Y-41699971D01*
X175276879Y-41687190D01*
X175218653Y-41623054D01*
X175208333Y-41466667D01*
X175208304Y-41448907D01*
X175195523Y-41301879D01*
X175131387Y-41243654D01*
X174975000Y-41233334D01*
X174957240Y-41233363D01*
X174810212Y-41246144D01*
X174751987Y-41310279D01*
X174741666Y-41466667D01*
X174741637Y-41484427D01*
X174728856Y-41631455D01*
X174664721Y-41689680D01*
X174508333Y-41700000D01*
X174490573Y-41700029D01*
X174343545Y-41712810D01*
X174285320Y-41776946D01*
X174275000Y-41933334D01*
X174274971Y-41951094D01*
X174262190Y-42098121D01*
X174198054Y-42156347D01*
X174041666Y-42166667D01*
X174023906Y-42166638D01*
X173876879Y-42153857D01*
X173818653Y-42089721D01*
X173808333Y-41933334D01*
X173808304Y-41915573D01*
X173795523Y-41768546D01*
X173731387Y-41710320D01*
X173575000Y-41700000D01*
X173557240Y-41700029D01*
X173410212Y-41712810D01*
X173351987Y-41776946D01*
X173341666Y-41933334D01*
X173341637Y-41951094D01*
X173328856Y-42098121D01*
X173264721Y-42156347D01*
X173108333Y-42166667D01*
X173090573Y-42166638D01*
X172943545Y-42153857D01*
X172885320Y-42089721D01*
X172875000Y-41933334D01*
X172874971Y-41915573D01*
X172862190Y-41768546D01*
X172798054Y-41710320D01*
X172641666Y-41700000D01*
X172623906Y-41700029D01*
X172476879Y-41712810D01*
X172418653Y-41776946D01*
X172408333Y-41933334D01*
X172408304Y-41951094D01*
X172395523Y-42098121D01*
X172331387Y-42156347D01*
X172175000Y-42166667D01*
X171941666Y-42166667D01*
X171941666Y-43100000D01*
X171008333Y-43100000D01*
X171008333Y-43566667D01*
X171941666Y-43566667D01*
X171941666Y-45433334D01*
X171708333Y-45433334D01*
X171690573Y-45433363D01*
X171543545Y-45446144D01*
X171485320Y-45510279D01*
X171475000Y-45666667D01*
X171475000Y-45900000D01*
X172408333Y-45900000D01*
X172408333Y-46133334D01*
X172408362Y-46151094D01*
X172421143Y-46298121D01*
X172485279Y-46356347D01*
X172641666Y-46366667D01*
X172659427Y-46366696D01*
X172806454Y-46379477D01*
X172864680Y-46443613D01*
X172875000Y-46600000D01*
X172874971Y-46617760D01*
X172862190Y-46764788D01*
X172798054Y-46823013D01*
X172641666Y-46833334D01*
X172623906Y-46833304D01*
X172476879Y-46820523D01*
X172418653Y-46756388D01*
X172408333Y-46600000D01*
X172408304Y-46582240D01*
X172395523Y-46435212D01*
X172331387Y-46376987D01*
X172175000Y-46366667D01*
X171941666Y-46366667D01*
X171941666Y-47300000D01*
X172875000Y-47300000D01*
X172875000Y-47533334D01*
X172875029Y-47551094D01*
X172887810Y-47698121D01*
X172951946Y-47756347D01*
X173108333Y-47766667D01*
X173126093Y-47766696D01*
X173273121Y-47779477D01*
X173331346Y-47843613D01*
X173341666Y-48000000D01*
X173341696Y-48017760D01*
X173354477Y-48164788D01*
X173418612Y-48223013D01*
X173575000Y-48233334D01*
X173592760Y-48233363D01*
X173739788Y-48246144D01*
X173798013Y-48310279D01*
X173808333Y-48466667D01*
X173808362Y-48484427D01*
X173821143Y-48631455D01*
X173885279Y-48689680D01*
X174041666Y-48700000D01*
X174275000Y-48700000D01*
X174275000Y-47766667D01*
X174041666Y-47766667D01*
X174023906Y-47766638D01*
X173876879Y-47753857D01*
X173818653Y-47689721D01*
X173808333Y-47533334D01*
X173808362Y-47515573D01*
X173821143Y-47368546D01*
X173885279Y-47310320D01*
X174041666Y-47300000D01*
X174059427Y-47300029D01*
X174206454Y-47312810D01*
X174264680Y-47376946D01*
X174275000Y-47533334D01*
X174275029Y-47551094D01*
X174287810Y-47698121D01*
X174351946Y-47756347D01*
X174508333Y-47766667D01*
X174741666Y-47766667D01*
X174741666Y-48700000D01*
X174508333Y-48700000D01*
X174490573Y-48700029D01*
X174343545Y-48712810D01*
X174285320Y-48776946D01*
X174275000Y-48933334D01*
X174275029Y-48951094D01*
X174287810Y-49098121D01*
X174351946Y-49156347D01*
X174508333Y-49166667D01*
X174741666Y-49166667D01*
X174741666Y-50100000D01*
X173808333Y-50100000D01*
X173808333Y-49866667D01*
X173808304Y-49848907D01*
X173795523Y-49701879D01*
X173731387Y-49643654D01*
X173575000Y-49633334D01*
X173557240Y-49633363D01*
X173410212Y-49646144D01*
X173351987Y-49710279D01*
X173341666Y-49866667D01*
X173341637Y-49884427D01*
X173328856Y-50031455D01*
X173264721Y-50089680D01*
X173108333Y-50100000D01*
X172875000Y-50100000D01*
X172875000Y-49166667D01*
X173808333Y-49166667D01*
X173808333Y-48700000D01*
X172875000Y-48700000D01*
X172875000Y-49166667D01*
X172408333Y-49166667D01*
X172408333Y-50100000D01*
X171941666Y-50100000D01*
X171941666Y-49166667D01*
X171475000Y-49166667D01*
X171475000Y-50100000D01*
X170541666Y-50100000D01*
X170541666Y-49633334D01*
X169608333Y-49633334D01*
X169608333Y-49866667D01*
X169608304Y-49884427D01*
X169595523Y-50031455D01*
X169531387Y-50089680D01*
X169375000Y-50100000D01*
X169357240Y-50099971D01*
X169210212Y-50087190D01*
X169151987Y-50023054D01*
X169141666Y-49866667D01*
X169141696Y-49848907D01*
X169154477Y-49701879D01*
X169218612Y-49643654D01*
X169375000Y-49633334D01*
X169392760Y-49633304D01*
X169539788Y-49620523D01*
X169598013Y-49556388D01*
X169608333Y-49400000D01*
X169608333Y-49166667D01*
X168208333Y-49166667D01*
X168208333Y-49400000D01*
X168208362Y-49417760D01*
X168221143Y-49564788D01*
X168285279Y-49623013D01*
X168441666Y-49633334D01*
X168459427Y-49633363D01*
X168606454Y-49646144D01*
X168664680Y-49710279D01*
X168675000Y-49866667D01*
X168674971Y-49884427D01*
X168662190Y-50031455D01*
X168598054Y-50089680D01*
X168441666Y-50100000D01*
X168423906Y-50099971D01*
X168276879Y-50087190D01*
X168218653Y-50023054D01*
X168208333Y-49866667D01*
X168208304Y-49848907D01*
X168195523Y-49701879D01*
X168131387Y-49643654D01*
X167975000Y-49633334D01*
X167957240Y-49633363D01*
X167810212Y-49646144D01*
X167751987Y-49710279D01*
X167741666Y-49866667D01*
X167741637Y-49884427D01*
X167728856Y-50031455D01*
X167664721Y-50089680D01*
X167508333Y-50100000D01*
X167275000Y-50100000D01*
X167275000Y-49166667D01*
X166808333Y-49166667D01*
X166808333Y-50100000D01*
X165875000Y-50100000D01*
X165875000Y-49166667D01*
X165408333Y-49166667D01*
X165408333Y-50100000D01*
X164475000Y-50100000D01*
X164475000Y-49866667D01*
X164474971Y-49848907D01*
X164462190Y-49701879D01*
X164398054Y-49643654D01*
X164241666Y-49633334D01*
X164223906Y-49633304D01*
X164076879Y-49620523D01*
X164018653Y-49556388D01*
X164008333Y-49400000D01*
X164008333Y-49166667D01*
X163075000Y-49166667D01*
X163075000Y-48933334D01*
X164008333Y-48933334D01*
X164008362Y-48951094D01*
X164021143Y-49098121D01*
X164085279Y-49156347D01*
X164241666Y-49166667D01*
X164259427Y-49166638D01*
X164406454Y-49153857D01*
X164464680Y-49089721D01*
X164475000Y-48933334D01*
X164941666Y-48933334D01*
X164941696Y-48951094D01*
X164954477Y-49098121D01*
X165018612Y-49156347D01*
X165175000Y-49166667D01*
X165192760Y-49166638D01*
X165339788Y-49153857D01*
X165398013Y-49089721D01*
X165408333Y-48933334D01*
X166341666Y-48933334D01*
X166341696Y-48951094D01*
X166354477Y-49098121D01*
X166418612Y-49156347D01*
X166575000Y-49166667D01*
X166592760Y-49166638D01*
X166739788Y-49153857D01*
X166798013Y-49089721D01*
X166808333Y-48933334D01*
X166808362Y-48915573D01*
X166821143Y-48768546D01*
X166885279Y-48710320D01*
X167041666Y-48700000D01*
X167059427Y-48700029D01*
X167206454Y-48712810D01*
X167264680Y-48776946D01*
X167275000Y-48933334D01*
X167275000Y-49166667D01*
X168208333Y-49166667D01*
X168208333Y-48933334D01*
X168208362Y-48915573D01*
X168221143Y-48768546D01*
X168285279Y-48710320D01*
X168441666Y-48700000D01*
X168459427Y-48699971D01*
X168606454Y-48687190D01*
X168664680Y-48623054D01*
X168675000Y-48466667D01*
X168675029Y-48448907D01*
X168687810Y-48301879D01*
X168751946Y-48243654D01*
X168908333Y-48233334D01*
X168926093Y-48233363D01*
X169073121Y-48246144D01*
X169131346Y-48310279D01*
X169141666Y-48466667D01*
X169141696Y-48484427D01*
X169154477Y-48631455D01*
X169218612Y-48689680D01*
X169375000Y-48700000D01*
X169392760Y-48700029D01*
X169539788Y-48712810D01*
X169598013Y-48776946D01*
X169608333Y-48933334D01*
X169608333Y-49166667D01*
X170541666Y-49166667D01*
X170541666Y-48933334D01*
X170541696Y-48915573D01*
X170554477Y-48768546D01*
X170618612Y-48710320D01*
X170775000Y-48700000D01*
X170792760Y-48700029D01*
X170939788Y-48712810D01*
X170998013Y-48776946D01*
X171008333Y-48933334D01*
X171008362Y-48951094D01*
X171021143Y-49098121D01*
X171085279Y-49156347D01*
X171241666Y-49166667D01*
X171259427Y-49166638D01*
X171406454Y-49153857D01*
X171464680Y-49089721D01*
X171475000Y-48933334D01*
X171475000Y-48700000D01*
X172875000Y-48700000D01*
X172875000Y-48466667D01*
X172874971Y-48448907D01*
X172862190Y-48301879D01*
X172798054Y-48243654D01*
X172641666Y-48233334D01*
X172623906Y-48233304D01*
X172476879Y-48220523D01*
X172418653Y-48156388D01*
X172408333Y-48000000D01*
X172408333Y-47766667D01*
X171475000Y-47766667D01*
X171475000Y-48000000D01*
X171474971Y-48017760D01*
X171462190Y-48164788D01*
X171398054Y-48223013D01*
X171241666Y-48233334D01*
X171008333Y-48233334D01*
X171008333Y-47300000D01*
X170775000Y-47300000D01*
X170757240Y-47300029D01*
X170610212Y-47312810D01*
X170551987Y-47376946D01*
X170541666Y-47533334D01*
X170541666Y-47766667D01*
X169141666Y-47766667D01*
X169141666Y-47066667D01*
X169608333Y-47066667D01*
X169608362Y-47084427D01*
X169621143Y-47231455D01*
X169685279Y-47289680D01*
X169841666Y-47300000D01*
X169859427Y-47299971D01*
X170006454Y-47287190D01*
X170064680Y-47223054D01*
X170075000Y-47066667D01*
X170075029Y-47048907D01*
X170087810Y-46901879D01*
X170151946Y-46843654D01*
X170308333Y-46833334D01*
X170326093Y-46833304D01*
X170473121Y-46820523D01*
X170531346Y-46756388D01*
X170541666Y-46600000D01*
X170541696Y-46582240D01*
X170554477Y-46435212D01*
X170618612Y-46376987D01*
X170775000Y-46366667D01*
X170792760Y-46366696D01*
X170939788Y-46379477D01*
X170998013Y-46443613D01*
X171008333Y-46600000D01*
X171008362Y-46617760D01*
X171021143Y-46764788D01*
X171085279Y-46823013D01*
X171241666Y-46833334D01*
X171259427Y-46833304D01*
X171406454Y-46820523D01*
X171464680Y-46756388D01*
X171475000Y-46600000D01*
X171474971Y-46582240D01*
X171462190Y-46435212D01*
X171398054Y-46376987D01*
X171241666Y-46366667D01*
X171008333Y-46366667D01*
X171008333Y-45433334D01*
X170775000Y-45433334D01*
X170757240Y-45433363D01*
X170610212Y-45446144D01*
X170551987Y-45510279D01*
X170541666Y-45666667D01*
X170541637Y-45684427D01*
X170528856Y-45831455D01*
X170464721Y-45889680D01*
X170308333Y-45900000D01*
X170075000Y-45900000D01*
X170075000Y-46833334D01*
X169841666Y-46833334D01*
X169823906Y-46833363D01*
X169676879Y-46846144D01*
X169618653Y-46910279D01*
X169608333Y-47066667D01*
X169141666Y-47066667D01*
X169141666Y-46833334D01*
X168908333Y-46833334D01*
X168890573Y-46833304D01*
X168743545Y-46820523D01*
X168685320Y-46756388D01*
X168675000Y-46600000D01*
X168675029Y-46582240D01*
X168687810Y-46435212D01*
X168751946Y-46376987D01*
X168908333Y-46366667D01*
X168926093Y-46366638D01*
X169073121Y-46353857D01*
X169131346Y-46289721D01*
X169141666Y-46133334D01*
X169141637Y-46115573D01*
X169128856Y-45968546D01*
X169064721Y-45910320D01*
X168908333Y-45900000D01*
X168675000Y-45900000D01*
X168675000Y-46133334D01*
X168674971Y-46151094D01*
X168662190Y-46298121D01*
X168598054Y-46356347D01*
X168441666Y-46366667D01*
X168423906Y-46366696D01*
X168276879Y-46379477D01*
X168218653Y-46443613D01*
X168208333Y-46600000D01*
X168208333Y-46833334D01*
X167275000Y-46833334D01*
X167275000Y-47066667D01*
X167275029Y-47084427D01*
X167287810Y-47231455D01*
X167351946Y-47289680D01*
X167508333Y-47300000D01*
X167526093Y-47300029D01*
X167673121Y-47312810D01*
X167731346Y-47376946D01*
X167741666Y-47533334D01*
X167741696Y-47551094D01*
X167754477Y-47698121D01*
X167818612Y-47756347D01*
X167975000Y-47766667D01*
X167992760Y-47766696D01*
X168139788Y-47779477D01*
X168198013Y-47843613D01*
X168208333Y-48000000D01*
X168208304Y-48017760D01*
X168195523Y-48164788D01*
X168131387Y-48223013D01*
X167975000Y-48233334D01*
X167957240Y-48233363D01*
X167810212Y-48246144D01*
X167751987Y-48310279D01*
X167741666Y-48466667D01*
X167741637Y-48484427D01*
X167728856Y-48631455D01*
X167664721Y-48689680D01*
X167508333Y-48700000D01*
X167490573Y-48699971D01*
X167343545Y-48687190D01*
X167285320Y-48623054D01*
X167275000Y-48466667D01*
X167274971Y-48448907D01*
X167262190Y-48301879D01*
X167198054Y-48243654D01*
X167041666Y-48233334D01*
X167023906Y-48233363D01*
X166876879Y-48246144D01*
X166818653Y-48310279D01*
X166808333Y-48466667D01*
X166808304Y-48484427D01*
X166795523Y-48631455D01*
X166731387Y-48689680D01*
X166575000Y-48700000D01*
X166557240Y-48700029D01*
X166410212Y-48712810D01*
X166351987Y-48776946D01*
X166341666Y-48933334D01*
X165408333Y-48933334D01*
X165408304Y-48915573D01*
X165395523Y-48768546D01*
X165331387Y-48710320D01*
X165175000Y-48700000D01*
X165157240Y-48700029D01*
X165010212Y-48712810D01*
X164951987Y-48776946D01*
X164941666Y-48933334D01*
X164475000Y-48933334D01*
X164474971Y-48915573D01*
X164462190Y-48768546D01*
X164398054Y-48710320D01*
X164241666Y-48700000D01*
X164223906Y-48700029D01*
X164076879Y-48712810D01*
X164018653Y-48776946D01*
X164008333Y-48933334D01*
X163075000Y-48933334D01*
X163075029Y-48915573D01*
X163087810Y-48768546D01*
X163151946Y-48710320D01*
X163308333Y-48700000D01*
X163326093Y-48699971D01*
X163473121Y-48687190D01*
X163531346Y-48623054D01*
X163541666Y-48466667D01*
X163541666Y-48233334D01*
X164475000Y-48233334D01*
X164475000Y-48466667D01*
X164475029Y-48484427D01*
X164487810Y-48631455D01*
X164551946Y-48689680D01*
X164708333Y-48700000D01*
X164941666Y-48700000D01*
X164941666Y-47766667D01*
X165408333Y-47766667D01*
X166808333Y-47766667D01*
X166808333Y-46366667D01*
X165408333Y-46366667D01*
X165408333Y-47766667D01*
X164941666Y-47766667D01*
X164708333Y-47766667D01*
X164690573Y-47766638D01*
X164543545Y-47753857D01*
X164485320Y-47689721D01*
X164475000Y-47533334D01*
X164475029Y-47515573D01*
X164487810Y-47368546D01*
X164551946Y-47310320D01*
X164708333Y-47300000D01*
X164941666Y-47300000D01*
X164941666Y-45433334D01*
X164708333Y-45433334D01*
X164690573Y-45433304D01*
X164543545Y-45420523D01*
X164485320Y-45356388D01*
X164475000Y-45200000D01*
X165408333Y-45200000D01*
X165408362Y-45217760D01*
X165421143Y-45364788D01*
X165485279Y-45423013D01*
X165641666Y-45433334D01*
X165659427Y-45433304D01*
X165806454Y-45420523D01*
X165864680Y-45356388D01*
X165875000Y-45200000D01*
X165875029Y-45182240D01*
X165887810Y-45035212D01*
X165951946Y-44976987D01*
X166108333Y-44966667D01*
X166126093Y-44966638D01*
X166273121Y-44953857D01*
X166331346Y-44889721D01*
X166341666Y-44733334D01*
X166341696Y-44715573D01*
X166354477Y-44568546D01*
X166418612Y-44510320D01*
X166575000Y-44500000D01*
X166808333Y-44500000D01*
X166808333Y-45433334D01*
X166575000Y-45433334D01*
X166557240Y-45433363D01*
X166410212Y-45446144D01*
X166351987Y-45510279D01*
X166341666Y-45666667D01*
X166341666Y-45900000D01*
X168675000Y-45900000D01*
X168675000Y-44966667D01*
X169608333Y-44966667D01*
X169608333Y-45900000D01*
X170075000Y-45900000D01*
X170075000Y-44966667D01*
X170541666Y-44966667D01*
X170541666Y-44033334D01*
X170775000Y-44033334D01*
X170792760Y-44033304D01*
X170939788Y-44020523D01*
X170998013Y-43956388D01*
X171008333Y-43800000D01*
X171008304Y-43782240D01*
X170995523Y-43635212D01*
X170931387Y-43576987D01*
X170775000Y-43566667D01*
X170757240Y-43566638D01*
X170610212Y-43553857D01*
X170551987Y-43489721D01*
X170541666Y-43333334D01*
X170541696Y-43315573D01*
X170554477Y-43168546D01*
X170618612Y-43110320D01*
X170775000Y-43100000D01*
X170792760Y-43099971D01*
X170939788Y-43087190D01*
X170998013Y-43023054D01*
X171008333Y-42866667D01*
X171008304Y-42848907D01*
X170995523Y-42701879D01*
X170931387Y-42643654D01*
X170775000Y-42633334D01*
X170757240Y-42633304D01*
X170610212Y-42620523D01*
X170551987Y-42556388D01*
X170541666Y-42400000D01*
X170541696Y-42382240D01*
X170554477Y-42235212D01*
X170618612Y-42176987D01*
X170775000Y-42166667D01*
X171008333Y-42166667D01*
X171008333Y-41233334D01*
X171941666Y-41233334D01*
X171941666Y-41466667D01*
X171941696Y-41484427D01*
X171954477Y-41631455D01*
X172018612Y-41689680D01*
X172175000Y-41700000D01*
X172192760Y-41699971D01*
X172339788Y-41687190D01*
X172398013Y-41623054D01*
X172408333Y-41466667D01*
X173808333Y-41466667D01*
X173808362Y-41484427D01*
X173821143Y-41631455D01*
X173885279Y-41689680D01*
X174041666Y-41700000D01*
X174059427Y-41699971D01*
X174206454Y-41687190D01*
X174264680Y-41623054D01*
X174275000Y-41466667D01*
X174274971Y-41448907D01*
X174262190Y-41301879D01*
X174198054Y-41243654D01*
X174041666Y-41233334D01*
X173808333Y-41233334D01*
X173808333Y-41466667D01*
X172408333Y-41466667D01*
X172408333Y-41233334D01*
X173808333Y-41233334D01*
X173808333Y-41000000D01*
X175208333Y-41000000D01*
X175208362Y-41017760D01*
X175221143Y-41164788D01*
X175285279Y-41223013D01*
X175441666Y-41233334D01*
X175459427Y-41233304D01*
X175606454Y-41220523D01*
X175664680Y-41156388D01*
X175675000Y-41000000D01*
X175674971Y-40982240D01*
X175662190Y-40835212D01*
X175598054Y-40776987D01*
X175441666Y-40766667D01*
X175423906Y-40766696D01*
X175276879Y-40779477D01*
X175218653Y-40843613D01*
X175208333Y-41000000D01*
X173808333Y-41000000D01*
X173808333Y-40300000D01*
X173575000Y-40300000D01*
X173557240Y-40300029D01*
X173410212Y-40312810D01*
X173351987Y-40376946D01*
X173341666Y-40533334D01*
X173341666Y-40766667D01*
X172408333Y-40766667D01*
X172408333Y-41000000D01*
X172408304Y-41017760D01*
X172395523Y-41164788D01*
X172331387Y-41223013D01*
X172175000Y-41233334D01*
X172157240Y-41233304D01*
X172010212Y-41220523D01*
X171951987Y-41156388D01*
X171941666Y-41000000D01*
X171941666Y-40766667D01*
X171008333Y-40766667D01*
X171008333Y-41000000D01*
X171008304Y-41017760D01*
X170995523Y-41164788D01*
X170931387Y-41223013D01*
X170775000Y-41233334D01*
X170757240Y-41233363D01*
X170610212Y-41246144D01*
X170551987Y-41310279D01*
X170541666Y-41466667D01*
X170541637Y-41484427D01*
X170528856Y-41631455D01*
X170464721Y-41689680D01*
X170308333Y-41700000D01*
X170075000Y-41700000D01*
X170075000Y-42633334D01*
X169608333Y-42633334D01*
X169608333Y-43566667D01*
X169141666Y-43566667D01*
X169141666Y-42633334D01*
X168208333Y-42633334D01*
X168208333Y-44033334D01*
X168441666Y-44033334D01*
X168459427Y-44033304D01*
X168606454Y-44020523D01*
X168664680Y-43956388D01*
X168675000Y-43800000D01*
X168675029Y-43782240D01*
X168687810Y-43635212D01*
X168751946Y-43576987D01*
X168908333Y-43566667D01*
X168926093Y-43566696D01*
X169073121Y-43579477D01*
X169131346Y-43643613D01*
X169141666Y-43800000D01*
X169141696Y-43817760D01*
X169154477Y-43964788D01*
X169218612Y-44023013D01*
X169375000Y-44033334D01*
X169392760Y-44033363D01*
X169539788Y-44046144D01*
X169598013Y-44110279D01*
X169608333Y-44266667D01*
X169608333Y-44500000D01*
X167741666Y-44500000D01*
X167741666Y-44266667D01*
X167741637Y-44248907D01*
X167728856Y-44101879D01*
X167664721Y-44043654D01*
X167508333Y-44033334D01*
X167490573Y-44033304D01*
X167343545Y-44020523D01*
X167285320Y-43956388D01*
X167275000Y-43800000D01*
X167274971Y-43782240D01*
X167262190Y-43635212D01*
X167198054Y-43576987D01*
X167041666Y-43566667D01*
X167023906Y-43566638D01*
X166876879Y-43553857D01*
X166818653Y-43489721D01*
X166808333Y-43333334D01*
X166808304Y-43315573D01*
X166795523Y-43168546D01*
X166731387Y-43110320D01*
X166575000Y-43100000D01*
X166557240Y-43100029D01*
X166410212Y-43112810D01*
X166351987Y-43176946D01*
X166341666Y-43333334D01*
X166341637Y-43351094D01*
X166328856Y-43498121D01*
X166264721Y-43556347D01*
X166108333Y-43566667D01*
X166090573Y-43566696D01*
X165943545Y-43579477D01*
X165885320Y-43643613D01*
X165875000Y-43800000D01*
X165875029Y-43817760D01*
X165887810Y-43964788D01*
X165951946Y-44023013D01*
X166108333Y-44033334D01*
X166126093Y-44033363D01*
X166273121Y-44046144D01*
X166331346Y-44110279D01*
X166341666Y-44266667D01*
X166341637Y-44284427D01*
X166328856Y-44431455D01*
X166264721Y-44489680D01*
X166108333Y-44500000D01*
X166090573Y-44500029D01*
X165943545Y-44512810D01*
X165885320Y-44576946D01*
X165875000Y-44733334D01*
X165874971Y-44751094D01*
X165862190Y-44898121D01*
X165798054Y-44956347D01*
X165641666Y-44966667D01*
X165623906Y-44966696D01*
X165476879Y-44979477D01*
X165418653Y-45043613D01*
X165408333Y-45200000D01*
X164475000Y-45200000D01*
X164474971Y-45182240D01*
X164462190Y-45035212D01*
X164398054Y-44976987D01*
X164241666Y-44966667D01*
X164008333Y-44966667D01*
X164008333Y-46366667D01*
X164241666Y-46366667D01*
X164259427Y-46366696D01*
X164406454Y-46379477D01*
X164464680Y-46443613D01*
X164475000Y-46600000D01*
X164475000Y-46833334D01*
X163075000Y-46833334D01*
X163075000Y-45433334D01*
X163541666Y-45433334D01*
X163541666Y-44500000D01*
X164475000Y-44500000D01*
X164475000Y-44733334D01*
X164475029Y-44751094D01*
X164487810Y-44898121D01*
X164551946Y-44956347D01*
X164708333Y-44966667D01*
X164941666Y-44966667D01*
X164941666Y-44033334D01*
X165408333Y-44033334D01*
X165408333Y-43100000D01*
X165641666Y-43100000D01*
X165659427Y-43099971D01*
X165806454Y-43087190D01*
X165864680Y-43023054D01*
X165875000Y-42866667D01*
X165874971Y-42848907D01*
X165862190Y-42701879D01*
X165798054Y-42643654D01*
X165641666Y-42633334D01*
X165623906Y-42633304D01*
X165476879Y-42620523D01*
X165418653Y-42556388D01*
X165408333Y-42400000D01*
X165408304Y-42382240D01*
X165395523Y-42235212D01*
X165331387Y-42176987D01*
X165175000Y-42166667D01*
X165157240Y-42166638D01*
X165010212Y-42153857D01*
X164951987Y-42089721D01*
X164941666Y-41933334D01*
X164941637Y-41915573D01*
X164928856Y-41768546D01*
X164864721Y-41710320D01*
X164708333Y-41700000D01*
X164690573Y-41700029D01*
X164543545Y-41712810D01*
X164485320Y-41776946D01*
X164475000Y-41933334D01*
X164474971Y-41951094D01*
X164462190Y-42098121D01*
X164398054Y-42156347D01*
X164241666Y-42166667D01*
X164223906Y-42166696D01*
X164076879Y-42179477D01*
X164018653Y-42243613D01*
X164008333Y-42400000D01*
X164008333Y-42633334D01*
X163075000Y-42633334D01*
X163075000Y-42400000D01*
X163075029Y-42382240D01*
X163087810Y-42235212D01*
X163151946Y-42176987D01*
X163308333Y-42166667D01*
X163326093Y-42166638D01*
X163473121Y-42153857D01*
X163531346Y-42089721D01*
X163541666Y-41933334D01*
X163541666Y-41700000D01*
X164475000Y-41700000D01*
X164475000Y-41233334D01*
X163075000Y-41233334D01*
X163075000Y-40533334D01*
X163541666Y-40533334D01*
X163541696Y-40551094D01*
X163554477Y-40698121D01*
X163618612Y-40756347D01*
X163775000Y-40766667D01*
X163792760Y-40766638D01*
X163939788Y-40753857D01*
X163998013Y-40689721D01*
X164008333Y-40533334D01*
X164008304Y-40515573D01*
X163995523Y-40368546D01*
X163931387Y-40310320D01*
X163775000Y-40300000D01*
X163757240Y-40300029D01*
X163610212Y-40312810D01*
X163551987Y-40376946D01*
X163541666Y-40533334D01*
X163075000Y-40533334D01*
X163075000Y-39833334D01*
X164008333Y-39833334D01*
X164941666Y-39833334D01*
X164941666Y-39366667D01*
X164008333Y-39366667D01*
X164008333Y-39833334D01*
X163075000Y-39833334D01*
X163075000Y-38433334D01*
X163541666Y-38433334D01*
X163541666Y-39366667D01*
X163775000Y-39366667D01*
X163792760Y-39366638D01*
X163939788Y-39353857D01*
X163998013Y-39289721D01*
X164008333Y-39133334D01*
X164008333Y-38900000D01*
X165408333Y-38900000D01*
X165408333Y-39366667D01*
X166341666Y-39366667D01*
X166341666Y-40300000D01*
X165408333Y-40300000D01*
X165408333Y-40533334D01*
X165408362Y-40551094D01*
X165421143Y-40698121D01*
X165485279Y-40756347D01*
X165641666Y-40766667D01*
X165659427Y-40766696D01*
X165806454Y-40779477D01*
X165864680Y-40843613D01*
X165875000Y-41000000D01*
X165874971Y-41017760D01*
X165862190Y-41164788D01*
X165798054Y-41223013D01*
X165641666Y-41233334D01*
X165623906Y-41233304D01*
X165476879Y-41220523D01*
X165418653Y-41156388D01*
X165408333Y-41000000D01*
X165408304Y-40982240D01*
X165395523Y-40835212D01*
X165331387Y-40776987D01*
X165175000Y-40766667D01*
X164941666Y-40766667D01*
X164941666Y-41700000D01*
X165875000Y-41700000D01*
X165875000Y-41933334D01*
X165875029Y-41951094D01*
X165887810Y-42098121D01*
X165951946Y-42156347D01*
X166108333Y-42166667D01*
X166126093Y-42166696D01*
X166273121Y-42179477D01*
X166331346Y-42243613D01*
X166341666Y-42400000D01*
X166341696Y-42417760D01*
X166354477Y-42564788D01*
X166418612Y-42623013D01*
X166575000Y-42633334D01*
X166592760Y-42633363D01*
X166739788Y-42646144D01*
X166798013Y-42710279D01*
X166808333Y-42866667D01*
X166808362Y-42884427D01*
X166821143Y-43031455D01*
X166885279Y-43089680D01*
X167041666Y-43100000D01*
X167275000Y-43100000D01*
X167275000Y-41700000D01*
X167508333Y-41700000D01*
X167526093Y-41699971D01*
X167673121Y-41687190D01*
X167731346Y-41623054D01*
X167741666Y-41466667D01*
X167741666Y-41233334D01*
X166341666Y-41233334D01*
X166341666Y-41000000D01*
X166341696Y-40982240D01*
X166354477Y-40835212D01*
X166418612Y-40776987D01*
X166575000Y-40766667D01*
X166592760Y-40766638D01*
X166739788Y-40753857D01*
X166798013Y-40689721D01*
X166808333Y-40533334D01*
X166808333Y-40300000D01*
X167741666Y-40300000D01*
X167741666Y-40533334D01*
X167741696Y-40551094D01*
X167754477Y-40698121D01*
X167818612Y-40756347D01*
X167975000Y-40766667D01*
X168208333Y-40766667D01*
X168208333Y-41700000D01*
X167975000Y-41700000D01*
X167957240Y-41700029D01*
X167810212Y-41712810D01*
X167751987Y-41776946D01*
X167741666Y-41933334D01*
X167741666Y-42166667D01*
X169141666Y-42166667D01*
X169141666Y-42400000D01*
X169141696Y-42417760D01*
X169154477Y-42564788D01*
X169218612Y-42623013D01*
X169375000Y-42633334D01*
X169608333Y-42633334D01*
X169608333Y-41700000D01*
X169841666Y-41700000D01*
X169859427Y-41699971D01*
X170006454Y-41687190D01*
X170064680Y-41623054D01*
X170075000Y-41466667D01*
X170075029Y-41448907D01*
X170087810Y-41301879D01*
X170151946Y-41243654D01*
X170308333Y-41233334D01*
X170326093Y-41233304D01*
X170473121Y-41220523D01*
X170531346Y-41156388D01*
X170541666Y-41000000D01*
X170541666Y-40766667D01*
X169141666Y-40766667D01*
X169141666Y-40300000D01*
X169375000Y-40300000D01*
X169392760Y-40299971D01*
X169539788Y-40287190D01*
X169598013Y-40223054D01*
X169608333Y-40066667D01*
X169608362Y-40048907D01*
X169621143Y-39901879D01*
X169685279Y-39843654D01*
X169841666Y-39833334D01*
X169859427Y-39833363D01*
X170006454Y-39846144D01*
X170064680Y-39910279D01*
X170075000Y-40066667D01*
X170075000Y-40300000D01*
X171008333Y-40300000D01*
X171475000Y-40300000D01*
X172408333Y-40300000D01*
X172408333Y-40066667D01*
X172408362Y-40048907D01*
X172421143Y-39901879D01*
X172485279Y-39843654D01*
X172641666Y-39833334D01*
X173808333Y-39833334D01*
X174741666Y-39833334D01*
X174741666Y-40300000D01*
X175675000Y-40300000D01*
X175675000Y-39833334D01*
X174741666Y-39833334D01*
X174741666Y-39366667D01*
X173808333Y-39366667D01*
X173808333Y-39833334D01*
X172641666Y-39833334D01*
X172659427Y-39833304D01*
X172806454Y-39820523D01*
X172864680Y-39756388D01*
X172875000Y-39600000D01*
X172875000Y-39366667D01*
X173808333Y-39366667D01*
X173808333Y-38900000D01*
X172875000Y-38900000D01*
X172875000Y-37966667D01*
X173341666Y-37966667D01*
X173341666Y-37033334D01*
X172875000Y-37033334D01*
X172875000Y-37966667D01*
X172641666Y-37966667D01*
X172623906Y-37966638D01*
X172476879Y-37953857D01*
X172418653Y-37889721D01*
X172408333Y-37733334D01*
X172408304Y-37715573D01*
X172395523Y-37568546D01*
X172331387Y-37510320D01*
X172175000Y-37500000D01*
X171941666Y-37500000D01*
X171941666Y-38433334D01*
X172175000Y-38433334D01*
X172192760Y-38433363D01*
X172339788Y-38446144D01*
X172398013Y-38510279D01*
X172408333Y-38666667D01*
X172408333Y-38900000D01*
X171475000Y-38900000D01*
X171475000Y-40300000D01*
X171008333Y-40300000D01*
X171008333Y-40066667D01*
X171008304Y-40048907D01*
X170995523Y-39901879D01*
X170931387Y-39843654D01*
X170775000Y-39833334D01*
X170541666Y-39833334D01*
X170541666Y-37966667D01*
X171008333Y-37966667D01*
X171475000Y-37966667D01*
X171475000Y-37033334D01*
X171008333Y-37033334D01*
X171008333Y-37966667D01*
X170541666Y-37966667D01*
X170541666Y-37500000D01*
X170075000Y-37500000D01*
X170075000Y-36566667D01*
X169608333Y-36566667D01*
X169608333Y-35633334D01*
X170075000Y-35633334D01*
X170075000Y-34700000D01*
X170541666Y-34700000D01*
X170541666Y-35633334D01*
X170308333Y-35633334D01*
X170290573Y-35633363D01*
X170143545Y-35646144D01*
X170085320Y-35710279D01*
X170075000Y-35866667D01*
X170075029Y-35884427D01*
X170087810Y-36031455D01*
X170151946Y-36089680D01*
X170308333Y-36100000D01*
X170326093Y-36100029D01*
X170473121Y-36112810D01*
X170531346Y-36176946D01*
X170541666Y-36333334D01*
X170541666Y-36566667D01*
X171475000Y-36566667D01*
X171475000Y-37033334D01*
X172875000Y-37033334D01*
X172875000Y-36566667D01*
X173108333Y-36566667D01*
X173126093Y-36566696D01*
X173273121Y-36579477D01*
X173331346Y-36643613D01*
X173341666Y-36800000D01*
X173341696Y-36817760D01*
X173354477Y-36964788D01*
X173418612Y-37023013D01*
X173575000Y-37033334D01*
X173592760Y-37033304D01*
X173739788Y-37020523D01*
X173798013Y-36956388D01*
X173808333Y-36800000D01*
X173808362Y-36782240D01*
X173821143Y-36635212D01*
X173885279Y-36576987D01*
X174041666Y-36566667D01*
X174059427Y-36566696D01*
X174206454Y-36579477D01*
X174264680Y-36643613D01*
X174275000Y-36800000D01*
X174274971Y-36817760D01*
X174262190Y-36964788D01*
X174198054Y-37023013D01*
X174041666Y-37033334D01*
X173808333Y-37033334D01*
X173808333Y-38433334D01*
X174275000Y-38433334D01*
X174275000Y-37500000D01*
X174741666Y-37500000D01*
X174741666Y-38433334D01*
X174508333Y-38433334D01*
X174490573Y-38433363D01*
X174343545Y-38446144D01*
X174285320Y-38510279D01*
X174275000Y-38666667D01*
X174275029Y-38684427D01*
X174287810Y-38831455D01*
X174351946Y-38889680D01*
X174508333Y-38900000D01*
X174526093Y-38900029D01*
X174673121Y-38912810D01*
X174731346Y-38976946D01*
X174741666Y-39133334D01*
X174741666Y-39366667D01*
X175675000Y-39366667D01*
X175675000Y-39600000D01*
X175675029Y-39617760D01*
X175687810Y-39764788D01*
X175751946Y-39823013D01*
X175908333Y-39833334D01*
X176141666Y-39833334D01*
X176141666Y-40766667D01*
X176608333Y-40766667D01*
G37*
G36*
X177775000Y-41233334D02*
G01*
X177792760Y-41233363D01*
X177939788Y-41246144D01*
X177998013Y-41310279D01*
X178008333Y-41466667D01*
X178008362Y-41484427D01*
X178021143Y-41631455D01*
X178085279Y-41689680D01*
X178241666Y-41700000D01*
X178259427Y-41700029D01*
X178406454Y-41712810D01*
X178464680Y-41776946D01*
X178475000Y-41933334D01*
X178475000Y-42166667D01*
X177541666Y-42166667D01*
X177541666Y-41233334D01*
X177775000Y-41233334D01*
G37*
G36*
X164941666Y-43100000D02*
G01*
X164008333Y-43100000D01*
X164008333Y-44033334D01*
X163541666Y-44033334D01*
X163541666Y-43100000D01*
X163775000Y-43100000D01*
X163792760Y-43099971D01*
X163939788Y-43087190D01*
X163998013Y-43023054D01*
X164008333Y-42866667D01*
X164008333Y-42633334D01*
X164941666Y-42633334D01*
X164941666Y-43100000D01*
G37*
G36*
X173808333Y-42866667D02*
G01*
X173808304Y-42884427D01*
X173795523Y-43031455D01*
X173731387Y-43089680D01*
X173575000Y-43100000D01*
X173557240Y-43100029D01*
X173410212Y-43112810D01*
X173351987Y-43176946D01*
X173341666Y-43333334D01*
X173341666Y-43566667D01*
X172875000Y-43566667D01*
X172875000Y-44500000D01*
X172408333Y-44500000D01*
X172408333Y-43566667D01*
X172641666Y-43566667D01*
X172659427Y-43566638D01*
X172806454Y-43553857D01*
X172864680Y-43489721D01*
X172875000Y-43333334D01*
X172874971Y-43315573D01*
X172862190Y-43168546D01*
X172798054Y-43110320D01*
X172641666Y-43100000D01*
X172623906Y-43099971D01*
X172476879Y-43087190D01*
X172418653Y-43023054D01*
X172408333Y-42866667D01*
X172408333Y-42633334D01*
X173808333Y-42633334D01*
X173808333Y-42866667D01*
G37*
G36*
X178259427Y-40300029D02*
G01*
X178406454Y-40312810D01*
X178464680Y-40376946D01*
X178475000Y-40533334D01*
X178474971Y-40551094D01*
X178462190Y-40698121D01*
X178398054Y-40756347D01*
X178241666Y-40766667D01*
X178223906Y-40766638D01*
X178076879Y-40753857D01*
X178018653Y-40689721D01*
X178008333Y-40533334D01*
X178008362Y-40515573D01*
X178021143Y-40368546D01*
X178085279Y-40310320D01*
X178241666Y-40300000D01*
X178259427Y-40300029D01*
G37*
G36*
X167275000Y-37966667D02*
G01*
X167508333Y-37966667D01*
X167526093Y-37966638D01*
X167673121Y-37953857D01*
X167731346Y-37889721D01*
X167741666Y-37733334D01*
X167741696Y-37715573D01*
X167754477Y-37568546D01*
X167818612Y-37510320D01*
X167975000Y-37500000D01*
X167992760Y-37500029D01*
X168139788Y-37512810D01*
X168198013Y-37576946D01*
X168208333Y-37733334D01*
X168208304Y-37751094D01*
X168195523Y-37898121D01*
X168131387Y-37956347D01*
X167975000Y-37966667D01*
X167957240Y-37966696D01*
X167810212Y-37979477D01*
X167751987Y-38043613D01*
X167741666Y-38200000D01*
X167741637Y-38217760D01*
X167728856Y-38364788D01*
X167664721Y-38423013D01*
X167508333Y-38433334D01*
X167490573Y-38433363D01*
X167343545Y-38446144D01*
X167285320Y-38510279D01*
X167275000Y-38666667D01*
X167274971Y-38684427D01*
X167262190Y-38831455D01*
X167198054Y-38889680D01*
X167041666Y-38900000D01*
X166808333Y-38900000D01*
X166808333Y-37033334D01*
X167275000Y-37033334D01*
X167275000Y-37966667D01*
G37*
G36*
X173592760Y-46366696D02*
G01*
X173739788Y-46379477D01*
X173798013Y-46443613D01*
X173808333Y-46600000D01*
X173808304Y-46617760D01*
X173795523Y-46764788D01*
X173731387Y-46823013D01*
X173575000Y-46833334D01*
X173557240Y-46833304D01*
X173410212Y-46820523D01*
X173351987Y-46756388D01*
X173341666Y-46600000D01*
X173341696Y-46582240D01*
X173354477Y-46435212D01*
X173418612Y-46376987D01*
X173575000Y-46366667D01*
X173592760Y-46366696D01*
G37*
G36*
X166126093Y-46833363D02*
G01*
X166273121Y-46846144D01*
X166331346Y-46910279D01*
X166341666Y-47066667D01*
X166341637Y-47084427D01*
X166328856Y-47231455D01*
X166264721Y-47289680D01*
X166108333Y-47300000D01*
X166090573Y-47299971D01*
X165943545Y-47287190D01*
X165885320Y-47223054D01*
X165875000Y-47066667D01*
X165875029Y-47048907D01*
X165887810Y-46901879D01*
X165951946Y-46843654D01*
X166108333Y-46833334D01*
X166126093Y-46833363D01*
G37*
G36*
X170326093Y-48233363D02*
G01*
X170473121Y-48246144D01*
X170531346Y-48310279D01*
X170541666Y-48466667D01*
X170541637Y-48484427D01*
X170528856Y-48631455D01*
X170464721Y-48689680D01*
X170308333Y-48700000D01*
X170290573Y-48699971D01*
X170143545Y-48687190D01*
X170085320Y-48623054D01*
X170075000Y-48466667D01*
X170075029Y-48448907D01*
X170087810Y-48301879D01*
X170151946Y-48243654D01*
X170308333Y-48233334D01*
X170326093Y-48233363D01*
G37*
G36*
X177541666Y-49166667D02*
G01*
X176141666Y-49166667D01*
X176141666Y-47766667D01*
X177541666Y-47766667D01*
X177541666Y-49166667D01*
G37*
G36*
X168675000Y-47766667D02*
G01*
X168208333Y-47766667D01*
X168208333Y-46833334D01*
X168675000Y-46833334D01*
X168675000Y-47766667D01*
G37*
%TO.C,R18*%
X149090000Y-118772936D02*
X149090000Y-120227064D01*
X150910000Y-118772936D02*
X150910000Y-120227064D01*
%TO.C,R1*%
X152977064Y-81835000D02*
X151522936Y-81835000D01*
X152977064Y-80015000D02*
X151522936Y-80015000D01*
%TO.C,R19*%
X163990000Y-77402064D02*
X163990000Y-75947936D01*
X165810000Y-77402064D02*
X165810000Y-75947936D01*
%TO.C,C9*%
X152286252Y-106915000D02*
X150863748Y-106915000D01*
X152286252Y-108735000D02*
X150863748Y-108735000D01*
%TO.C,Q1*%
X142300000Y-35115000D02*
X143710000Y-35115000D01*
X143710000Y-35775000D02*
X143710000Y-35115000D01*
X143710000Y-37445000D02*
X143710000Y-36775000D01*
X143710000Y-37435000D02*
X140975000Y-37435000D01*
%TO.C,R20*%
X164177064Y-71115000D02*
X162722936Y-71115000D01*
X164177064Y-72935000D02*
X162722936Y-72935000D01*
%TO.C,R16*%
X144952064Y-31160000D02*
X143497936Y-31160000D01*
X144952064Y-29340000D02*
X143497936Y-29340000D01*
%TO.C,R15*%
X133590000Y-78652064D02*
X133590000Y-77197936D01*
X135410000Y-78652064D02*
X135410000Y-77197936D01*
%TO.C,R4*%
X124472064Y-111090000D02*
X123017936Y-111090000D01*
X124472064Y-112910000D02*
X123017936Y-112910000D01*
%TO.C,C3*%
X124486252Y-102535000D02*
X123063748Y-102535000D01*
X124486252Y-100715000D02*
X123063748Y-100715000D01*
%TO.C,R2*%
X100747936Y-118315000D02*
X102202064Y-118315000D01*
X100747936Y-120135000D02*
X102202064Y-120135000D01*
%TO.C,C18*%
X122760000Y-90963748D02*
X122760000Y-92386252D01*
X120940000Y-90963748D02*
X120940000Y-92386252D01*
%TO.C,R21*%
X160527064Y-111960000D02*
X159072936Y-111960000D01*
X160527064Y-110140000D02*
X159072936Y-110140000D01*
%TO.C,R22*%
X159072936Y-114990000D02*
X160527064Y-114990000D01*
X159072936Y-116810000D02*
X160527064Y-116810000D01*
%TO.C,C15*%
X131788748Y-98090000D02*
X133211252Y-98090000D01*
X131788748Y-99910000D02*
X133211252Y-99910000D01*
%TO.C,C14*%
X152286252Y-112585000D02*
X150863748Y-112585000D01*
X152286252Y-110765000D02*
X150863748Y-110765000D01*
%TO.C,C13*%
X131788748Y-103590000D02*
X133211252Y-103590000D01*
X131788748Y-105410000D02*
X133211252Y-105410000D01*
%TO.C,R14*%
X134090000Y-35877064D02*
X134090000Y-34422936D01*
X135910000Y-35877064D02*
X135910000Y-34422936D01*
%TO.C,R12*%
X106460000Y-99622936D02*
X106460000Y-103977064D01*
X103040000Y-99622936D02*
X103040000Y-103977064D01*
%TO.C,C10*%
X152286252Y-89415000D02*
X150863748Y-89415000D01*
X152286252Y-91235000D02*
X150863748Y-91235000D01*
%TO.C,R13*%
X173322936Y-87790000D02*
X177677064Y-87790000D01*
X173322936Y-91210000D02*
X177677064Y-91210000D01*
%TO.C,R3*%
X100847936Y-110015000D02*
X102302064Y-110015000D01*
X100847936Y-111835000D02*
X102302064Y-111835000D01*
%TO.C,R6*%
X123017936Y-107660000D02*
X124472064Y-107660000D01*
X123017936Y-105840000D02*
X124472064Y-105840000D01*
%TO.C,R9*%
X117865000Y-78652064D02*
X117865000Y-77197936D01*
X119685000Y-78652064D02*
X119685000Y-77197936D01*
%TO.C,U2*%
X134835000Y-91475000D02*
X134835000Y-89525000D01*
X134835000Y-91475000D02*
X134835000Y-93425000D01*
X125965000Y-91475000D02*
X125965000Y-93425000D01*
X125965000Y-91475000D02*
X125965000Y-88025000D01*
%TD*%
%LPC*%
D12*
%TO.C,H2*%
X179700000Y-55900000D03*
%TD*%
D13*
%TO.C,SW8*%
X175250000Y-67600000D03*
X168750000Y-67600000D03*
X168750000Y-72100000D03*
X175250000Y-72100000D03*
%TD*%
D14*
%TO.C,J3*%
X171350000Y-97582500D03*
D15*
X177350000Y-97582500D03*
%TD*%
D13*
%TO.C,SW6*%
X138750000Y-67600000D03*
X145250000Y-67600000D03*
X138750000Y-72100000D03*
X145250000Y-72100000D03*
%TD*%
D16*
%TO.C,D4*%
X150445000Y-33275000D03*
D17*
X160605000Y-33275000D03*
%TD*%
D18*
%TO.C,U4*%
X145800000Y-121000000D03*
D19*
X145800000Y-118460000D03*
X145800000Y-115920000D03*
X145800000Y-113380000D03*
X145800000Y-110840000D03*
X145800000Y-108300000D03*
X145800000Y-105760000D03*
X145800000Y-103220000D03*
X145800000Y-100680000D03*
X145800000Y-98140000D03*
X145800000Y-95600000D03*
X145800000Y-93060000D03*
X145800000Y-90520000D03*
X145800000Y-87980000D03*
X138180000Y-87980000D03*
X138180000Y-90520000D03*
X138180000Y-93060000D03*
X138180000Y-95600000D03*
X138180000Y-98140000D03*
X138180000Y-100680000D03*
X138180000Y-103220000D03*
X138180000Y-105760000D03*
X138180000Y-108300000D03*
X138180000Y-110840000D03*
X138180000Y-113380000D03*
X138180000Y-115920000D03*
X138180000Y-118460000D03*
X138180000Y-121000000D03*
%TD*%
D12*
%TO.C,H5*%
X101600000Y-125700000D03*
%TD*%
%TO.C,H4*%
X179700000Y-25400000D03*
%TD*%
D18*
%TO.C,C8*%
X112500000Y-90044887D03*
D20*
X115000000Y-90044887D03*
%TD*%
D16*
%TO.C,D3*%
X110570000Y-33275000D03*
D17*
X120730000Y-33275000D03*
%TD*%
D18*
%TO.C,C6*%
X175900000Y-83525000D03*
D20*
X175900000Y-81025000D03*
%TD*%
D21*
%TO.C,Y1*%
X151500000Y-101450000D03*
X151500000Y-96570000D03*
%TD*%
D22*
%TO.C,SW3*%
X160560000Y-102232500D03*
D23*
X160560000Y-97632500D03*
%TD*%
D24*
%TO.C,J1*%
X128290000Y-120475000D03*
D25*
X125750000Y-120475000D03*
X128290000Y-123015000D03*
X125750000Y-123015000D03*
X128290000Y-125555000D03*
X125750000Y-125555000D03*
%TD*%
D18*
%TO.C,D2*%
X111915000Y-39125000D03*
D19*
X119535000Y-39125000D03*
%TD*%
D26*
%TO.C,SW4*%
X166575000Y-112100000D03*
D13*
X166575000Y-117100000D03*
X166575000Y-114600000D03*
D27*
X174075000Y-120200000D03*
X174075000Y-109000000D03*
D13*
X181075000Y-117100000D03*
X181075000Y-112100000D03*
%TD*%
D24*
%TO.C,JP1*%
X104750000Y-87975000D03*
D25*
X104750000Y-90515000D03*
X104750000Y-93055000D03*
%TD*%
D13*
%TO.C,SW5*%
X108750000Y-67600000D03*
X115250000Y-67600000D03*
X115250000Y-72100000D03*
X108750000Y-72100000D03*
%TD*%
D12*
%TO.C,H1*%
X104775000Y-55875000D03*
%TD*%
D24*
%TO.C,JP2*%
X159575000Y-86075000D03*
D25*
X162115000Y-86075000D03*
X164655000Y-86075000D03*
%TD*%
D24*
%TO.C,J2*%
X149961600Y-25400000D03*
D25*
X147421600Y-25400000D03*
X144881600Y-25400000D03*
X142341600Y-25400000D03*
X139801600Y-25400000D03*
X137261600Y-25400000D03*
X134721600Y-25400000D03*
X132181600Y-25400000D03*
X129641600Y-25400000D03*
X127101600Y-25400000D03*
X124561600Y-25400000D03*
X122021600Y-25400000D03*
X119481600Y-25400000D03*
X116941600Y-25400000D03*
X114401600Y-25400000D03*
X111861600Y-25400000D03*
%TD*%
D12*
%TO.C,H3*%
X104775000Y-25400000D03*
%TD*%
D18*
%TO.C,D1*%
X151515000Y-39125000D03*
D19*
X159135000Y-39125000D03*
%TD*%
D24*
%TO.C,SW2*%
X150700000Y-85250000D03*
D25*
X153240000Y-85250000D03*
%TD*%
D12*
%TO.C,H6*%
X182425000Y-125675000D03*
%TD*%
D13*
%TO.C,SW7*%
X161750000Y-125750000D03*
X155250000Y-125750000D03*
X155250000Y-121250000D03*
X161750000Y-121250000D03*
%TD*%
D28*
%TO.C,SW1*%
X111575000Y-110975000D03*
X111575000Y-115675000D03*
X111575000Y-120375000D03*
%TD*%
D29*
%TO.C,R11*%
X118445000Y-72025000D03*
X121545000Y-72025000D03*
%TD*%
D30*
%TO.C,C7*%
X121537500Y-67200000D03*
X118412500Y-67200000D03*
%TD*%
D31*
%TO.C,C11*%
X131412500Y-67200000D03*
X134537500Y-67200000D03*
%TD*%
%TO.C,C12*%
X161812500Y-67200000D03*
X164937500Y-67200000D03*
%TD*%
D32*
%TO.C,R17*%
X134545000Y-72025000D03*
X131445000Y-72025000D03*
%TD*%
D33*
%TO.C,R18*%
X150000000Y-117950000D03*
X150000000Y-121050000D03*
%TD*%
D32*
%TO.C,R1*%
X153800000Y-80925000D03*
X150700000Y-80925000D03*
%TD*%
D34*
%TO.C,R19*%
X164900000Y-78225000D03*
X164900000Y-75125000D03*
%TD*%
D30*
%TO.C,C9*%
X153137500Y-107825000D03*
X150012500Y-107825000D03*
%TD*%
D35*
%TO.C,Q1*%
X141645000Y-36925000D03*
X141645000Y-35625000D03*
X144305000Y-36275000D03*
%TD*%
D32*
%TO.C,R20*%
X165000000Y-72025000D03*
X161900000Y-72025000D03*
%TD*%
%TO.C,R16*%
X145775000Y-30250000D03*
X142675000Y-30250000D03*
%TD*%
D34*
%TO.C,R15*%
X134500000Y-79475000D03*
X134500000Y-76375000D03*
%TD*%
D32*
%TO.C,R4*%
X125295000Y-112000000D03*
X122195000Y-112000000D03*
%TD*%
D30*
%TO.C,C3*%
X125337500Y-101625000D03*
X122212500Y-101625000D03*
%TD*%
D29*
%TO.C,R2*%
X99925000Y-119225000D03*
X103025000Y-119225000D03*
%TD*%
D36*
%TO.C,C18*%
X121850000Y-90112500D03*
X121850000Y-93237500D03*
%TD*%
D32*
%TO.C,R21*%
X161350000Y-111050000D03*
X158250000Y-111050000D03*
%TD*%
D29*
%TO.C,R22*%
X158250000Y-115900000D03*
X161350000Y-115900000D03*
%TD*%
D31*
%TO.C,C15*%
X130937500Y-99000000D03*
X134062500Y-99000000D03*
%TD*%
D30*
%TO.C,C14*%
X153137500Y-111675000D03*
X150012500Y-111675000D03*
%TD*%
D31*
%TO.C,C13*%
X130937500Y-104500000D03*
X134062500Y-104500000D03*
%TD*%
D34*
%TO.C,R14*%
X135000000Y-36700000D03*
X135000000Y-33600000D03*
%TD*%
D37*
%TO.C,R12*%
X104750000Y-98750000D03*
X104750000Y-104850000D03*
%TD*%
D30*
%TO.C,C10*%
X153137500Y-90325000D03*
X150012500Y-90325000D03*
%TD*%
D38*
%TO.C,R13*%
X172450000Y-89500000D03*
X178550000Y-89500000D03*
%TD*%
D29*
%TO.C,R3*%
X100025000Y-110925000D03*
X103125000Y-110925000D03*
%TD*%
%TO.C,R6*%
X122195000Y-106750000D03*
X125295000Y-106750000D03*
%TD*%
D34*
%TO.C,R9*%
X118775000Y-79475000D03*
X118775000Y-76375000D03*
%TD*%
D39*
%TO.C,U2*%
X126590000Y-89000000D03*
X127860000Y-89000000D03*
X129130000Y-89000000D03*
X130400000Y-89000000D03*
X131670000Y-89000000D03*
X132940000Y-89000000D03*
X134210000Y-89000000D03*
X134210000Y-93950000D03*
X132940000Y-93950000D03*
X131670000Y-93950000D03*
X130400000Y-93950000D03*
X129130000Y-93950000D03*
X127860000Y-93950000D03*
X126590000Y-93950000D03*
%TD*%
M02*
