%TF.GenerationSoftware,KiCad,Pcbnew,(5.99.0-12960-gccd3a1e6a9)*%
%TF.CreationDate,2021-11-17T23:12:52-08:00*%
%TF.ProjectId,Team2EpicDiceRoller,5465616d-3245-4706-9963-44696365526f,rev?*%
%TF.SameCoordinates,Original*%
%TF.FileFunction,Soldermask,Top*%
%TF.FilePolarity,Negative*%
%FSLAX46Y46*%
G04 Gerber Fmt 4.6, Leading zero omitted, Abs format (unit mm)*
G04 Created by KiCad (PCBNEW (5.99.0-12960-gccd3a1e6a9)) date 2021-11-17 23:12:52*
%MOMM*%
%LPD*%
G01*
G04 APERTURE LIST*
G04 Aperture macros list*
%AMRoundRect*
0 Rectangle with rounded corners*
0 $1 Rounding radius*
0 $2 $3 $4 $5 $6 $7 $8 $9 X,Y pos of 4 corners*
0 Add a 4 corners polygon primitive as box body*
4,1,4,$2,$3,$4,$5,$6,$7,$8,$9,$2,$3,0*
0 Add four circle primitives for the rounded corners*
1,1,$1+$1,$2,$3*
1,1,$1+$1,$4,$5*
1,1,$1+$1,$6,$7*
1,1,$1+$1,$8,$9*
0 Add four rect primitives between the rounded corners*
20,1,$1+$1,$2,$3,$4,$5,0*
20,1,$1+$1,$4,$5,$6,$7,0*
20,1,$1+$1,$6,$7,$8,$9,0*
20,1,$1+$1,$8,$9,$2,$3,0*%
G04 Aperture macros list end*
%ADD10C,3.200000*%
%ADD11RoundRect,0.250000X0.625000X-0.400000X0.625000X0.400000X-0.625000X0.400000X-0.625000X-0.400000X0*%
%ADD12C,2.000000*%
%ADD13R,3.500000X4.000000*%
%ADD14RoundRect,0.750000X0.750000X1.000000X-0.750000X1.000000X-0.750000X-1.000000X0.750000X-1.000000X0*%
%ADD15RoundRect,0.150000X-0.825000X-0.150000X0.825000X-0.150000X0.825000X0.150000X-0.825000X0.150000X0*%
%ADD16RoundRect,0.250001X-1.074999X0.462499X-1.074999X-0.462499X1.074999X-0.462499X1.074999X0.462499X0*%
%ADD17R,2.200000X2.200000*%
%ADD18O,2.200000X2.200000*%
%ADD19RoundRect,0.250000X0.650000X-0.412500X0.650000X0.412500X-0.650000X0.412500X-0.650000X-0.412500X0*%
%ADD20R,1.200000X1.200000*%
%ADD21R,1.500000X1.600000*%
%ADD22R,1.600000X1.600000*%
%ADD23O,1.600000X1.600000*%
%ADD24C,1.600000*%
%ADD25C,1.500000*%
%ADD26R,2.625000X2.625000*%
%ADD27C,2.625000*%
%ADD28R,1.700000X1.700000*%
%ADD29O,1.700000X1.700000*%
%ADD30R,2.000000X2.000000*%
%ADD31R,3.200000X2.000000*%
%ADD32RoundRect,0.250000X0.412500X0.650000X-0.412500X0.650000X-0.412500X-0.650000X0.412500X-0.650000X0*%
%ADD33R,2.600000X2.000000*%
G04 APERTURE END LIST*
D10*
%TO.C,H2*%
X179700000Y-55900000D03*
%TD*%
D11*
%TO.C,R8*%
X132325000Y-46550000D03*
X132325000Y-43450000D03*
%TD*%
D12*
%TO.C,SW8*%
X175250000Y-67600000D03*
X168750000Y-67600000D03*
X168750000Y-72100000D03*
X175250000Y-72100000D03*
%TD*%
D13*
%TO.C,J3*%
X171350000Y-97582500D03*
D14*
X177350000Y-97582500D03*
%TD*%
D15*
%TO.C,U3*%
X120725000Y-43845000D03*
X120725000Y-45115000D03*
X120725000Y-46385000D03*
X120725000Y-47655000D03*
X125675000Y-47655000D03*
X125675000Y-46385000D03*
X125675000Y-45115000D03*
X125675000Y-43845000D03*
%TD*%
D12*
%TO.C,SW6*%
X138750000Y-67600000D03*
X145250000Y-67600000D03*
X138750000Y-72100000D03*
X145250000Y-72100000D03*
%TD*%
D16*
%TO.C,L2*%
X107275000Y-44107500D03*
X107275000Y-47082500D03*
%TD*%
D11*
%TO.C,R7*%
X165000000Y-38650000D03*
X165000000Y-35550000D03*
%TD*%
D17*
%TO.C,D4*%
X150445000Y-33275000D03*
D18*
X160605000Y-33275000D03*
%TD*%
D19*
%TO.C,C16*%
X150300000Y-47787500D03*
X150300000Y-44662500D03*
%TD*%
D12*
%TO.C,TP1*%
X168550000Y-82375000D03*
%TD*%
D19*
%TO.C,C2*%
X155175000Y-47787500D03*
X155175000Y-44662500D03*
%TD*%
D11*
%TO.C,R5*%
X171800000Y-46550000D03*
X171800000Y-43450000D03*
%TD*%
D20*
%TO.C,RV2*%
X112875000Y-53825000D03*
D21*
X116125000Y-54825000D03*
D20*
X112875000Y-55825000D03*
%TD*%
D12*
%TO.C,TPG1*%
X168550000Y-86775000D03*
%TD*%
D22*
%TO.C,U4*%
X145800000Y-121000000D03*
D23*
X145800000Y-118460000D03*
X145800000Y-115920000D03*
X145800000Y-113380000D03*
X145800000Y-110840000D03*
X145800000Y-108300000D03*
X145800000Y-105760000D03*
X145800000Y-103220000D03*
X145800000Y-100680000D03*
X145800000Y-98140000D03*
X145800000Y-95600000D03*
X145800000Y-93060000D03*
X145800000Y-90520000D03*
X145800000Y-87980000D03*
X138180000Y-87980000D03*
X138180000Y-90520000D03*
X138180000Y-93060000D03*
X138180000Y-95600000D03*
X138180000Y-98140000D03*
X138180000Y-100680000D03*
X138180000Y-103220000D03*
X138180000Y-105760000D03*
X138180000Y-108300000D03*
X138180000Y-110840000D03*
X138180000Y-113380000D03*
X138180000Y-115920000D03*
X138180000Y-118460000D03*
X138180000Y-121000000D03*
%TD*%
D10*
%TO.C,H5*%
X101600000Y-125700000D03*
%TD*%
D16*
%TO.C,L1*%
X145500000Y-44107500D03*
X145500000Y-47082500D03*
%TD*%
D10*
%TO.C,H4*%
X179700000Y-25400000D03*
%TD*%
D22*
%TO.C,C8*%
X112500000Y-90044887D03*
D24*
X115000000Y-90044887D03*
%TD*%
D17*
%TO.C,D3*%
X110570000Y-33275000D03*
D18*
X120730000Y-33275000D03*
%TD*%
D22*
%TO.C,C6*%
X175900000Y-83525000D03*
D24*
X175900000Y-81025000D03*
%TD*%
D25*
%TO.C,Y1*%
X151500000Y-101450000D03*
X151500000Y-96570000D03*
%TD*%
D26*
%TO.C,SW3*%
X160560000Y-102232500D03*
D27*
X160560000Y-97632500D03*
%TD*%
D28*
%TO.C,J1*%
X128290000Y-120475000D03*
D29*
X125750000Y-120475000D03*
X128290000Y-123015000D03*
X125750000Y-123015000D03*
X128290000Y-125555000D03*
X125750000Y-125555000D03*
%TD*%
D22*
%TO.C,D2*%
X111915000Y-39125000D03*
D23*
X119535000Y-39125000D03*
%TD*%
D30*
%TO.C,SW4*%
X166575000Y-112100000D03*
D12*
X166575000Y-117100000D03*
X166575000Y-114600000D03*
D31*
X174075000Y-120200000D03*
X174075000Y-109000000D03*
D12*
X181075000Y-117100000D03*
X181075000Y-112100000D03*
%TD*%
%TO.C,TP2*%
X101125000Y-90725000D03*
%TD*%
D28*
%TO.C,JP1*%
X104750000Y-87975000D03*
D29*
X104750000Y-90515000D03*
X104750000Y-93055000D03*
%TD*%
D32*
%TO.C,C1*%
X171787500Y-50950000D03*
X168662500Y-50950000D03*
%TD*%
D12*
%TO.C,SW5*%
X108750000Y-67600000D03*
X115250000Y-67600000D03*
X115250000Y-72100000D03*
X108750000Y-72100000D03*
%TD*%
%TO.C,TPG2*%
X101075000Y-95275000D03*
%TD*%
D10*
%TO.C,H1*%
X104775000Y-55875000D03*
%TD*%
D28*
%TO.C,JP2*%
X159575000Y-86075000D03*
D29*
X162115000Y-86075000D03*
X164655000Y-86075000D03*
%TD*%
D28*
%TO.C,J2*%
X149961600Y-25400000D03*
D29*
X147421600Y-25400000D03*
X144881600Y-25400000D03*
X142341600Y-25400000D03*
X139801600Y-25400000D03*
X137261600Y-25400000D03*
X134721600Y-25400000D03*
X132181600Y-25400000D03*
X129641600Y-25400000D03*
X127101600Y-25400000D03*
X124561600Y-25400000D03*
X122021600Y-25400000D03*
X119481600Y-25400000D03*
X116941600Y-25400000D03*
X114401600Y-25400000D03*
X111861600Y-25400000D03*
%TD*%
D15*
%TO.C,U1*%
X160000000Y-43845000D03*
X160000000Y-45115000D03*
X160000000Y-46385000D03*
X160000000Y-47655000D03*
X164950000Y-47655000D03*
X164950000Y-46385000D03*
X164950000Y-45115000D03*
X164950000Y-43845000D03*
%TD*%
D10*
%TO.C,H3*%
X104775000Y-25400000D03*
%TD*%
D20*
%TO.C,RV1*%
X153150000Y-53825000D03*
D21*
X156400000Y-54825000D03*
D20*
X153150000Y-55825000D03*
%TD*%
D22*
%TO.C,D1*%
X151515000Y-39125000D03*
D23*
X159135000Y-39125000D03*
%TD*%
D19*
%TO.C,C17*%
X111825000Y-47787500D03*
X111825000Y-44662500D03*
%TD*%
D28*
%TO.C,SW2*%
X150700000Y-85250000D03*
D29*
X153240000Y-85250000D03*
%TD*%
D32*
%TO.C,C4*%
X131587500Y-50950000D03*
X128462500Y-50950000D03*
%TD*%
D10*
%TO.C,H6*%
X182425000Y-125675000D03*
%TD*%
D19*
%TO.C,C5*%
X115900000Y-47787500D03*
X115900000Y-44662500D03*
%TD*%
D11*
%TO.C,R10*%
X124925000Y-38650000D03*
X124925000Y-35550000D03*
%TD*%
D12*
%TO.C,SW7*%
X161750000Y-125750000D03*
X155250000Y-125750000D03*
X155250000Y-121250000D03*
X161750000Y-121250000D03*
%TD*%
D33*
%TO.C,SW1*%
X111575000Y-110975000D03*
X111575000Y-115675000D03*
X111575000Y-120375000D03*
%TD*%
M02*
