%TF.GenerationSoftware,KiCad,Pcbnew,(5.99.0-12960-gccd3a1e6a9)*%
%TF.CreationDate,2021-11-17T23:12:52-08:00*%
%TF.ProjectId,Team2EpicDiceRoller,5465616d-3245-4706-9963-44696365526f,rev?*%
%TF.SameCoordinates,Original*%
%TF.FileFunction,Paste,Top*%
%TF.FilePolarity,Positive*%
%FSLAX46Y46*%
G04 Gerber Fmt 4.6, Leading zero omitted, Abs format (unit mm)*
G04 Created by KiCad (PCBNEW (5.99.0-12960-gccd3a1e6a9)) date 2021-11-17 23:12:52*
%MOMM*%
%LPD*%
G01*
G04 APERTURE LIST*
G04 Aperture macros list*
%AMRoundRect*
0 Rectangle with rounded corners*
0 $1 Rounding radius*
0 $2 $3 $4 $5 $6 $7 $8 $9 X,Y pos of 4 corners*
0 Add a 4 corners polygon primitive as box body*
4,1,4,$2,$3,$4,$5,$6,$7,$8,$9,$2,$3,0*
0 Add four circle primitives for the rounded corners*
1,1,$1+$1,$2,$3*
1,1,$1+$1,$4,$5*
1,1,$1+$1,$6,$7*
1,1,$1+$1,$8,$9*
0 Add four rect primitives between the rounded corners*
20,1,$1+$1,$2,$3,$4,$5,0*
20,1,$1+$1,$4,$5,$6,$7,0*
20,1,$1+$1,$6,$7,$8,$9,0*
20,1,$1+$1,$8,$9,$2,$3,0*%
G04 Aperture macros list end*
%ADD10RoundRect,0.250000X0.625000X-0.400000X0.625000X0.400000X-0.625000X0.400000X-0.625000X-0.400000X0*%
%ADD11RoundRect,0.150000X-0.825000X-0.150000X0.825000X-0.150000X0.825000X0.150000X-0.825000X0.150000X0*%
%ADD12RoundRect,0.250001X-1.074999X0.462499X-1.074999X-0.462499X1.074999X-0.462499X1.074999X0.462499X0*%
%ADD13RoundRect,0.250000X0.650000X-0.412500X0.650000X0.412500X-0.650000X0.412500X-0.650000X-0.412500X0*%
%ADD14R,1.200000X1.200000*%
%ADD15R,1.500000X1.600000*%
%ADD16RoundRect,0.250000X0.412500X0.650000X-0.412500X0.650000X-0.412500X-0.650000X0.412500X-0.650000X0*%
G04 APERTURE END LIST*
D10*
%TO.C,R8*%
X132325000Y-46550000D03*
X132325000Y-43450000D03*
%TD*%
D11*
%TO.C,U3*%
X120725000Y-43845000D03*
X120725000Y-45115000D03*
X120725000Y-46385000D03*
X120725000Y-47655000D03*
X125675000Y-47655000D03*
X125675000Y-46385000D03*
X125675000Y-45115000D03*
X125675000Y-43845000D03*
%TD*%
D12*
%TO.C,L2*%
X107275000Y-44107500D03*
X107275000Y-47082500D03*
%TD*%
D10*
%TO.C,R7*%
X165000000Y-38650000D03*
X165000000Y-35550000D03*
%TD*%
D13*
%TO.C,C16*%
X150300000Y-47787500D03*
X150300000Y-44662500D03*
%TD*%
%TO.C,C2*%
X155175000Y-47787500D03*
X155175000Y-44662500D03*
%TD*%
D10*
%TO.C,R5*%
X171800000Y-46550000D03*
X171800000Y-43450000D03*
%TD*%
D14*
%TO.C,RV2*%
X112875000Y-53825000D03*
D15*
X116125000Y-54825000D03*
D14*
X112875000Y-55825000D03*
%TD*%
D12*
%TO.C,L1*%
X145500000Y-44107500D03*
X145500000Y-47082500D03*
%TD*%
D16*
%TO.C,C1*%
X171787500Y-50950000D03*
X168662500Y-50950000D03*
%TD*%
D11*
%TO.C,U1*%
X160000000Y-43845000D03*
X160000000Y-45115000D03*
X160000000Y-46385000D03*
X160000000Y-47655000D03*
X164950000Y-47655000D03*
X164950000Y-46385000D03*
X164950000Y-45115000D03*
X164950000Y-43845000D03*
%TD*%
D14*
%TO.C,RV1*%
X153150000Y-53825000D03*
D15*
X156400000Y-54825000D03*
D14*
X153150000Y-55825000D03*
%TD*%
D13*
%TO.C,C17*%
X111825000Y-47787500D03*
X111825000Y-44662500D03*
%TD*%
D16*
%TO.C,C4*%
X131587500Y-50950000D03*
X128462500Y-50950000D03*
%TD*%
D13*
%TO.C,C5*%
X115900000Y-47787500D03*
X115900000Y-44662500D03*
%TD*%
D10*
%TO.C,R10*%
X124925000Y-38650000D03*
X124925000Y-35550000D03*
%TD*%
M02*
